<mxfile host="Electron" modified="2024-01-22T07:24:59.883Z" agent="Mozilla/5.0 (Windows NT 10.0; Win64; x64) AppleWebKit/537.36 (KHTML, like Gecko) draw.io/21.2.8 Chrome/112.0.5615.165 Electron/24.2.0 Safari/537.36" etag="3w69EJDnIRB0oquCxZPW" version="21.2.8" type="device">
  <diagram name="Page-1" id="2XWkQP5S-hDbL94sL5Vg">
    <mxGraphModel dx="1434" dy="836" grid="1" gridSize="10" guides="1" tooltips="1" connect="1" arrows="1" fold="1" page="1" pageScale="1" pageWidth="3300" pageHeight="4681" background="#999999" math="0" shadow="0">
      <root>
        <mxCell id="0" />
        <mxCell id="1" parent="0" />
        <mxCell id="01Iar1CoBmKypzJJ37KZ-8" value="" style="shape=image;verticalLabelPosition=bottom;labelBackgroundColor=default;verticalAlign=top;aspect=fixed;imageAspect=0;image=data:image/png,iVBORw0KGgoAAAANSUhEUgAAA2sAAAD4CAYAAAByr37gAAAAAXNSR0IArs4c6QAAAARnQU1BAACxjwv8YQUAAAAJcEhZcwAADsMAAA7DAcdvqGQAAGzySURBVHhe7d1/bFR1vj/+Z+kktJSIdAqlxdFxxSIkAtKrZZdQIlclqEijgZT9w+C6bm6b+COyJEg0stEgiQtx+ST0ZlmV+AcQjJuiq4bdvWuEcBf0WwRMRJC9jnRpqTBFjP1B0tLv+3XO+0zPmTlnOnNmpp2B5yMZOnNmzpxzpjPlPOf9fr/eRXPmzhsCERERERER5ZVx+icRERERERHlEYY1IiIiIiKiPMSwRkRERERElIcY1oiIiIiIiPIQwxoREREREVEeYlgjIiIiIiLKQwxrREREREREeYhhjYiIiIiIKA8xrBEREREREeUhhjUiIiIiIqI8xLBGRERERESUhxjWiIiIiIiI8hDDGhERERERUR5iWCMiIiIiIspDDGtERERERER5iGGNiIiIiIgoDzGsERERERER5SGGNSIiIiIiojzEsEZERERERJSHGNaIiIiIiIjyEMMaERERERFRHmJYIyIiIiIiykMMa0RERERERHmIYY2IiIiIiCgPMawRERERERHlIYY1IiIiIiKiPMSwRkRERERElIcY1oiIiIiIiPIQwxoREREREVEeYlgjIiIiIiLKQwxrREREREREeYhhjYiIiIiIKA8xrBEREREREeUhhjUiIiIiIqI8xLBGRERERESUhxjWiIiIiIiI8hDDGhERERERUR4qmjN33pC+TkQ5U4TQr4oxvRzoOzKI4wf5sSss0/Dc/KfwRCkQaW/FirNf6uU0sgBWr5qMFTcOYt973dgd1YspR8Zj3W9uQO0PvVi/twcRvXRkftcrcMEybH1sAqr1zZjr7XWgDFh/44COYz/i+c+u6OXp4N9J8saWNXIVaNiCypa1KNG3rx0SmgJY8KtxmKCXjIqpRShXQU2U1o1DhXn1ujVryhJsm9+M4wtfil32zV+F5WX6AZ4kNKnHz1+CWXrJqCibjXtVUBPh0CwsN69eh+SEYgr2/EZdVpUhrJfi9hvMZeqy7na9LKv0du3bTInf9QrY7eNRq350RK6kFzT8rkfk6Tr5/AXH424V1ET1vPGoN6/mgbH6e03ZxrBGLsIomVcFdJ3DgF5CGfp+CN3d5tW+I1dx0bx6XZp1czP21CzE4tKgXmIKl87Eq/NUaLvjztENYqno+Qqf9JlXI+0n8YF59fr2w4DLSf0g/q3f5zQ26m8dr/4dxOf/Su+vt9/1Cl60B8//8QIaY5cf0abvIkpJ9Ao+/8G82nHsCg6YV/ML/14XNIY1chFCcaX6wbCWRUNof2sAh38/cH13gZyyCntCEtKi+PT0Dsw99Ers0nj6ED5VgSgcXISlI7awjbbzeOOouZ/sAkn5azzq5OvzSE+a3aj8rkdEUGdKu/eaYd9fF0ii5BjWKFHdPUb3x/6jB83b15hS3R2RRt/y4EzjZ6T9z3jmwnnjuuXkhX/gmaM70HhsO97o0QsTTMHPdHdEinPLAqx7rRl7djZj68pcdbQdwDn9DbJD9yA69NXcKMZNuptRevyuNwaCZVinuyxtvSegF6YnfE+Z0ZWx7dv0Thj9rkeUXAF9/q5JY/X3mrKtgAuMhDFx4yaUdbWgq+UgAnWNKFv2CEqkRUgZ6GpDz5tb0N9u3o4nY7KCS4GeTWvxkzwmtAiTnmxQ61eZD1DrX3ZbPxRGycNPo2xOFWL/ncq2Pn4PPx1x6+mf2X6KQN1aTFpWi4BeB+hE//5W9LQe9Gz5Su/41H0bbfclpdZrUusZ1/WxVdqXuQg1IrjhEQROmK9B5opQsWgcpt9eZAteQ+g7cxXf/O8Qer/XiyyzizF3gf2xSZwZxOFW50diwqJizKkDzr0ziHZ57qlFCP1iHMpnqOc0H6K2PYhv1Hq9xq3hYiJuvAuM6PVwFSfeuqqeSx1ngzpOx3bUMbbKfe4mqGO9fYRjzbTAyfI7XsKrwVN48dAB3HbHo3giaLWUbVcBbBqeS1hmrGYw15WwtgMrzjrDmqcpq7AvNBPhVEJatBVzv3a2fBndLkPA21YILLsTz6nPw71qH60+/BG13nq13knj1nAxETfe+67XwyE0Hv2Heq5p6ngfxa8d2zmktiP3uZuljnXzCMfqtf36Z5vRfJe+gUvY9/Ju7P5O38yi+gemoFkdUMexS3j+M/0XKFak4Qq2//HHuG5AMm7CPnA+oJ7jBjSEi2NFHToivdj217hiDrffgK13jUd1Kid7kR/R+FcdNPyuZ+2n+nRJYQkZh7LyP1WIubHYvPuHQbR98SNe/8bzry7q75mgjsu+bXVSFOnBtrYr6nevF3mwXleTnyID1uvs9jtIxns9a5/aPrmgjlsvFMGA8Z6ORJ2vhfn4Qfx/HcX4D/XLHa31sluQwUehFfVeWV1bhrvt7+kfrqD1f9TrmWy/PNb7/Ite7PZ4n4XvKcfmeRg+ZrfnUO/rbep9be67830dkfdpKp+/GPXa3z4Bz9g+U/L41rYenL0tbl+E789f5sJq2/b9dBP7u2X9zfL8Pcf/3dKLY8v1zTiOv4uuvF9P1I7wfvbxPrM+w6n/vaZ8VLgta6EFGK/Cy4A6tZ2ogkJwzXAAEoHKWkzasAUT1Umam0CVBJMODKiwYhTT2NDkDCvyXHEBSkJTcMMmTLIHNaG2VbZmE4IN8t9JnIz2U0LULrWOPaiJKpQsbUJwY6NzP2zSOr7QdPX8qQQ1xdE1MoL+Y53qZzUCHq+zEeieVEFNQl6WglqNCjQz6uIDibo9Q4Wqx4tRs6hILxuWrdY0CW4L1DbsAUrIda8AlbbyIkxQgdA4zvjtzBiHOR7FUSoa1PE/mDyoZU8Ffi3BxAhlIojFoSUqqMUtq1nlKMbxQfSU8TMcqk+hmMiwlIJaCiS4HZ/XYOyj/dMq170CVNpKKzBDBcJt6vV5NX47wYXY41EcZfkdMpYvxVA6hs6q0CI6L9lOSNRJtPwlkEBz1ljgoVydCKsTnWbbyYaoDk/AZpciBCmd8Lnwu55BhbOVD6iT0MfUCbsV1IS6XnvvZOx5QMZ2xdPHNS/+RFEdZ/gG9VzlWOeztSxl6kTOKHIQSXPMTJL1rN911WT7vquT1f+crI5pclwLYADT5XnUyeOh70d3vX96nKiOBglPe9R7ZUX8e/rG8Wh+zKuVVB2Teo95rbdCvc9SKfzguW11SQgf6v17s/pdp/P5M/ZTPX7zvc73tTy+Wb2nn0lcwZDR58+nevnMxu1n/kn+ejYk2Xd/77MM/15T3ijcljUVnCpViDF1on/n/0PPkYgZJIxWJAkn6rpra45uEcL7iH483QhDA+pxl/9y0Ag3cn9JHdBvbymzbc94rHpO860fVmHoMQSXyn2dwy1ZFt/7qe5rUffJOtKK1mbtm6LWm6jWK1Pr9e/8JS4f0ctjfBxfjN5ul1p34x5bMPOgj29g/wZEW12eb6T702S2cqkw1j2EM38ZxMVYK5oKOLPHGa1K+CZZy5EKQb8tRnm31Xo1Mmub3WeGjNY0c9tX1batbUi4cmnRi2M9z4gta7GwNYRzH11F+1fmY6XVTMKY6P5oAKe/Mq6a1H0LjPvi11GvyYPjVOBT+/x79XoZSzNjtY5Jy5nZWmVviUpc9unpV1xb1wx9p/B2+wG8Edcl0psKQQsbsLjPar0amdmyFsSnKigulm6YapsvnjqAD3qsbU7DrLLzOOnZ9dJkPc+ILWuxsKVei9N/jh2btJpJGBPxr4m0Hh437otfZwk21yxUn1hpydybvLCJdIP8r/morQI6PtyL59/NURkbqSSmTjacrR/mScjwt/d2+r7Yicgg9n3yY6zlQL4Nl5MXkdCiEuO3rHw66zn30/q22/zGWlrNblBhzAxv8ftptnao+1Rw2O74lnv4W3RERvjGXbpB/ucEFRDVtkf8dj5RQotLipKup3/XjhaQ2LfyittyWfbt+NFdz1qWFWm8Z6zXR72n24714N3PhitpGq086r5qt1ZSvZ7ZKtKr3i/W79r+PnNv9bDea20qXNeG1baN95zzOcLBAVtLrv/Pn9UqYxyfWsdqVQ6r136lfq8mbwX2+7lNk+334Dy2MvU7kPeOy2tpvX/SbllzZ/1ekn12vV9PacWXL4fM+7zeL8Z66bzPhF439b/XlI8KtmUtUKW/W5BQ0bRWBRYdgET7QVx+833zduV09baMpwto4G5MWlOtAo8KEhK+YiErEhdkVIDRgUvCkfFY45ZQ223dguh++Z6iCuNrnV81+d3PkiYJam24rMLfZenuaA+Aar2f9HqBKrevttI9PhtpZZOfqRYXOfKZ0f0xUOXWtKZfN3Xsl7MQ1Oz6vpGwpG8YVFj6SoWgt3JXwEOCmgStw29JSLRvY+SgljYJhCpcWaFLyPGdOWNeLw2aoc0yQYef7o/i17mK4x/J7SKUzzaXZYuMOzPHlp3H/ovm/xD2Zf/ySMIffP0KGttPmf9BlM7EEzVP4fjCZmy7ObdVICWoSdCae1SFnlhQEyMHtbRJIDykQqsthJ68sBcv6v9IbymdZl7RZpWaY8yk26hznX9gxWlpjZyJ+6eYyzx9dxivv7AdjWu25y6oxXhUEfvBreKYjZxY/lGdUOiTFBH55kds1ys5W1TGjnHC9VcrqIkBHPisG+uPmd9S1xqVExNJwHN2R1Kvhzq+5/dK4YER/qJGe/B6rEhBSn99bdTJng6L6bUyjbDeN1fMyog3mt0QDeXyzb5aLr+zhOXqNZBv8kd7vTGhTnglhCttn3TjddsJtDB+759IiCzG3bfFva/VfevfU7/nvRLs7b9r831mfh4CmG59qeVCgpq8TxtdnsOzy206nz8VZszOQmYIsHf/jRjv1R/R5jYeagyE9X7L78F5bD36dzAedWNdoj7p63lFvZ6XsM/19czgfRbj8+815Y0CDmvSba8TPW96tP60JwkbViCprMLATjNAJRNoaDAKbkjrUGIrlmmg7XNje/Ghxd9+LsL4OfJTukjuQmWLy0XGgBmPdZHm8TlUm+umXlykHYNd6odLKLZet/6PU2ihS1HvqSFIBXWZq0y6O06Yai4fFWcyG+uVuiGck1ZDfcuuN+p/+/EBL1Pf9dkDj8m+7Eyv91njybN7scJWAVL9T4bFoQbskdA2xRlksiYqk1kn7nP2RfH2KfdWsGSvyUjiA96YUScHjXLC5zgUXQ0taQuHOkmRVid9y87qqpMfvMvXR/51xRyYbw8NirW8et4NWHfPeISTnGTnRM7mVlMneXICKV3ozAVmiX/1+zoiv7Mbx+Pn+litE2azu9VorzcGrO6jP/TiXdfWYEWHz2oVrOzvFxELVMEA6m8vw7oHyrF1VblRYMZsfSnGTcm6tEdk8uV0jj3Nz58Ow94VQtXvSl8rBGP+RdCIr6eHDN9n/v9eUz4p0LAW1mO4zDFZadOBJFn4srMC1xXjq710+NxPXY3RtzSPz65kvvzX3YnBlEsFRTBghLW7UWLPqaFGTFqqXjfpfpnmPiT1/VUcf+cquruLUF5XjDmPB7DgtzLJtTlWLZfhrS+dP7CjzMoA5Q8Wo8L+GsjYN911si+DoJcrZgXIVzD3WCvejspByDi3p1RgM+/Ppkivvd9hfjnZZ0ZzY4yffSyfjH3TXSfdwjGNEVuYMMhcXe/1ou2HYtSqwLb5MWsiWhmrlvvwlru51axqclbLhDVObAAHjJA0HChuVq+JdN07YpxQjvZ6Y8A6+b5xAjbrCYYTLzcYYdiNdNEzqn8+NhnN905ArYxFMo4pNbluUbTC8Ni1XKYuogN77b03oN7+WZMxerqL55iFes3365nh+4yuDQUa1nQ3vxNmFzxXSbrzWYEktfCVYuCyAlKn/UH+9tPqOildLruakl/cxoGld3x2/sJl/1H5TqcKxeZuK9kuKhJHBbbTMmfZO4M4c0Qmmx5CX/lweJvboEKbfuh1I9ZFsggzrAArl8eLYZzbnBnEv+1j3PJNz5d44+vtaGw3U6cUK8m7ibFzKdZF0pwY/PhCfZnXgMWyONqKlvzNmiSsbozvXcL2Y1dUcBtEhzr5tsLb1gdcvvXOCr9zpKW2nrPIiFmK3Tjh1OW/zeX6udRyq2DBaK9XUIxxYnrM1w/qvXLsR2xX75v16iLdYK1uiZSiWFdOs9hGLMRIkSBZHPnRu1WKqAAUZljTLU/OYORU8rDZTTCxO1+GrXKuVDhZZn6vMdBp+yub0X5KaJP/jdKVyfGlEC7ddJhBM7a/dY8ZxU8G9r+X3vOk6/shXDw4qILbII7/3gxv3d0wqkLe7lIR0kEqLuqr1w6z5czoVRijwuyRQZyITSuQ305Gv06tG5dUXNRXrx3mGbPz+KP4tL0VjbFpBa5zKvw4WrRS5Xe9eNa33MlCQlTGHf2ogls3nlcn3o3vmWN7pCrkMx4V2zKR67nVYl08pdVHd5s0WimiV/C5cVzSchiA9D+xj4EZ7fVGnTVXlRQ4kd9zsoujiIPV2jOIfZ+YY85kHJKMO4ufmiAfpNPa5ylbn7+kzJBv/E5ipCDHj1j/1zS7B+dQ2q+n7/cZXUsKMqxZLU+OYGRXtxaTjDFfbbiS0AVPB5JUC2iot77RzU/9lzG+zliQINDwtBFOpJBGj217fvdzoNP8cxOYt8BsdXMRqFOhTF93Svf4bKxWvnS1H8YV9RqZ+6uDaw6KiogJs5OELBXeTh82A0tpCt2OSkdzvFuuzZYy/zIX3IAZXGMXFWYP5k9Qk/L0ScekTahIsfWhArelUfo/701ZZVTIfPvYK8ZYvrmxy3Y8czbFoDYqk2KPteRFF7ylt577WKHhgf7xY7zCKlR4vm+leMAXZiBKeqIW9DMpdgA/D8tzptsdMI31VIAwynzfGEC90aoV12VRTsR1iHV08Rrt9eL5ej1tZDv6qisdHhEuw2o/70kp6mIrMjFMvVf1tbEUG5+pwnG9sSRO0Gz1TI2Pz206v7/bbzDG+e2Toi2OAJNYkCMm9j5z/z2H77nBcy41P3y/npm+z+iaUKBhzfhODSVrdiHYsEj9GbCEUdK0JVYqv3+ny0TNSbpHejG7+cn2tmCS0fdCkxL6MneajM1SH/v4IiK+91NXWETlI8ZcavaxYAFrm2s2ocwtPPo4vgRzGjDRdpzmNtV+6NuJrHFr01Gig2s2i4rETJUy9MWY89tis6vj1LiKiI7xWcYPF0Po1t0Fpz88LmF8V4UKg4XIrAZZhNKZebz/ZUuMCaJlTNq++TI2K64iokx+bZW2b/cqy/8l/mb8boN4YuaSuPFd07A8V8VJcsysBhnEz4L+97++wSzbL6ofuh+rbzGvXxvUCbtxxlWMFf9ZFjcuRQo0eJ3M+VlP5lPTY830Ehn7Mlz+/Apa7YUd1EnlM/fegM2/KTe7OqrntZOy3Na4mWThor7WKoWufn/zbkjtxMwqPuAyR1pSaa03XPSjTl3srYoHjFa5AOpulVvxY99Gez0nX6+nQW8f49EQ9x5wvH/U/3C7jRCu3lvGPHryuzfvMan3lzrh3/qbG9xPzm+cgGfsz68eL2XYt8r7zHaaMWaskCBdC1c5x4IZ+2l1MUzK7+c2vd+fOR5MhR3Paohuhn/PzfYuymq/ZA48YyqObPL9emb4PqNrQgHOs2bNIdap3sJVustfomzP+1XStEu3grlxmV8tS/vpxTnXm01G85rpffbYV/c53Uwy8bYZWpWEOeOyR+YNu2nBOJS7fvOtjTSHmgp9cx+XucfcJM5HNvL8aKlJfZ61IZx7ZxDtLtMBeD5H0mMy9XWroHp4eA42v6x50uxzhcXmMhthmQS2bTMXYnGSHY1I1cavv9S3XKjn2DdP5h5zkzgf2cjzo6Um9XnWonquOb3YxvM5kh6TKdJ3Cp8kmZOu/tlmNN+lb+AS9r28G7u/0zfHlJ7TJ8l8RanMUSShKDbfVoIrcJuTypDyetZ+SqiSVjBjYRz3Y5BiESvvGj65dDXCXFPDczAJ79fKLidzq7lw7Jt9XjPHa5v4Oxjt9ez8vJ4W6/2YwL4vmudjLT9cMaow2reddB0pr6/eJDLButu8g9a6qc/Fl8HnL9lnR8ba/TAeteERXtuUP39Oaf3+km7DJHPaff5Fr6O0//D8ZYnktWi9USYQT+ezmMHfsBFeTz/vM7p2FGDLmtXNrxXRjRtw+YSEoWEDJ97H5U3uhTfEiF0TPfS3qOfc2aa7RGpdMmF1izF/mjOoicz2E0e2oGtTC/rVNuxi67kFNcXv8Zki+Enta4/aV7uBLpnvzTuoCWvqAunSmZOiIprMGybFRU58JBUhnaFDwsi5jwZHnuzaqCgp49vc1r+alYmjR933at/PJA9hpeVFmP5gMWqyPN9aWnqk+uMONJ4+pcKHXqZJGHnxmAoxyYKaUM+x4lgrPo1rPpX13z59IPnE0fmq5yv8yaiG6S2s56TzqpR5oPUo2vRHt+PDv+VJUMsio+KijP9ytk7JSdi+T3o9T9rTX28Qn//PBaz/5IoR2iwyh9p2j5M2mc9JiousV8/nvp1LI04+e6BN1jWvdxxL5aQrR3OruTBbtEyOMW5WVzJhawGzjPZ6dum/nsMixpx6utuaRX6P3ya2jMpjZVzivogeW2RR+2eMl9qbuG3j+ePeX8bz6zFsBy7pZWNNf3bk2IZZx9WLfyf7csLi83Ob1u8vegWtjn1MVH3jeKy4dzLW2edb+0Ydh8vvYbt0p1SBK+tTiiR9PX/Eu0m25+d9RteOwmtZCzUiuOERwFfL0SgqlP3MluvtePOKbpFDshbFIlQ0mOPaMm0hpGzTLXI4hMajXt0/p2H5HU8ZLZqZthCSl5FbIPKKbhVIvYVF87sekUO+fF70fqj/+by/EAmg/gFpJZPgx/c9FZ6Ca1kL1N6tPnZ+W45GT6HsZ1aEFmGSTNKdo6IiNIKpRUa30L5vkhUSUffl4TxrpJTNxr2lKoRd/CpJIZHzGU2oTdee3M2tRlRA9PjL5BPC56CVjGgUFV5Y0xNUpz5p89golP30JRTrSI5AnbSoNaFEHWt8gRUaXaV141DjUi1TCq+EGsyxbhLazrFVLS+FQ48alTLj55ebVXYnnrvDHOsmY/L+xFY1Qm7nViMqNFKEZN3tUo/aSQr8DBcMiSsORFQgCqwbpFUAow2Xm1wqPeaNQtlPP9yLkCQrPkK5V9EQMLo4JiVj8v7iXriExpZVtCUpGZN3aq9r4RLKhsLpBmkVG3ArQJGM3/WIEuXP58VZjMSDjJFjAQ4qUAXWspbBHGKjqlD2M3OpFB+h3LvYOlx0Ja5uh63wCoNavvrg61fQePqQUTQlviuPWThlBxqPMqiRySg28Mf0A5ff9Yjy2YG/Dhf3ie/MNFzgh0GNClcBlu4nIiIiIiK69hXkpNhERERERETXOoY1IiIiIiKiPMSwRkRERERElIcY1oiIiIiIiPIQwxoREREREVEeYlgjIiIiIiLKQwxrREREREREeYhhjYiIiIiIKA8xrFGBK0LoVwEs+G0AcxcV6WVERERERIWvaM7ceUP6OlFMoGELgks7cLlpC/r1srw0dRzmPj4OpcaNIZz5/SAuGtezTUJhMabjKk68dRW9emm+WH7HS3g1qG94iuLtY9vxRo++mRXT8Nz8p/AEDqHx6D9wUi8lIiIiosyxZY1chFEyrwroOocBvSRvfT+E7m7zat+RqzkKanRtqcDq15qxZ6e6PFujl8WrwTq5P9nltQXqk0JERESUOwxr5CKE4kr1oxDCGobQ/tYADv9+AMcPXr+NxB98/QrmHrIuO/B2nyyVljT78my3qhWm+mdXYUWVvkFERESUxxjWKFHdPShRP/qPHjRvk6G0XF8hmyn4mdkHNX23LMA63cK1dWWFXphb4ZWr0XwX0PHhUbTpZUl1HsX6NdvR6HZ54TAi+mFEREREuVDAY9bCmLhxE8q6WtDVchCBukaULXsEJdIipAx0taHnzS3obzdvxzPHZAE9m9biJ3lMaBEmPdmg1tdfuav1L7utHwqj5OGnUTanCgG9SB7b8/F7+OmI26lbZvspAnVrMWlZLQJ6HXUGif79rehpPejZ8pXe8an7NtruS0qtFxvHpo+t0r7MRagRwQ2PIHDCfA380+PGPEJT35FBj9a1+PFmRahoGIfpM4r0WDe17pmr+KY1biza7GLMXaAek0pIOzOIw62ZfZTMcWen8OKhA7jtjkfxRFAGoUXx6enteObCNDyXsMxYzYUeR1Y60hi1+PFm09Q+PIpfq21Y3fsi0UNY/3XcWLQpq7AvNBPhVEJatBVzv/5S33Cqf7bZCE6mS9j38m7s/k7fzIWFy7DnqVuBL/6OxtZybP3dfFTL9T+c1g+wUUEy6f1EREREo6BwW9ZCCzBehZcBdQo+UQWF4JrhACQClbWYtGELJob0gjiBKgkmHRhQYUWCTeWGJmdYkeeKC1ASmoIbNmGSPagJta2yNZsQbHAZwZLRfkqI2qXWsQc1UYWSpU0Ibmx07odNWscXmq6eP5Wgpji6RkbQf6xT/axGwON1NgLdkyqoScjLKKhlQXkRJkwtQo0KbjNsQU2UzhiHOb8ahwn6tmX0W9Mq8GsJUEYoE0EsDi1RQS1uWc0qLNe3MlZagRlld2Kb2u6rtqAmwsGF2DN/CWbp25aUglo+kfAlQQ3fYjvDFxERERWIwm1ZU8GpUoUYUyf6d/4/9ByJmEHCaEWScKKuu7bm6BYhvI/ox9ONMDSgHnf5LweNcCP3l9QB/faWMtv2jMeq5zRDS1iFoccQXCr3dQ63ZFl876e6r0XdZ7WitVn7pqj1Jqr1ytR6/Tt/ictH9PIYH8cXo7fbpdbduMcWzDzo4xvYvwHRVpfnG+n+LJiwqBhz6opGblmLBa8hnPvoKtq/Mh87YbZa/0Gz7H/3RwM4/ZVxNY4Keb8tRnl37qpBDld0tFrErBYy92Wfnn7Fo3UtzZa1WPBSjz/9Z7xx4bxxa9aUVdhTM9O47r0tFfIWNmBxn49qkNIN8r/mo7ZKuiXuxfPv5qo8jBQLuQ+1EtTWfIwDsmikljPdCtfx4d/RWl2L5rsm6zsuoeOLb9HaehgHctkKSERERKQUbMtaoKravCKhommtCiw6AIn2g7j85vvm7crpLq1PuoAG7sakNdUq8KggIeErFrIicUFGBRgduCQcGY81bgm13dYtiO6XFqYqjK91tq753c+SJglqbbiswt9l6e5oD4BqvZ/0eoEqt3p06R6fjbSyyc9Ui4sc+czo/hiocmta06+bOvbLOQpqaes2y/tbQU30fjWIM2fM66XBsZ+rLdKuApMRsM5j/8VowrJ/5SIp9kn3SxXsdFATJy/sxYvm5nFL6TTzSjZ9dxivv2CO/8pdUJPKjxLUpJulDmppqH7oPltQE5NRfdd8NP+uGesW6kVEREREOVLAYU267XWi502P1p/2JGHDCiSVVRjYaQaoZAINDUbBDWkdSmzFMg20fa7DkzO0+NvPRRg/R35KF8ldqGxxucgYMOOxLtI8Podqc93Ui4u0Y7BL/XAJxdbr1v9xCi10o2II5/7iPg9bbzR/Gpi/6xsOTBb7sjO9OkFlTRRvn9qLD/Qtu+xva3RZlR/bdqQ5Hu7Q59j3xbfYt2Ovs8DIy39Hm3wvo9Q+tQz15lUiIiKinCjQsBbWY7jMMVlp04EkWfiyswLXlbZ0W4d87qeuxuhbmsdnVzLf7M452GHeHlkEA0ZYuxsl9pwaasSkpep1k+6Xae4DUTYMV37ci9cP6YUpu4jdf/gYuw9dVO9wm+9O4/UX9mKfEdhuRR1b14iIiCiHCjSs6W5+J8wueK6SdOezAklq4SvFwGUFpE77g/ztp9V1UrpcdjUlv7iNA0vv+Oz8hcv+o1IEvQrFusenPE/eFBWh61QNVj5kdl+sfmhV4oTWMl5N7rzrPr0snVayi/jn0UvGtarq0ZlygIiIiK5PhRnWdMuTMxg5lTxsdhNM7M6XYaucKxVOlplj2gY6bQEpo/2U0OY2Hm0kmRxfCuHSTYcZNGP7W/eYUfxkYP976T1PIZCKkvoq2UhFSX2ViIiIiLKjIMOa1fLkCEZ2dWsxyRjz1YYrCV3wdCBJtYCG1c0PtRhfZyxIEGh42ggnUkijx7Y9v/s50Gn2QQzMW2C2urkI1KlQpq87pXt8NlYrX7raD+OKeo3M/dXBNZ+KimRZ6VR9hWwqcFuZvpqqnE6KfRqv28eaxV9ePgrjUybVII1l9uIjFVi9ska9k70Mt9p1duSqMAoRERFRwYY1GUMGlKzZhWDDIlvACKOkaUusVH7/TpeJmpN0j/RidvOT7W3BJBWSYqSEvsydJmOzXIqI+N5PXWERlY8Yc6nZx4IFrG2u2YQyt/Do4/gSzGnARNtxmttU+6FvJ7LGrU1HiQ6u+VNUJFuG0G1UjCzC9IfHocIe2KYWoWL22FeRHBtf4m9GDZIgnpi5BMvtga1sGpZP8a4iWd9glu0X1Q/dj9W3mNfHWnjl/Vjx0H3Y/NoyrF5Y4Qht4YUSMKW6pNJ5FO+mPRaOiIiIKHUFOM+aNYdYpwoDVbrLX6Jsz/tV0rRLt4K5cZlfLUv76cU515tNRvOa6X322Ff3Od1MMvG2GVqVhDnjciv1edaGcO6dQbR/rxfbjPwcytRxmPv4OMdk2sPMKQEyaWex5lmzz2k26+Zm7AkFR1w2PEdbMvHzro08H5u1rUj7Dqw4m1il0lC2BPvmLXSEmmEyJYB7pcn6Z5uNAiAmKa2fZsXGTIwwz5oUJ9msW89cdX6L7S+kPxUAERERUToKsGXN6ubXiujGDbh8QsLQsIET7+PyJvfCG2LEroke+lvUc+5s010itS6ZsLrFmD/NGdREZvuJI1vQtakF/WobdrH13IKa4vf4TBH8pPa1R+2r3UCXzPfmHdSENXWBdOm8ZouKfH8Vx1XY6+52hrk+dVsm2b5uO8T1/AMrjrXi0z5nmf9I3ym8ffqAa1ATB1qPxsrgd3z4t9ELaimIvLvbKNO/74tLZndJS+cltEk5fwY1IiIiGgWF17IWakRwwyOAr5ajUVQo+5kt19vxEhERERHlWMG1rAVq7zbGZPlrORo9hbKfWRFahEkySfc1XFSEiIiIiGi0FV5Y0xNUpz5p89golP30JWQrPlInLWpNKJFxe3EFVoiIiIiIyL8CC2u5mCMtFwplP/0IY+KTm1DZssu4BNfoeeJ2uo3bIyIiIiIivwosrGUwh9ioKpT9zFwqxUeIiIiIiCh9BVi6n4iIiIiI6NpXgKX7iYiIiIiIrn0Ma0RERERERHmIYY2IiIiIiCgPMawRERERERHlIYY1IiIiIiKiPMSwRkRERERElIcY1oiIiIiIiPIQwxoREREREVEe4qTYVECKEPpVMaaXD+HcO4No/14vzjdTx2Hu4+NQqm/GdF/FibeuolffzK1peG7+U3hC7USkvRUrzn6pl9OIypZg37yFCOubMX2H0Hj0HzipbxIRERHlGlvWyFWgYQsqW9aiRN+mAlM2G/fqtBgOzcJy82oWSRh8CccXjnCZvwSz9BqUjyqw+rVm7HltQWI4JSIiojHHsEYuwiiZVwV0ncOAXkJp+P4qjv9+AIdjl0F067tGTc9X+KTPvBppP4kPzKuUip5/YMWhVzA3dmnFp/ouIiIiotHEsEYuQiiuVD8Y1grYebxx1Awbue0CGcXbx+zBJu7CboNEREREvjGsUaK6e4zuj/1HD5q3iWj03LIA66Rr4s5mbF1ZoRfmSjluqtJXiYiIKO8UcIGRMCZu3ISyrhZ0tRxEoK4RZcseQYm0CCkDXW3oeXML+tvN2/FkTFZwKdCzaS1+kseEFmHSkw1qfX3mota/7LZ+KIySh59G2ZwqBPQieWzPx+/hpyMRvcAus/0Ugbq1mLSsFgG9DtCJ/v2t6Gk96Nnyld7xqfs22u5LSq3XpNYzrutjq7QvcxFqRHDDIwicMF8D/5wFRqLq9k0Pj0N5eZF5d/cQug9fxemvvN/SE2aPw00LZB29AEPoO3MV37QOJS384Xc9UxFqfluM8pwVGBkuJuIm0r4DK86e17fcTMPym+vx64qZCMeeI4pI9CDWt3+Jkz16kYO1TWlZ2443XB+TRNmdeE69J+8NBmNjpSJ9p/CnU3vxQdxzLb/jJbwaPIUXDx3AbXc8iifUOrJ/n57ejmcuqP1IWGas5uSxvU/aD+CNC8leG3Enti1swOJ0CoykcXzx6p9tRvNd+gYuYd/Lu7H7O30zGxYuw9aHb0V1Kh/3L/6Oxj+c1jdM4ZWrsfkhDO/XLTVY3VCLu++ajGrzIehQ621T6xl/EVX43Pq7+ajuPIr1Lxw2lznIuLlVWFGV5FjdttH5LVr/+2McyOZrQ0RElGcKt2UttADjVXgZwHRMVEEhuGY4AIlAZS0mbdiCiSG9IE6gSs5UOjCgwopRTGNDkzOsyHPFBSgJTcENmzDJHtSE2lbZmk0INrgM0c9oPyVE7VLr2IOaqELJ0iYENzY698MmreMLTVfPn8qZm+LoGhlB/7FO9bMaAY/X2Qh0T6qgJiEvo6DmVPqLYsx5XAUgK6gJdb38wWIsaLAti5GgF8CcB+2BSxShdIZ6LhWmQlP1Ige/6xUKFURU6Ho1ZA9qQoWMYAP2zGvGtpun6WXZMevmZhyf12AELPsnJlw6E6/Oewn7XLdXgV9LODRCmQhicWiJCmpxy2pWxRVTkTDnvb0nap7Ctil6QZb4O77RlVJQS4EEtz2/uw8rbCFKyHW3r6788NxG1a1o/t1otD4SERGNncJtWVPBqVKFGFMn+nf+P/QciZhBwmhFknCirru25ugWIbyP6MfTjTA0oB53+S8HjXAj95fUAf32ljLb9ozHquc0Q0tYhaHHEFwq93UOt2RZfO+nuq9F3We1orVZ+6ao9Saq9crUev07f4nLR/TyGB/HF6O326XW3bjHFsw86OMb2L8B0VaX5xvp/rRYLWvmLWnZOve/V3HRKOFfhIpF4zCjzgxq3R8N4PRXxlXDhEUqWBn3Dan7bK1vU9VzPmw95xDO/H4QF407TH7Xc8p1y5o7CQ17QsGkLWvWY9B3Ci86Wn2mYdaUemxWIQ4X3db32bI2ZRWO16jnlFaw9oNoOftlrKVqlrpvs7ovrO6zP6fZsibXrOX2lsTEZZ+efmW4dU1vz2zVOqCOzzoOaU18VIVUeWJptVPHbt7hIo2WNR/Hl0C6Qf7XfNSqQNXx4V48/673OytzNVi38z7UerZ6JTJb1iaj7YtvUXvXrerP2rfY/t+f48B31n5WIHzLRUSsFq9MWtYWLsOep9Q2cAltH7bh3Xd1a50SVvc9o+6rzkXrIxERUZ4o2Ja1QJX+jlVCRdNaFVh0ABLqJOnym++btyunu7Q+6QIauBuT1lSrwKOChISvWMiKxAUZFWB04JJwZDzWuCXUdlu3ILpfWpiqML7W2brmdz9LmiSoteGyCn+XpbujPQCq9X7S6wWqXFrz0j4+G2llk5+pFhc58pnR/TFQ5da0pl83deyXMw5qTn1HBnG81QpqYggXDw7ixBEzTJXX2FrXpo7D7TpwSfdJRzfJ74fQ/tYgzhnlGoswfVEW1itAkYsSZPQNw3mcvLAXK45KgZJk3QSDeGKeS8l+udxxp36MRQUqCX+K0V3RFmSEsb3Tp9S1IO4NJrY+Rdr/rAPOeey/GE1Y9i+3FKyes/GYOoajEkTtx3EeH5zdjheNp6nAbWXGwgxldnwx3x3G6y9sR+Oa7TkOapmRoCZhsvEF6Ypo309bUMuICnEPS1AD2nbsxuu2oCYihz7G8zu+Vdcm4+572LpGRETXpgIOa9KPpxM9b3q0/rQnCRtWIKmswsBOM0AlE2hoMApuSOtQYiuWaaDtcx2enKHF334uwvg58lO6SO5CZYvLRcaAGY91kebxOVSb66ZeXKQdg13qh0sotl63/o9TaKFLyxC6T9mCk02vWm5UrC8vwgRjiVJRZE5Qfeaqx0TaKngdNp+v9PYsrFdATka/Nk6Aw6FHse3mOzErK6HFgzX3W98htLiNKxMXThpl8sMVsxPmZ/uuLzE02ped6TUDXLzYmLuyaVg+ZQm23dGMffObjUBpttgF8bNs/PIyPL6C88Xfcxsmb5mBu40/n0fx7iFzUYJD/0Kb+lE9fwbcvrYiIiIqdAUa1sJ6DJc5JittOpAkC192VuC60pZu65DP/dTVGH1L8/jsSuab3TkHO8zbI4tgwAhrd6PEnlNDjZi0VL1u0v0yzX3ICltYm6CHNPW5n8ubLiaGPL/rFRSZU+zYIXzaJ2PAZIyabhVTYSa18CZd+lxK9svl67gpAyZUmCfUpQuxx94C57g0YLHx4OyZJQFNJvCe9xRerVmIxTKWrFT/crNpjI5vrHR05Hj2wJv0GLWq+di806yOmXi5D1YncyIiomtRgYY13c3vhNkFz1WS7nxWIEktfKUYuKyA1Gl/kL/9tLpOSpfLrqbkF7dxYOkdn52/cNl/VL7brkJxbPR/boqKUI6owPaMzMl2bAdebD+lglsUERVmrPC27w4V2vRDC86UVdgjAc1o8VLH1t6KF9VxNqqLBEqzGyQRERFRfirMsKZbnpzByKnkYbObYGJ3vgxb5VypcLLM/H53oNMWkDLaTwltfjr2ZHJ8KYRLNx1m0Iztb91jRvGTgf3vpfc82WB1XexOLKmftDElB+sVnB4Zx7VXBbftWCEtY8daVXBT76hgAzZno4Jh70VzzFG0NbEVLv6Slcm078Q2Xezj7dMqnB1Vx3b2S2Ps2knH+LUsGfXjy6KqybhZX80b/76k/oopMn3AGnMMn+clxeIoREREhaYgw5rV8uQIRnZ1azHJGPPVhisJXfB0IEm1gIbVzQ+1GF9nLEgQaHjaCCdSSKPHtj2/+znQafZBDMxbYLa6uQjUqVCmrzule3w2VitfutoP44p6jcz91cE1B0VFhqmA5FpPoAihBWahj75vhsNTbBzbjHHe5fmzuJ6nPOwqOWtKklazni/xTLsUxFCBbUIW6tv3fIVP5AUNLsJzuRwbF6/va+x3nUttGm7T11Ki3nQz9FVX2Tq+UZ0U23Ijpt+ir2bbd92Q8ktegTC88n6skJ7m8b47g89lxbtqsTpX+0ZERJTnCjSsmf+zl6zZhWDDIlvACKOkaUusVH7/TpeJmpN0j/RidvOT7W3BJBWSYqSEvsydJmOz1OlIfBER3/upKyyi8hFjLjX7WLCAtc01m1DmFh59HF+COQ2YaDtOc5tqP/TtRNa4teko0cE1+0VFnMofDGDuIlv4kVL6sbL+Qzh30F658SrOnZErRZj+eDFqZtsqN+ZiPRd9tqqR9n2uGMs52sqWYHNNA/YsbDa7OpY5W89mlVktU+o33OtVMSMd5/GGEf6kgqTbmDgpp78K+xbGz5WWodKF2Czb0jdlO1JGf58xb5telNQF/J+R2mfi1/bnUa/Pcsf+Z+f46hvMsv2i+qH7cxxUTuPIF/JzMlb81wLU27d1SwXqF2YjLHbj30ZauxXNz9aov36aev7Vz5rTALi7iN1/Mas9rvjdaqxbqdZ1vBZq/1Yuw9ady1CvlxAREV1rCnCeNWsOsU4VBqp0l79E2Z73q6Rpl24Fc+Myv1qW9tOLc643m4zmNdP77LGv7nO6mWTibTO0KglzxmWLFZCGVPgpQqkRlOKZZfYTqzfaw5WbbK/nNDxfW5wzgzjcmpuPYErzrE1ZgqaQHtPlxXV+MZ/zrCmxud289J3C26f2xp7TmmfNPn+a9RypLnMlc8tdhDEhuGNuNheezyNdHuMKqaR7fPHqn21G8136xmjMIWbNg6ZvOn2L7Ws+xgF9S1jzrKU1B1xsvrRE8jyt1avUMbsfq7U9T53fYt9/f8x51oiI6JpUgC1rVje/VkQ3bsDlExKGhg2ceB+XN7kX3hAjdk300N+innNnm+4SqXXJhNUtxvxpzqAmMttPHNmCrk0t6FfbsIut5xbUFL/HZ4rgJ7WvPWpf7Qa6ZL4376AmrKkLpEtnzouKdA/hm7cGcOIjCW16mSKTZJ/xDE4yL5qscxXdjiJ26jlUYDrx+2yv59Sr54AzGmgs6jjOndbXx8jJC2ZxkcbTUhHSWW1DJpKWsV4jTgSdppNntxvj4d6ORp3jjNT2pQBI41HvIJMu2Vbj6VPqWPQCoY9LxrB94PiFeDOep109j75tkOeJJia8TI/vQOtRtOmPYMeHf8t9CPnuMJ5/+e9qm5f0AlOHhKAdnzuCmm+HPsb6Hd+q59S3hUym/bI5l9zZDue27SLv7kaj2r99X+gxbBa1v20f/h3rX2BQIyKia1fhtayFGhHc8Ajgq+VoFBXKfmbL9Xa8REREREQ5VnAta4Hau40xWf5ajkZPoexnVoQWYZJM0p3ToiJERERERNeXwgtreoLq1CdtHhuFsp++hGzFR+qkRa0JJTJuL67AChERERER+VdgYS0Xc6TlQqHspx9hTHxyEypbdhmX4Bo9T9xOt3F7RERERETkV4GFtQzmEBtVhbKfmUul+AgREREREaWvAEv3ExERERERXfsKsHQ/ERERERHRtY9hjYiIiIiIKA8xrBEREREREeUhhjUiIiIiIqI8xLBGRERERESUhxjWiIiIiIiI8hDDGhERERERUR5iWCMiIiIiIspDnBSbriFFCP2qGNPLh3DunUG0f68Xjzqf+zF1HOY+Pg6l+mZM91WceOsqevVNyrVpeG7+U3iiNIq3j23HGz168UjKlmDfvIUI65sxfYfQePQfOKlvEhEREaWKLWvkKtCwBZUta1GibxNlTkLQSzi+MP7SjH3zV+G5KdP044iIiIhIsGWNXIQxceMmlOF9RDfuwYBemv8KvGUtQRFqfluM8mumZc1qsdI33eRFK5TPlrUEd2LbwgYsvlZa1hYuw56nbtU3RtB5FOtfOIyIXPe7XkZqsG7nfajVt1xlbVtERES5w5Y1chFCcaX60XWugIIaFY5TePHQK5hrXY7twIvtp8yT5tKF2DN/CWYZjyMiIiK6vrFljRLVrUXlmlr07/wlLh/RywoCW9bym9ViJWFtLz7QS2NsY74+Pf0KnrlgLh59BdqydssCrPuv+aitAjo+3Ivn372o7xgtFVj92iqsQLotVn7XS0a3rLH1jIiIClwBhzXdVa+rBV0tBxGoa0TZskdQIi1CykBXG3re3IL+dvN2PBmTFVwK9Gxai5/kMaFFmPRkg1pfnekItf5lt/VDYZQ8/DTK5lQhoBfJY3s+fg8/HXE7JchsP0VAhadJy2oR0OsAnejf34qe1oOeLV/pHZ+6b6PtvqTUek1qPeO6PrZK+zIXoUYENzyCwAnzNchcESbMHofbFxShtNxc0nfmKs7971XgFwHMmOEdkmS9mxaMQ7leDxgy1v2mdSgxDFkFPzzDklcocy6Pqts3PSzbLDLv7h5C9+GrOP3VSB89H2Ftqtr2L9S2ZqjXRi/qU9s795dBXMxSeF1+x0t4NSiB6wBuu+NRPBEMqqVRFbC2q4Clgk7CMmM1ZYSwpsy6uRl7Qmpdj4Aza8oSNIUWYnGsK2UUkehBrP/6y8QwZIU/z7DkFcqcy/er0NU0c5HaphyT0qeOq/3P6rjOm7c9+QhrZXfiOfVZvVe9flahkkjfKfzplHq9RgiN9c82o/kufQOXsO/l3dj9nb45Csztp79dv+slpYLr1t/NR/UXf0fjH07rhURERIWncLtBhhZgvAovA5iOiSooBNcMByARqKzFpA1bMDGkF8QJVEkw6cCACitGMY0NTc6wIs8VF6AkNAU3bMIke1ATaltlazYh2JBQBy7D/ZQQtUutYw9qogolS5sQ3Njo3A+btI4vNF09fypBTXF0jYyg/1in+lmNgMfrbAS6J1VQk5CXpaAmQWjOg8NBTZTOGIcZj0tA0gsSyHoBtZ49qAn1PDPU86lQFJqqF2VR6S/Uc6v9igU1oa6XP1iMBQ22ZVkwYZF6TnkNbEFNlKrtzXg8gLmLsrm9CvxaAo0RykQQi0NLVFCLW1azCsv1rVScjH6tu0NWYIaxxCIB6iXsqbEHNaFCTbABexY247kyvSiLfhZS4XGeClxWUBPq+uKap3D8jjv1guyQoHpcbUteP/tfknDpTLw67yXsuzl/C7CEV642gmLbjvQCl9/1iIiIrheFG9aqVcBQPwJzHkHZHKB/5wZEm36JLrlsakF/lzyoCmUPL5IrccJm+JHgIQFsaRUGTrQgukmv37QBl3e+52wpksdJaFJXjcda21KPje5vMx4SWPp0YujyvZ8qqLVIwJJWNPu+mev1yHqV6jnrzEc7pXl87Xtsx6P2SZZ1vW9bZrvEFRwZ6OxQ/1ZhfK1LUBV1j6FM7cvA/rjX06eKBiuQDaH7o0Ec/v2AcTnxziC6u50Bzm7ConGu6x1W653rluVFmK6CToVczRoVylRwkpa7M+/o7f1+EGeO6BY1FRJrZptXMzZbhcI6CWPq+I4M4oR1fOpy4qMh9Kl7SuvGZTGQqkBhtDzJuLMdeNvYwEIVNOKWYSbunyI/U9TzFT4x1qvAbbbwNevmR2EWJpHWuh228W6tejtBPDEvvWA4MhXKVHCKRA/hReOYzON6sT2q727AtnSOLZkpq8wWRTm+9lY0WsenLo2nzfF84dCjSQPpgdajaJPvTpSOD/82iuGnBisfmmwU7Hj3kF6UEr/rpeCmyahWPzrUn6f6Z1djz04Vuo3Lamx9dgHqbzEfRkRElO8KNqwFquS/YsUIFWtx+UhkOES0H8TlN983b1eaYclJF9DA3Zi0ptoMUC0HjVYoUwT9ji6NKjipoCZkHJfxWOOWUNtt3aICm5wlJYYWv/tZ0qSCmrRGbVLrSHdHeyufWu8nvV6gyi0kpXt8NtLKJj9TLS5y5DMjhAWq3JrW9Oumjv1yq8f20jFVBS6jucXsXmjvRtj7/RBOv2UFrzhqvdt1kIlfD2q99th6KrBltfUJ6FPB6XjrVVsXxCFcPKjClA5s5TXZ2F4RQgvM55Egevqgs0tn71dqH1RgM8LjzOwdX6T9z7rr4Hnsv2gGGPuyf2U0yC6In03QV8uWYLMOMtIt0dH9sOdLvHF0OBj+OsutT5H2HVjx9T9sXRDP44Oz29GoA9viYDZa16bhudBM45rRbfSss0vnyQt7sUIFNnlN7g0mOb7vDuP1F9S+rdk+quPV6p+VqouXsO+/0xsb5ne9dFQ/dB+a71KBMEaFuLvmo/l3zVi3UC8iIiLKYwUc1qTbXid63vQoLd+eJGxYgaSyCgM7zQCVTKChwZhvbGD/Bs+CGwNtn+vw5Awt/vZzEcbPkZ/SRXIXKltcLjIGzHisizSPz0G3BPYfTbXLYjsGjVY+Z9gU1uvW/3GWyv9X6O59Z66mV7RjxPVUYDtshqfS24tgZYTMDaH7lC0Y2vSq5Ua+KM/C9qaqECatht1X8e+vzEUJvroKyaPZPL7v+hLHbNmXnenVLVCZmlBhdguMHvQo9nEeb7RLmAHCFbOzWEkyik+i7uPSYt01J0zJfHtls3GvvEH7DqHFq6jKhZP4VP3I7vFlQw3qZJxc57f4Z1oteX7XS9Ghz7Hvi2+xb8derFfhVQKscXn577HWx9qnlqHevEpERJS3CjSs6W5+ekxW2nQgSRa+7KzAdaUt3e9/fe5n3T2ZTUad5vHZlcyXFsRODErvxpREMGCEtbtRYs+poUZMWqpetxMtae+Dlwl62FBfmhkgpfUuZjE8pSMb27PCaPk4zPltAAtcL8Xw6CGap6L4P90yN6vU7Jwa6U1SHrL3ohmeEsa65Vg2tmeFUZm2IGHCcOvSgMXGg/NLeGWtMZdZx9EzabWO+V0vdRex+w8fY/ch/b6wfHcar7+wF/uMwHYr6ti6RkREea5Aw5ru5nfC7ILnKkl3PiuQpBa+UgxcVkDqtD/I335aXSely2XCmLG4S9Sle2F6x2fnL1z2H5Uxe1Uo1j0+5XmyW1SErhtWK5M62f7XCNUPaaxV4OfzpYvhJXz+WTrdLv2uly0X8c+jl4xrVdXZHaVKRESUbYUZ1nTLkzMYOZU8bHYTTOzOl2GrnCsVTpZJQJJ9sgWkjPZTQptH0Y6kMjm+FMKlmw4zaMb2N8tFReLZC/OlI+l6VutUt0sJ/1zI5vasVsEztsIpXpc8n69tVvAO9Q5WoicTSvuHJySp5mG1TvVdxBljQY5lc3tWq2C0NVZUxPMyGvO1pawcNxlFZH/AubS6Mvpdj4iI6PpTkGHNanlyBCM7mZfMGPPVhisJXfB0IEm1gIY6jTK6+aEW410rL6r9aXjaCCdSSKPHtj2/+2lWWFTrz1tgtrq5CNSpUKavO6V7fDZWK1+62g/jinqNzP3VwTVbRUVsYuO8Zoxzr9o4VQUyl75+9vXcqyEOF+jo+8YWnr5P3jVyuMKkFxXIXHfUY3teRuoqqfazWwakeR5fgYgVEgE+jX5p/BSx8WHBRR7VEIcLdEQufjUcZnouwMgCHl0VhytMerEVOXHw2J6XkbpKWhUwPY8vRTIp9mtm1cOtK0ehxeiWchiZq/MSzhoLUuR7vVSPrwKrV9aYYdqVrkKpdHaMRcseERFR6go0rBn/1aNkzS4EGxbZAkYYJU1bUBmr3OgyUXOS7pFezG5+sr0tmKRCUkxokTl3mozNciki4ns/dYVFKc0vc6nZx4IFrG2u2eRett/H8SWY04CJtuM0t6n2Q99OZI1bm44SHVyzVlTEzgolKuzM+FUxKmzBZMLsYsyV+cz0bYfvr+Kc0fxhluevmW2riCiTSBsTWMuNIZw76CwI0mdtr8EWmGSdBqtUfnLlD5rzmznWTbK9eNb2pUql/Tnsxz5cIEUfnzzWcb96/CL1+vw221MTZEnZNCy/eZU5gbXcjrbaJtJWev6BPxnjDaU8fzO2TbFVRJRJpI0JrOXGKfzprL0gyAX8n5G2Z+LVO+4cLsyhtvfcHeqkXwfDZBbXyPxm9nWTbS/e8PZ/Hfccyx2hzCqQoo9PHuu4X78+C5NPTVDfMB+15p8cVD90P1bnujy9Lo+P893OcWEj8bleqscXXnk/Vjx0Hza/tgyrF+oWUC28UAKfVKFUcjFlABERUZYVzZk7L/nZYt4JY+JGFVRUOBpAle7yl0iKa7iN55LWLAlJnvd7KGnapVvB3KigtmktfnJ0O8zOfnqRedNkPFhCIPJ5fCa9zx77KmPovIqFyMTbZmhV1L515Wqs2tRxKpSNM7sQxuuWMCdzm5kl+p2VH+0hyY3bOooKgQsedA9lUpb/XLAYMxK2Z21rSIWtIo+53zy2F0cmunYNhdLlsdX50fV8rEW9Puf+MvI2R7L8jpfwqso5n55+JRaqZEJnCT/Jl8nE1lbQcSdzmq3/2q2r30jrmmX9E6pFTlmF4zVmK1g8Kcv/pwlPqWOJX9faVhSRPplPTi928NheHOs1SCBdHr8ebj0Uno+19J3C26f2em6z/tlmY4Jp0yXsezm3E03LhNabH5qMjg/3pjVVgN/10jk+axueOr/F9hc+xgF9k4iIKF8VYMua1c2vFdGNG3D5hIShYQMn3sflTe6FN8SIXRM99Leo59zZprtEal16wuqm+KAmMttPHNmiJ83Wdaa12HpuQU3xe3ymCH5S+9qj9tVuoEvme/MOasKaukC6dOa0qMj3V3FchZxzZ+xBRU8E/dYg/h31+u5B5lOTCaKv6tY5iwpUKvic+L1HiPlK3SeTStvXUaFHJrk+LvOZeW5PUY/7xtimc31zkuzUQlOvnpPNaKCxSOg6ra/byGONSb7VaxP/eOv1yTSo5YaEolN48Zg5p5l7t8LzeOOoTBB9CJ86Dk6tq4JP4yGP4HRhrzmptH0dY1uvYMXZ88mnF+j7GuuNbTrXNyfJHjmoiZPGnGzmpNYxErqiiZUt5bHGJN9RdUx6maFPT5R91DuoibGbFHt0pHN8kXd3G2X6931xCY7Ctp2X0Cbl/BnUiIioQBRey1qoEcENjwC+Wo5GUaHsZ7Zcb8dLRERERJRjBdeyFqi92xiT5a/laPQUyn5mRWgRJskk3TkoKkJEREREdL0qvLCmJ6hOfdLmsVEo++lLyFZ8pE5a1JpQIuP24gqsEBERERGRfwUW1nIxR1ouFMp++hHGxCc3obJll3EJrtHzxO10G7dHRERERER+FVhYy2AOsVFVKPuZuVSKjxARERERUfoKsHQ/ERERERHRta8AS/cTERERERFd+xjWiIiIiIiI8hDDGhERERERUR5iWCMiIiIiIspDDGtERERERER5iGGNiIiIiIgoDzGsERERERER5SGGNSIiIiIiojzESbGJsm3qOMx9fBxK9c2Y7qs48dZV9OqblKKyJdg3byHC+mZM3yE0Hv0HTuqbRERERNcahjVyFWjYguDSDlxu2oJ+vYxSVEBhbfkdL+HVoL4RJ9IXxXftf0bLhfNjG4gY1oiIiOg6xbBGLsKYuHETyvA+ohv3YEAvJb+KUPPbYpQXWFiLybtQdCe2LWzA4rwNaxWof/Z+NNw1GdV6CTovoe0vf8Prhy7qBW78rpeZ8MIFWPnwraitmqyXXELHF23Y9ofTiOglhoXLsOepW/WNEXQexfoXDjvXJyIiorRxzBq5CKG4Uv3oOsegdp349PQrmHvIftmBxtOHzJPt0oXYfPM043E0gltqsO61VWi2By6hglDtU6uw59kavSCO3/UyUoHVrzVj81PzbUFNqH246z5sfm0Z6m/Ri4iIiGhMsGWNEtWtReWaWvTv/CUuH9HLKAP537ImYe2ZC3qh3ZRVOF4zE4i2Yu7XX+qFY81ny9otC7DuvySYAB0f7sXz72a5tUo9/9bfzVdh6xLaPmzDu+8Ot0yFFy7DM0/dagSxth3b8fohc7nB73oZqn+2WYVDdaXzW+z7y+fYHWu9q0D9yvvR/NAP2L7mYxzQS0cm4W8VVoCtakRERNlSwGFNd9XrakFXy0EE6hpRtuwRlEiLkDLQ1YaeN7egv928Hc8ckwX0bFqLn+QxoUWY9GSDWl+dyQm1/mW39UNhlDz8NMrmVCGgF8ljez5+Dz8dcTs9yWw/RUCFp0nLahHQ66izK/Tvb0VP60HPlq/0jk/dt9F2X1Jqvdg4Nn1slfZlLkKNCG54BIET5muQqQmLijGnDjj3ziDav1cLphYh9ItxKJ9RFBsn1ndmEN+0DiUGI7fHdg/h3F8GcVGey4vHet2Hr6L9q5E+QrkNa2bgOoUXDx3AbXc8iieC0q8xqgLYdhXApuG5hGXGaoYRw5o1XswrGJXdiefUe+te9fzWmLJI3yn86dRefNCjF7jxWO+T9gN448J5vcSLv7AWCyeGS9j38m7s/k7fzJLwymX4+Wcfuz+v1Y3wi7+j8Q+n9UKT3/V8i3Vp/DbNQObNfH1z87oSERFdrwq3G2RoAcar8DKA6ZiogkJwzXAAEoHKWkzasAUTQ3pBnECVBJMODKiwIsGmckOTM6zIc8UFKAlNwQ2bMMke1ITaVtmaTQg2JJRAyHA/JUTtUuvYg5qoQsnSJgQ3Njr3wyat4wtNV8+fSlBTHF0jI+g/1ql+ViPg8Tobge5JFdQk5GUhqMWT4Lbg8WJMt4UoIdfjQ5HnY8uLMOPxAOYuKtJL7FRIa/Beb/qDxaiZrReMqQr8ev5TOpSJIBaHlqigFresZhWW61upmBW8wwxTvRcSQtGsm5txfF6D8fz2d364dCZenfcS9rl2nZTw6L3eEzVPYdsUvaAARd71CFzi35fUJ9Kd3/X8qv8Pc+xZ247sBLXwytVGEG7bwaBGRESUTYUb1qpVwFA/AnMeQdkcoH/nBkSbfokuuWxqQX+XPKgKZQ8vkitxwmb4keAhAWxpFQZOtCC6Sa/ftAGXd77nbCmSx0loUleNx1rbUo+N7m8zHhJY+nRi6PK9nyqotUjAklY0+76Z6/XIepXqOevMRzuleXzte2zHo/ZJlnW9b1tmu8QVHBnolNPIKoyvdQmqou4xlKl9Gdgf93pmTAWnX0gLmwpY3UM4884gDv9+QF8GceJ/41q7ZuvHYgjdR9T9sccO4MRHQ+hT95TWjUNoqvHoYbPHGSFNWtHit3HmiLmNchXYKoxrY0kFn9Io3j5mjjd72zighSoQxS3DTNyfUhiahuU3r8LmkBn0Po3GdYGcsgp7jPui+LS9FY228W6Np08ZXeDCoUfxXJnx6GFT6o2QJq1oLx7bEVtH9u/F9qjxkHQDZaoOtB5Fm3y3oHR8+LfRDxU3mePROjq6zdup8ruepxrUGS2M3+KIdKu8pQarn12NPTubzctrq7FuZY0jSCdXg5UPTTaKirybxW6aREREVMBhLVClh+EboWItLh+JDIeI9oO4/Ob75u1KMyw56QIauBuT1lSbAarloNEKZYqg39GlUQUnFdSEjOMyHmvcEmq7rVtUYJOzwMTQ4nc/S5pUUJPWqE1qHenuaG/lU+v9pNcLVLmdUqV7fDbSyiY/Uy0ucuQzI4QFqtya1vTrpo79cmv2R7BIl8Q+FbwOvyVdGO3hbAi9ji6NRQgtMFvNuj8axOmDzu6RvV8N4rgKbPK48plxrWvqvhPvDOC4yzYuHlSB7Yx5qzQ+5I2BSPuf8YbR9fA89l80g4992b+S9L9cXPMSji+0X57Cq6GZxgl7JNoa10VyGp5T9wmjW+XZLx2tbicv7MUKFdgkQN4bjGtdU/c1qvC44qh0k7R3dzyPD85ux4vGblfgtviQlw3fHcbrL2xH45rt2R+vNqIKrH7Y7HbYmta2/a6Xgs5LOGuMl7sPK+6yFRiRoiYP3YfNKRY1qX/2PtRKt9L/5jg1IiKibCvgsCbd9jrR86ZHafn2JGHDCiSVVRjYaQaoZAINDSo4SevQBs+CGwNtn+vw5Awt/vZzEcbPkZ/SRXIXKltcLjIGzHisizSPz0G3BPYfTbXLYjsGjVY+Z9gU1uvW/3GOyv+fUSFLBa8RTVUhrFz97L6Kf39lLkrw1VVIu0Xp7UWYYC6JiQU/9TwVs8ehpqEYc39VjAW/DWDGDLmjCKVj37SG7/oSx3rZl53pNQNcqiJ9h4zWrxXxhUXKZuNe6Q+q7m9xG+cmLpzEp+pHuGI2ZplLYk5aY9nKpmH5lCXYdkcz9s1vNkKiOY1AED+L/yUUuPpnV2GF+lOQbrdDv+sldUs5zE7Pt+IZKWzS+S22v2yGWLms3/Gt2e3yrvuwbqHxwCR0K516jn+y+yMREVHWFWhY09389JistOlAkix82VmB60pbut8b+9zPunuMkONbmsdnVzJfWhA7MZjyIJkIBoywdjdK7Dk11IhJS9XrdqIl7X1IVV+q2aNCjzUrH4c5KmBJyEq8FEPynJsJEtB+pR7zeDFmPKiLjJS7jW8rXPbS/Y26O2K490Jc65c2ocLsIle6EHscrXH2SwMWGw9ONEsC2nz1mHlP4dWahVgsY9dKrXF11x5rPFfHF39Pq5qj3/VSVjUZ1eq517+ggqAtaEUOfYznVWATtf+RvHUtvLIW8hej4+gZtqoRERHlQIGGNd3N74TZBc9Vku58ViBJLXylGLisgNRpf5C//bS6TkqXy4QxY3GXqEv3wvSOz85fuOw/KmP2qlCse3zK8+SyqMiokrFuEtCMljlzvJuMXTuhx69Z3SCvJSfPHjRaxRBclDjmLFMy1k0CmtEyd8oY7yatd416/JrZDfLaIYFrs4znUqHo+TQqOfpdLyXfdau/DuJbbI+f+NpiFTWZVm4Gc1cV+Pl86T55CZ9/NtrdSomIiK4PhRnWdMuTMxg5lTxsdhNM7M6XYaucKxVOlklAkn2ynfpktJ8S2rxPk7xlcnwphEs3HWbQjO1vzoqK+HTRLCAi3SaHC4R4XByl9YtQ86BZlOTcR+bYOBnvJmPXeh3j1641X6LFaF0L4omZSxK6MaL3onmCL3OvxQqEeFwcpfXvxDaZsw1RvH1ahbOje43xbtJ6d9KtBa+gVaD+WTNwSctY6iX3/a6Xjm78WxdayUw5bjL6U/6Ac+wCSURElBMFGdaslidHMLKTecmMMV9tuJLQBU8HklQLaFjd/FCL8a6VF9X+NDxthBMppNFj257f/TQrLKr15y0wW91cBOpUKNPXndI9PhurlS9d7YdxRb1G5v7q4JqjoiK+qGDVLQPSZrhUe0xF9xCirnOpOUv5j6g8cTxcvjp59s+xipJN8dUje77CJ3Kf35a3vq+x33UutWm4TV9LSWkFjCGDqZJJsV8zKx5uXZnLQYbm5NDNd6nAJZNvpxHU/K2npXx8F/HPo5fUz1tR5zEmLXyPORF30u6N1tg3KVRiLCAiIqJsK9CwZg6PL1mzC8GGRbaAEUZJ0xZUxio3ukzUnKR7pBezm59sbwsmqZAUE1pkzp0mY7OQWETE937qCotSml/mUrOPBQtY21yzyb1sv4/jSzCnARNtx2luU+2Hvp3IGrc2HSU6uOasqIgvQypPmtUepz9ejJpFKjQ5QlsRKhYVY+5vPUrwl4/D7bKOvimPnzDbLDIyPcW00GdUXVfbtz+PFCzJgyqS7s7jjXap6AhjvjZn65p1XxBPzGvGtpvvxCxHaDPL/u9b6FGCXwXAzbKOvimPnzVFPd6YJ04vSuoC/k9PQ/Br+/OU3YnlScJjfcN81JofSVQ/dD9W32Jez6pbalRgkqIgl9C2QwWuVCs4+l3PJp3ji7zbBvmrVvtUfJn+CtRbXTBH6t6opxTA+W7vQEdEREQZKZozd16B9ecKY+JGFVRUOBpAle7yl0iKa7iN55LWLAlJnvd7KGnapVvB3KigtmktfnJ0O8zOfnqRedNkPFhCIPJ5fCa9zx77KmPovIqFyMTbZmhV1L515XCsmkxuLXOmSdn+lKpBatZ6nrqHcO4vg2i3lf1Puo7MvfYNMEPd3/3RAE57VZpUPJ9Huma2ZvYRXH6HWUVRioRYJfZlwmqZB22kZW7rDpuG5yRAlaqT+/YdWHHW2RpmPZ+nvlN4+9RePXWAKek6MveaygYyZYD7/gzzfB7pmhlfvVKrf7bZKNhhuoR9L2d5AmejDP58M8CMwGg5swKZ3/XipH18C5dh61NmC1oiCY27kxY2scbVJdsnIiIiykwBtqxZ3fxaEd24AZdPSBgaNnDifVze5F54Q4zYNdFDf4t6zp1tukuk1qUnrG6KD2ois/3EkS160mzn4JLYem5BTfF7fKYIflL72qP21W6gS+Z78w5qwpq6QLp05mtRkd6DKhi9M4hzZ/QYNosuHHLiLWdQE7KOMWm2fT5iCXV6DJuezmxExvMcSdzuuVwMScqa4da1cKg+oZXs5NntmHusFW9Ho86WlT49UfZRZ1ATso4xabb9hZBQp8ewfeB4gbwZz6P2zbld9TxR74SX80mxrZamdPldL07axydVH1/+O/Z9oYuJaB1GKf/kQY2IiIhGR+G1rIUaEdzwCOCr5WgUFcp+Zsv1drxERERERDlWcC1rgdq7jTFZ/lqORk+h7GdWhBZhkkzSnU9FRYiIiIiIClzhhTU9QXXqkzaPjULZT19CtuIjddKi1oQSGbcXV2CFiIiIiIj8K7Cwlos50nKhUPbTjzAmPrkJlS27jEtwjZ4nbqfbuD0iIiIiIvKrwMJaBnOIjapC2c/MpVJ8hIiIiIiI0leApfuJiIiIiIiufQVYup+IiIiIiOjax7BGRERERESUhxjWiIiIiIiI8hDDGhERERERUR5iWCMiIiIiIspDDGtERERERER5iGGNiIiIiIgoDzGsERERERER5SFOik3kZeo4zH18HEr1zZjuqzjx1lX06pvXnbIl2DdvIcL6ZkzfITQe/QdO6puFK4DVqyZjxY2D2PdeN3ZH9WLKkfFY95sbUPtDL9bv7UFELx2Z3/UKXLAMWx+bgGp9M+Z6ex0oA9bfOKDj2I94/rMrenk6+HeSaLSwZY1cBRq2oLJlLUr0bcpjEp4WvoTj85dgll4Ub9bNzTiuHrPv5ml6yfVCTiimYM9v1GVV2XDAvP0Gc5m6rLtdL8sqvV37NlPid70Cdvt41KofHZEr6QUNv+sRebpOPn/B8bhbBTVRPW886s2reWCs/l4T5TeGNXIRRsm8KqDrHAb0kuvS91dx/PcDOBy7DKJb33Vd6/kHVhx6BXNjl1Z8qu/Kaz8MuJzUD+Lf/KWOqfpbx6t/B/H5v9L7a+N3vYIX7cHzf7yAxtjlR7Tpu4hSEr2Cz38wr3Ycu4ID5tX8wr/XRDEMa+QihOJK9eN6D2tElGPjUSdfn0d60uxG5Xc9IoL6n333XjPs++sCSUSjiWGNEtXdY3R/7D960LxNlAu3LMC615qxZ2cztq6s0AuzbQDn9DfIDt2D6NBXc6MYN+luRunxu94YCJZhne6ytPWegF6YnvA9ZUZXxrZv0zth9LseUXIF9Pm7Jo3V32ui/FbABUbCmLhxE8q6WtDVchCBukaULXsEJdIipAx0taHnzS3obzdvx5MxWcGlQM+mtfhJHhNahElPNqj1q8wHqPUvu60fCqPk4adRNqcKsdMT2dbH7+GnI24jJzLbTxGoW4tJy2oR0OsAnejf34qe1oOeLV/pHZ+6b6PtvqTUek1qPeO6PrZK+zIXoUYENzyCwAnzNfDNKvjhWeCjCKFfFWN6+RDOvTOI9u/1Ym3ComLMqcPwfVPV438xDuUzimJFRPrODOKb1iGP4iFFqPltMcpzVGBk+R0v4dXgKbx46ABuu+NRPBEMqqVRfHp6O565MA3PJSwzVhsu+JGkwIeMWdsTCiLSvgMrzp7XS03mfcDbx7bjjR61oOxOPKfeL/eqbVljBiLRVqz/+kuP4iF3YtvCBixOs8BI/bPNaL5L38Al7Ht5N3Z/p29mUf0DU9CsDqTj2CU8/5n+xMSKNFzB9j/+GNcNSMZN2AfOB9Rz3ICGcHGsqENHpBfb/hpXzOH2G7D1rvGoTuVkL/IjGv+qg4bf9az9VO9EKSwh41BW/qcKMTcWm3f/MIi2L37E6994/pVA/T0T1HHZt61OiiI92NZ2Rf3O9SIP1utq8lNkwHqd3X4HyXivZ+1T2ycX1HHrhSIYMN7LkajztTAfP4j/r6MY/6F+uaO1XnYLMvgotKLeK6try3C3/T39wxW0/o96PZPtl8d6n3/Ri90e77PwPeXYPA/Dx+z2HOp9vU29r819d76vI/I+TeXzF6Ne+9sn4BnbZ0oe39rWg7O3xe2L8P35y1xYbdu+n25if7esv1mev+f4v1t6cWy5vhnH8XfRlffridoR3s8+3mfWZzj1v9dE177CbVkLLcB4FV4GMB0TVVAIrhkOQCJQWYtJG7ZgojoJdROokmDSgQEVVoxiGhuanGFFnisuQEloCm7YhEn2oCbUtsrWbEKwQf57jpPRfkqI2qXWsQc1UYWSpU0Ibmx07odNWscXmq6eP5Wgpji6RkbQf6xT/axGwON1NgLdkyqoScjLJKhlmQS3BY+rYGcLakKuj22Vxwr8ev5TOpSJIBaHlqigFresZhWW61vZZBQimddgbMv+bpbrhVrl8awKLaLzku2ERJ1EyztXAs1ZY4GHcnUirE50mm0nG6I6PAGbXYoQpHTC58LvegYVzlY+oE5CH1Mn7FZQE+p67b2TsecBGdsVTx/XvPgTRXWc4RvUc5Vjnc/WspSpEzmjyEEkzTEzSdazftdVk+37rk5W/3OyOqbJcS2AAUyX51Enj4e+H931/ulxojoaJDztUe+VFfHv6RvHo/kxr1ZSdUzqPea13gr1Pkul8IPnttUlIXyo9+/N6nedzufP2E/1+M33Ot/X8vhm9Z5+xuW/aJHR58+nevnMxu1n/kn+ejYk2Xd/77MM/14TXaMKN6xVq4ChfgTmPIKyOUD/zg2INv0SXXLZ1IL+LnlQFcoeXiRX4oTN8CPBQwLY0ioMnGhBdJNev2kDLu98z9lSJI+T0KSuGo+1tqUeG91vDu8OLH06MXT53k8V1FokYEkrmn3fzPV6ZL1K9Zx15qOd0jy+9j2241H7JMu63rcts1027nG05g10SueEKoyv9fhfsO4xlKl9Gdgf93qOGRXOfiEtbEVA9xDOvDPoKCBy4n/HuqFZhaTSKN4+JoU7duDtPrWodKEKT3HLMBP3T5Gf2RLEz0KrjNY39J3Ci8d22AqI7EBj+5f6cdlzoPUo2oz/gYGOD/+Wk1Y1EbH/px8ziH+7dbdxKFYnoRKABrHvk0uxgg7rP9HfrN84ASvtJ6jf/Bh7TKzog3wLHltmu9i/nfe7Xsx41KoTIvm2e/t71mMvYfsx86QHKnzFn0gb3QjlREsFh+F1zPXk+Dp+KFaf6uQOtPWiLVak4Me0W4rCt6kTQGmRa0uvpSLZetbvutoeWq1wp7gu/2EA/xzl9VJq/cqF21UQnyf7NIg29Tuzv8eM37u6p3reDVhtfS9kuX2CcdItrSLb3xv+LNjfZ7Xqs+JdVbAYN9Xqbbs8x3rX94Cc1Kfx+VPqH7BakNTx2dd5T96rKjTYfx+WjD9/PqjfgwRQo0XacWy9urufeo30suStXqkYHp9mv6y3/j4k4f16qtfJeD2NhyXy+z5T/P+9Jrp2FWxYC1Tp72qMULEWl49EhkNE+0FcfvN983alGZacdAEN3I1Ja6rNANVy0GiFMkXQ7+jSqIKTCmqif+cvzccat4TabusWFdjkrDMxtPjdz5ImFdSkNWqTWke6O9pb+dR6P+n1AlVuISnd47ORVjb5mWpxkSOfGSEsUOXWtKZfN3Xsl1vH7PQkgXR77DuiQtpbg7j4vT2cDaE3ruvkWIi0/9nsjojz2H/RPAO2L/tXjpr+FgdnGt0k5x7diw967F0lz+Okse0s++4wXn9hOxrXbMfz717UC3PFo4rYSCfOcmL5x25HF6+IOrnbrldytqiMHaPL0F97bF2LBnDgs+7YCVmtUTkxkQQ8Z3ck9Xqo43tendyNeJIY7cHrsSIFKf21sBmPlfrEPb1WphHW++aKebJ9o9kN0VAu3+yr5fI7S1iuXgP5Jn+01xsTAay+y3wftH3Sjdc/c055YPzejSBUjLtvi3tfq/vWq1D//F7pvmb/XZvvM/PzEMB0l5NvS214vPE+bXR5Ds8ut+l8/oJlMDu3qAD0njo++zrGe1UChl4wxsJ6v+X34Dy2Hv07GI+6sS5Rn/T1vKJez0vY5/p6ZvA+i/H595roGlXAYU2+9+1Ez5vOlp6Y9iRhwwoklVUY2GkGqGQCDQ1GwY2B/RvUY81l8QbaPje2Fx9a/O3nIoyfIz+li+QuVLa4XGQMmPFYF2ken4NuCUy9uEg7Bo1WPmfYFNbr1v+xx7GPlTODOH4wf4dqftfnHFMm7MvO9KZ1dpu6aGvCeLZrgjo5aJQTvrhQYnzbnPSbcnWSImMr9C07q6tOfvAuXx/5l/kttiM0KNZy+XZ73T3jEU5ykp0TOZtbTX8Df2MxbjYXmCX+1e/riPzObhyPn+tjtU6Yze5Wo73eGIi17PXiXfv4OjsdPqtVsLK/X0QsUAUDqL+9DOseKMfWVeVGgRlz7GIxbio3HuEuIpMvp3PsaX7+dBj2rhCqflf6WiEY8y+CRnw9PWT4PvP/95ro2lWgYU1381OnG44Wp1TpQJIsfNlZgeuK8VVpOnzup67G6Fuax2dXMl9OhToxaPbFSEEEA0ZYuxsl9pwaasSkpep1O9GS9j7kWl86//FcRyK9VsUSuubYwoRB5urSXcNqVWDb/Jg1Ea2MVct9eMvd3GpWNTmrZcIaJzaAA0ZIGg4UNxtd4q7giHFCOdrrjQHr5PvGCdisJxhOvNxghGE3YQloUv3zsclovneC0fXWtVuhh1y3KFpheOxaLlNndfUzuo7aP2sq6Ky7V97jYxjqNd+vZ4bvMyJKVKBhTXfzO2F2wXOVpDufFUhSC18pBi4rIHXaH+RvP62uk9LlMmHMWNwl6tK9ML3js/MXLvuPyndkVSg2d1vJz6Ii17zSCszQV4lGZHVjfE/GHV1RwW0QHerk2wpvWx9w+dY7K/zOkZbaes4iIyosqfBknHDq8t/mcv1carlVsGC01ysoMgZJApoRRNV75diPxriz9XrsmdUtkVIU68ppFtuIhRgZoyeLIz96t0oR0XWnMMOabnlyBiOnkofNboKJ3fkybJVzpcLJMvN7ooFO2/9aGe2nhDb53z1dmRxfCuHSTYcZNGP7m3dFRa5xPRdg1uaowG1lxpUEMyaYX9+6dbGkHFLhx9GilSq/68WzvuVOFhKiMu7oRxXcuvG8FAEwigdIF6Ub8IxHxbZM5HputVgXT2n10d0mjVaK6BV8bhyXtBwGzAIqtjEwo73eqLPmqpLy87rYg+fFURreau3RxTD2qvfKZ1eMcWfxUxPkg3Ra+zxl6/OXlBnyjd9JjC7I8dc0uwfnUNqvp+/3GRF5KciwZrU8OYKRncxLZoz5asOVhC54OpCkWkBD/Skxuvmp/4LHu1ZeVPvT8LQRTqSQRo9te37306ywqNaft8BsdXMRqFOhTF93Svf4bKxWvnS1H8YV9RqZ+6uDay6Kinw/BKMQYnkRJhgLnCYsGofpycZMZIvH9sfOBfyf8cIEcW9wmrHE6U7cb2S1KP4vl/MSpNuyNyqTYo+15EUXvKW3nvtYoeGB/vFjvMIqVHh+FSTFA74wA1HSE7Wgn0mxA/i5UQUv3e6AaaynAoRRZPTGAOqNVq24LotyIq5DrKOL12ivF8/X62kj29FXXenwiHCZaxW+EUlRF1uRiWHqvaqvjaXY+EwVjl2rUgbNVs/U+PjcpvP7M6pBynxvF8wvSGKXxIIcMbH3mfvvOXzPDZ5zqfnh+/XM9H1GRAkKNKwZ31GiZM0uBBsWqT+rljBKmragMla50WWi5iTdI72Y3fxke1swyejLooUWmXOnydgs9Wc0voiI7/3UFRalNL/MpWYfCxawtrlmk3vZfh/Hl2BOAybajtPcptoPfTuRNW5tOkp0cM1VUZE+o0JUEWY02AKTTG7doMvx55i1/emLnNuvmKqvj4nzeKP9lHEtHHoK26bYAlvZndg2vwGL5Xrf19ifi6qOsbA4E7+++U7MMpYpatvLPVr6RH3DfNSaHxFUP3Q/Vt9iXr82qBN244yrGCv+syxuXIoUaPA6mfOznsynpsea6SUy9mV4ItwraLUXdlAnlc/cewM2/6bc7OqontcubBs3kyxc1NfqbnGKVxnuBFbxgSzOrZZouOhHnbrYWxUPGK1yAdTdKrfix76N9npOvl5Pg94+xqMh7j3geP+ov8i7jRCu3lvGPHryuzfvMan3lzrh3/objxL8N07AM/bnV4+XSZ23yvvM9t/imLFCgnQtXOUcC2bsp9XFMCm/n9v0fn/meDAVdjyrIboZ/j0327soq/2SOfDMUvlZ5Pv1zPB9RkQJiubMnZe/ZfFchTFxowoqKhwNoEp3+UskxTXcxnNJa5aEJM/7PZQ07dKtYG5UUNu0Fj85uh1mZz+9yLxpMh4s4b9+n8dn0vvssa8yhs6rWIhMvG2GVkXtW1euxqrNLsaCB91DmZTjPxcsxowZQzj3ziDa48rwy0TYEujkcX6rQVrPkeDMIA63ZvZRWn7HS3hV/af26elX8Iyu9SGTVMvcZyMtE9b67mSetu26/L+T9XxStt9vNUjrORJEWzH3a/c52uqfbUbzXfoGLmHfy7tzNtdaesyJYFfI/E7vxVclM8mEr3JyZJTM96pwp0LR1scmmN0QE1zB9j+6V7pLfT1rPyVUSSuYsTCO+zFIsYiVdw2fXLqSuaaSdFOqf8CqAii8Xys783WTFoWRH2uX7nqOfZPuWFYVOcdrm/g7GO317Py8nhbr/ZjAvi+a52MtP1wxqjDat510HSmvr94kMsF62ycX8Hpcy6e1btLPikMGn79knx0Za/fDeNSGR3htU/78OaX1+0u6DZPMaff5F72O0v7SIrdHf5EST16L1htlAvF0PosZ/A0b4fX08z4jIncF2LJmdfNrRXTjBlw+IWFo2MCJ93F5k3vhDTFi10QP/S3qOXe26S6RWpeesLopPqiJzPYTR7boSbONjg8xsfXcgpri9/hMEfyk9rVH7avdQJfM9+Yd1IQ1dYF06cxpUZGvBnHioyHdwqUZk1sPGAGsN5rb7x56D6rtH9HdMS1q++dO6+tj6IOvX0Hj6VOIOHYuiogKTI0eQS1bTp7djsZ2tW1929B3Cm9HvStMjtak2GPGqLgo47+crVNyErbvk17Pk/b01xvE5/+jJ5s1vgk3mZNku5+0yXxOUlxEJuF1386lpEFNpD8pdo7mVnNhtmiZHGPcrK5kwtYCZhnt9ewymWQ8Ysypp7utWeT3+G1iy6g8VsYl7ovosUUWtX/GeKm9ids2nj/u/WU8vx7DduCSXjbW9GdHjm2YdVy9+HeyLycsPj+3af3+olfQ6tjHRNU3jseKeyc7J7T/Rh2Hy+9BJraXwJX1KUWSvp4/4t0k2/PzPiMid4XXshZqRHDDI4CvlqNRVCj7mS3X2/ESjbmRWyDyim4VSL2FRfO7HpFDvnxe9H4gWct1APUPSCuZBD++74mudwXXshaovVv9GfPbcjR6CmU/syK0CJNkku5cFBUhomtC7uZWIyogevxl8gnhc9BKRkQFq/DCmp6gOvVJm8dGoeynL6FYx3wE6qRFrQkl6ljjC6wQEZlyO7caUaGRIiTrbpf6yU5S4Ge4YEhccSAiui4VWFjLxRxpuVAo++lHGBOf3ITKll3GJbhGzxO3023cHhGRFBvI7dxqRAUj2gOzA4pUcZ2MzdaE2Pqy+bEbsEKmqZAxcu95F6QhoutHgYW1DOYQG1WFsp+ZS6X4CBFd34xiA39MrBQ4Er/rEeWzA38dLu4T3/lmuMAPC3AQkakAS/cTERERERFd+wqwdD8REREREdG1j2GNiIiIiIgoDzGsERERERER5SGGNSIiIiIiojzEsEZERERERJSHGNaIiIiIiIjyEMMaERERERFRHmJYIyIiIiIiykMMa0RERERERHmIYY2IiIiIiCgPMawRERERERHlIYY1IiIiIiKiPMSwRkRERERElIcY1oiIiIiIiPIQwxoREREREVEeYlgjIiIiIiLKQwxrREREREREeYhhjYiIiIiIKA8xrBEREREREeUhhjUiIiIiIqI8xLBGRERERESUhxjWiIiIiIiI8hDDGhERERERUR5iWCMiIiIiIspDDGtERERERER5iGGNiIiIiIgoDzGsERERERER5SGGNSIiIiIiojzEsEZERERERJSHGNaIiIiIiIjyEMMaERERERFRHmJYIyIiIiIiyjvA/w8tCStE3EkCagAAAABJRU5ErkJggg==;" vertex="1" parent="1">
          <mxGeometry x="650" y="270" width="875" height="248" as="geometry" />
        </mxCell>
        <mxCell id="01Iar1CoBmKypzJJ37KZ-9" value="" style="shape=image;verticalLabelPosition=bottom;labelBackgroundColor=default;verticalAlign=top;aspect=fixed;imageAspect=0;image=data:image/png,iVBORw0KGgoAAAANSUhEUgAABLoAAAG1CAYAAAD+9p0SAAAAAXNSR0IArs4c6QAAAARnQU1BAACxjwv8YQUAAAAJcEhZcwAADsMAAA7DAcdvqGQAAP+lSURBVHhe7P0NcBNnmi98/42VxR9MCJbBH2AQiWM+9uHLXoInLpNKDllewpdrsvCYqXrnJZlla+yqASoZThEqeUIqOUBVAk/CqbJTy2RC5TlvcMFm1yRDeJmwkwMc70AYm4/sgeA4i8FgQ7BsyMbY7Nr4ve/uu+WW1C1LsmRL4v+rki211Oq7Wy2p+9J1X3fS7Dlz+0FERERERERERBTnRqn/REREREREREREcY2BLiIiIiIiIiIiSggMdBERERERERERUUJgoIuIiIiIiIiIiBICA11ERERERERERJQQGOgiIiIiIiIiIqKEwEAXERERERERERElBAa6iIiIiIiIiIgoITDQRURERERERERECYGBLiIiIiIiIiIiSggMdBERERERERERUUJgoIuIiIiIiIiIiBICA11ERERERERERJQQGOgiIiIiIiIiIqKEwEAXERERERERERElBAa6iIiIiIiIiIgoITDQRURERERERERECYGBLiIiIiIiIiIiSggMdBERERERERERUUJgoIuIiIiIiIiIiBICA11ERERERERERJQQGOgiIiIiIiIiIqKEwEAXERERERERERElBAa6iIiIiIiIiIgoITDQRURERERERERECYGBLiIiIiIiIiIiSggMdBERERERERERUUJgoIuIiIiIiIiIiBICA11ERERERERERJQQGOgiIiIiIiIiIqKEwEAXERERERERERElBAa6iIiIiIiIiIgoITDQRURERERERERECYGBLiIiIiIiIiIiSggMdBERERERERERUUJgoIuIiIiIiIiIiBICA11ERERERERERJQQGOgiIiIiIiIiIqKEwEAXERERERERERElBAa6iIiIiIiIiIgoITDQRURERERERERECYGBLiIiIiIiIiIiSggMdBERERERERERUUJgoIuIiIiIiIiIiBICA11ERJT4phRj1/YlWKhuEtGDy7VqDXZtKFC3iIiIKNEw0EVEwUl/BgdLXsM530vhM5ihHkI0IBNrtleiZu8arJmiJo2UkiXY9UYhcuX1kW4LEcWE3HmLUMNgFxERUUJioIu8OMp2Iqv6ZaSo2xQ/Zox/BrsLK72CUAenP4Pl6eoBFHVpM0eh4MVkFP/GoS7JKChNQpq6314S8l4Uj39xVBCPpZDITK51U5GLy6h65TCOX1HTieiB1XxgHzYf6gTmLcKuVZlqKhERESWKpNlz5var6/TAc2HM1m1Ix6dwb61Br5pKsS4bG6f/DC84neq2LzeONVZh/S11M2JmYXdJGZ7qrkN5wx9xUU19UGWWJSM/P0nd8tHRj6bf9aFd3fQnA13JmIj7OP+7+7irpsY3mdG1GitzOnHw9X3YNyIBptDa4CopxqplhSjKURPQifpD9ThwoBHNakrkZGLhhmdRNm+cnmkmtYnl/f4LvF1nv6eMhGHfLqvmo2ypDE4qcrs0RGt54Rve7eLL2LfF1TNHUf5eoz45BgzfdinApr2LUKRuWWprwOZXTtoud+GGSlTOG8nPKCIiIooGZnSRSR6Ss8S/m9cZ5Iob2dhYuE4FuWRAaw/K697EHO2yB6+2XBIH+E485ZylP5yiIq3UCHL1o+NUH86/04uT8vJRHzo6xOSMJOQzW2vYuVY9qwUCWg99MXiQa9Ua7FhnPjmXxqFo6SLs2F4Ml5oSEVPECfr21eIE2xTkknLE8tatjqnuVMO7XYr17WIOcklyu8jlxUI3WGVYt4uFhRtUkCvGjPR2CdXx946iXrRv5a9ir21EREQUPmZ00YAFLyNrbRF69v4cd06paRTbxq/GuYJp4solvHp2Pz7r0id7Sc8Gum6oG5EUJxld8uT5V/qJV+uh/XjpQKSzZZJQ8JtkZIhrHZ/3ovGCPnXAYPdL6jEdzOiKHJXtMUhGh0Z2b9RqeMnMky9wQOwj2uNlQOpX4jnkSXuksma8luWd5eIqWYL1WjdLoH5PFd6u06ePmOHcLqb9RdsuX4ntYuwzUVneEAzrdvGnBZOWjhOfZw1oWyo+22Ilo2vYt4t43mDf4wEY2zMm3nNEREQUEXEY6FLd625W42b1CTgWlCN9yQqkyEwkofdmPbo+2ImeFv22L1mDyrlYnPdvexk/ysfklWLsL8vE/PIITBDz37GaP8+FlGW/RvrsHDjUJPnYrsOf4MdTVodXQ2un5FjwMsYuKYJDzQO0oedILbpqT9hmXIW2fuK+rab7AhLzVYj5tOtq3bLM0yzklcO5ZQUc5/VtEC6ZLTN7QVKAIIGkun5l9KPpHYsuYhPE/U+OQkZ+ElLVpO6OfnScvI+WC9ZvAX25wPWP+tDyvZhg9RxNffi2tj9ygYn0WdgoXrOnnU7Pr8vN3ZfwZctxvHvLN1ilsrlEY441vhlW10RZ16sirwRPGSsEN5rdJ7D5m6+DCFyFHugKZ3kzJleiJg/48GwV3pWBPKtt5K61fQ69a4q6IU7AIh50mZmM4ueSgEBBKuMxYn85KfYXY9qcYrEvyQjYYMzzDZF+UoeB7SBOQteUFWG+KbuoVZyM7hYno76fbFogZtlU5Ab4yBgIJnoHuv4kTkpX/apInOyO0x8YTDc9q7a1Xcbp35/GvsG694m21qybGlRw09hHrB+rTqYjuO+4Vi3BT786bP1cqt2xENAZ7u2CKZlYKD69LeuoGUGUIQY1ImHYt4uZef+ozdC3SYwEuoZ/f1H7xFDXP1LPQ0RERDEj/rou5hVjdBbQi4kYU7ETzrUDwSPJkVWEsVt2Yow4MbbiyJFnaK3obdGDQllbKrwDPfK5fIJPMuDk3LINY81BLkksK33tNjjLLBLeh9ROGYD6WMxjDnJJOUhZXAHn1nLvdpiEtH55E8XzBzhjNfPqztiMnrNt4n8uHDbbWQuG/XKFaGc97gwhyCXdvdSPbvE/ozhA16+ZozAxA+g+dd8nyJWEvLJkFP8iGRNNASopNSMJE59LRsFMNSEAGfSyfA5xiUyQS9bZqsS5uWVaN0TzHuVKnYYXCtZh93g1wZA+E09rjbmEL0IOcskg2WuoKTAHnSSxbGcZakoqsTGiRewjszwZ9LLcRuIyUhllaao0Wve3AQKe7fo+jPxRMJc9DirIFUUy6FXzxiKs9OlCJ6/7BhIWbpBdkgIHuexMKhPziuV4glxSwG56mVgjlmfZtpypWCnm21SiJthY+FdTxd9OnP7K94TbVwEWaIHQy6i1DIg14oAsWo1xmDRJnzJUzQdsglzStU7xCR4Lhn+74IpNkEua5NPNc8SMwHYxyICMDHLJgRViLiAzgttlqK404bQ8pJn3GBbqU4iIiCjOxV+gK3eiFuRxzF6B9NlAz94tcFf8HDflZVs1em7KB+UgfVmpvOLDpQeOZNBGBq8W56D3fDXc29T8FVtwZ+8n3hlK8nEy4CSuao81liUe6z5Srz3EsfjX/gGrsNtZirHVMjgls7fMbdPn65LzZYnnXKA/2luI69dSY1of0SY57eanpmmmi09x+t42eSqWg9FFFkE+acHzSBdt6T3isz3D8X2/p86Rc4I+yVdmgaqPdMkn60UGwPKTtOytpo/69LpJ2qUPTaf0x2Y8l+wVfPCWhNQn9YwyraC4z3Oc/5fIZNlg/EIteCOzt149u0fV2DLqbLm1hzxVsBrLtWtKWqYe7HFfxGfahODNmPwzLRPMqOvlWd7ZWnyoRWSceGGuz/KGYOjLc+LRvNWoyXMCFtuovOVr9Th/x2sbUC9PYoRgajWFKs0p9z3RLHeAfUHsw9pqCqnGPnzBe1+Su7iWFeaZZrpEKJtrgDjZLFuidddBmzhpfn0/ytdWqct+bK71OYkuWQJZT0rLiNsz8NjNexpUUEY8h5rmn8kxDkVi3tYzDWI5A8uo0k56hXmL/INWJfO1AJfM3vJtmzFf0bolAU5KMzExW/6/jeuDvd5TMsQnmXDmOxzXJujMn2zNrbe1/zm5wzA6mwrotLZqe8TIiZHt4pJZXquWqACP2P/eH9lsrpHbLgXYpHULlO+1w17LjgkjsV087xU9EF+zt1Jd1mDXhmIsDLqeWzv+1CA/Vx7BxBipAUdERERDE3eBLkeO+k1XC8i8jDunmgcCMC0ncOeDT/XbWXqgyZsqto75GLs2Vw8+VZ/Qsp90zejx6oZYKh6nj+cj61Zpj9VuSWK5tTvhPiLPoP0DPuG2M6WiAikyC2qbmEd2UTRnl4n5flTzOXK8l6cLdf1MZHaX/B9sIfpTX2kBLEeOVUqX2m5i3e/URuKUpB8tJ+WJfhImPqkHFbxMkMEs8b+jH27ZxdDsQh/Of9SLc3LEu+/NwYJ+tJ/oQ1OTfssTfLAguyp2n+rDSYvnuOu7vHDdEifzZ9/EygZZZ8vcRfEGPrtahVe1WFcmHjNlPc1IDfNkIf0Z7JABI7i17oDrzV0iu77Guw17VPBpGv52shYtGJoILe8p5zQ0t+zBHIttdNGqNpnhykm8/YpdEGaojK6H/ege5Km7Rzhu4atont6tr/wVcdJ8xdz49oHaSIor9xHtf/2efV5dBpvrTuKlPZfFtalYECDDSuvK9N5JU7ZOO44bw/sLRX/lk9VVdxibXxevl0Xb5HxVZ+T1QCelGZgkz7rbOnFVn2DPL7Aku1hVYoe47Fql3mMqyyo3N9opeJlYs0zP2LHOihlGI7ldZOaSFrAQy3tDFqcX+9+Zo9i8NgpdAUM1IttFdgM2uv3FYJBLGsH9JXfpIhWIN4i2zCtE5RuVg2Z+eovBbDMiIiIKSxwGurSzF3R94J1h5NESIFBjBHOyctC7Vw8+BeIoK0OK+N97ZIttcfbe+tMq8OQd8AmvnaUYPVv+l90aP0ZWtcVF1rzSHmshxPXzojLQehqC7WbYgj4tu8w7UCcZ263nsM26h+PCfT3jxafrl5Q2Te9OKOttWXUd8wSjJiQhc+YoFJQlY86LySj+jQP5MkAmgxW+T2rW1IdzJyKdUePPE6xJz8by8c9g9/RKHCysxLmS1/CW1j3OiUcjMWyfJxPshF7zys8NvNtySbvmypyJGdq1IYjU8ty1WHnVt04Zhe3M0YgG/uyzNOy7DzZ/dVnPCMvO8Mr8kAYKkWdiYUkxNm1Yg13b9awNveZalE5KSx4Tn8C66Ae2vBkj6dXvicFgxghuFy1wkf0YfloS6IN6hAzDdhnYL2Ig0Bes4dhf6k7j4JnLWpbpZk/Wp7i8ftSTxRs483OAkW1GREREiSHOAl2qa544NfLKdAqWCuYEClyZGcGqe/WhZiWF2c4FT2gBorCFuH5mKYXykLQNfdpZZzCa0asFuuYjxRzjyyvH2MViu52vDrkNgfXjmtbVMAkZXjW1kuB8XHVbtClUnyaDWy86tBpb+c+pYvIZFplhNrr1noNRJwu17y58DefmrsNbspaVrEOVqgpAWbhopBCljQ8pGGVkgjXfDVDY664aLUs8VosFDkGklhdw/hHTrzK1BgmWCiNdj8tXKF3jjJNA7aTRnEUlR1PTupSJT4/WIQTNcsZhsrpqcMng1vZK1MiMnnWFWvfHXHONrwjznIzLk2ftJLkT9X8evjpIsl6aVsj7zNGYGvltRLbLlZN4SQUtNr8uu6vKgKhem82THTTChmu7ePaLQ/vjYkTA4d1f2rHvvcNalqnXUdqVRrz9yn61/MDZpkRERJSY4izQpbrmnde7zVkK0AXPCOYEF7gKMlhlBJfazA8Kr51Gd0fZTdKvRpbPxW3RJTC09TMLLzDX0yBrlOUgWW+2ELkC9FYsi9LbFqFXZiZjtgxuyWNvOcriqT6tztZ5VWvL6Lo44savHijU3n0Jx1pqtTpU5aoWld510UcEg1EUvruqNleqqtVlaYKedSh1R6q763CqO6y6C07VugN5auHIAvNy8pmjOBDJk/CSJdghg1vabw2XUX/oqFarSwY9ZPBDb0uE+BV/FyfPWlfXfQOBBb9uWZGlj4Q5Ts+yi5Ui4zGwXaRmWaD+wGG8pAIXuUufxZqRrKM0rNulAKvkfiHkLhXfEcb7zvP+kzW7hHmL1LTgspeiIkb2lwFG3a3gaoIZ3bOJiIgoMcRXoEtlPHkHlbylLNO79vl3wRtiNpglF8Ys0ZPze9tMwaUhtVMGvKzqbw1mKOsXRGDOSqsepPO0N5IF6K18fx/XZWDKVJTetgi9JgkFz+n3X/9cr7HVeKJfq7N116vW1kibhd0F08R/Nz6Uhdob9mP91a+1OlQXvWpR+ei6gC+HUEvLleY7jKOJ0d2wux2RigUO9/KGy10VhEx9PMl2VFCjey2abAKyBrFvR6J3anToJ43eJ7OdWhBq83uN3hkVwVInvt61tIwsMVX4/pXDePtAo1arSwY9gtOBazKbwyJTzM+VDmiJHwFGXDNOgoeUtWYpUx/Ncqks1n8U5bE0kt6IbhcrRuBiHOY/MYJZXTG3XWJEQmyXTly7pq4SERFRXIurQJeR8eQVVDJb8DLGajWu6nHPr9ucCuYEW2xdnLZpXfNQhNGWIxyK9pT9WgvsyKLrXablhdtOfSRDMf/cYj3by4JjgcvmvlDXz8TILgtVy0ncE9tIb68K+kWsAL219kbVfXGaDGCJ/3ZF6M3k/ResA2FGlk1M6P4GR8yF2j2y8Zi65u0GjrTrURZX3s+w0VSo3kv6LGwcPxAIu+j+Rg9KOEtt5snGxjwZeBPvgvYLuKhdC2CQjLKILy9UU1QXuL2mosiRZNSPyxiFSV7dag1JmCRH7RQ6tP03sEADI1iK9vpJ2qiLwEFZIN6og6Nd9mlBqMDveLtaWkbhdaC1ocn/Odou40+mwvcDMjFRXbPXjuvaWymYUdQacUplq5VZbj8jq+YyTgXKWgv5dZAFxldrRbT1Yv2hBrkKBpa3waeYf0QM93YR22NDsR7wtpSJnxbq2U2BAyWJtF0a8bbX+83n8roa9VQGSbVpgWq7JeD+sqogwP4ykA03eGDN2LduDz5KKxEREcWFOAt0yX4sQMraj+EsKzUFZ1xIqdiJLM8IiTv9M4oCdGm0o3fNk8vbibELTIdTeaUYI5bnlLWo4F9wPux2qpEMkbUCzq3lXrWvHMYy125DulXgLYz18zO7DGNM66kvU7RD3fZn1OmaiBQV9ItoAXorF+7jeoeePSMLy2s9Em2K0HtkjMLjpeZMGXF9pl6QXhutMVaklmDH5FmmelvZmDF+NQ4WrsMLNqW6Ll79RzVioRMvzK3Ebqv555bhhQJTIKzrj/itFh9T85iCYFpQTC5PiwBewm8DFn+/hX/zZJSZliueY7k5oBWx5YVnYZnqAidEp9uTUT9O7GrPJaPAvK9NSEKB2M+0qjUd93HNpo6clpWopbIlYeKyUcg0B7u0QRTsu0VGf/2MTIxxmBRmJk3ROnnSajopnVKgBXlkgW3bEQZzCrHe60Q2E66SJdgl59OK0Qd2/M9yNMjgsn+O1+oBA9k9zLedm7TR7oQz3wUsEB/S66A9r1z/TtTv2R/WoACuVUUDy5tXFJXXfTi3i2vVs+J1LcSOvWuwqURleCoun/0lUKAk0bZLpCTk/rJ0EXZsX4I1vvuLVt9PLa+tYfBu1VPyMV8uc5C2ERERUfxImj1nbiz14QrAhTFbtyEdbehFjuqm508WYreqXyWzqGSAyfZ+GykVH6vsKytt6Nr2Mn706ioYmXba6ZVF3qtP+AeTwlw/nWqzTVtlzTC7wvKOMiPgJ4i23YxCbS5faaXJmK0yZGSAoOmdPtvuYN6P9dEh5v0WyBf3d3zei0afIIQxb/ep6I+6OGNyJWrybKJZ3ZfwqljBt/Km4Vjjm1jvV5M92xQssuIW81X5zDf4PB+erbIZJXGAbbvdtZjzzdfqhhT+8oxlNLfsCWvUxYUbjFH6JDk8f3RGLsssS0Z+foB97Xf2+6lmwijM+cUomyxD+/081PUz6kFpWUTBBlimFGOXUQ/IRmvbZZz+/WmtMLROz1iSwZzWtnHIVR8T3qzb66lZZUUsp6oBqFw6FfV7qgIU6BYn13vFya440d38yslBss4GW+bgzxH06xDEtjQEeo182xvS6xmCYdsugmvVEqwXr6v9tpGBQVPNJwuJuF1sGftSEN1eE3N/CbAsSX5WvDL4CKbG8wT+PCEiIqJ4kpyVnb1VXY9xs5D6f86H49/+B26980/omzwTjqyfeFLSes9/in//4A38+1fWQ0Q75v8N0vJ/gv/4Xx/g3nU1MQi9f/4E99pd+IucXIwaoybebENP3f/AnZ170PODmuYxtHbi+p/Qdf57OAomwTHmJ2qiab5/vor7appZuOunu43/+J/1SBJt/QvRVkPvzXr8++7fyFJQtu53ZSCldJpYv3rc2RrlbC7lP68CaU/qAQFZhP7yQHEfP/95tR8dt5PwsDMJDxkRhI5+XP/yPi784T7ujhmFSY8nofvb+3D7BJAemjIKWZOS0Hu9HzcDLCMS2u+cxrGebPxVWiYeeUhN7L6EDy//E9Z+dwqNf/GXqHBm4or7OA77pa/9iJNtx8X8DoxPS4frISOfyI1m9xm807gf7/ntbuZ5Jot51GRtnj/gV2cO4ff/qSYFoLU7SbR7rGi3mqa1+8ZFnLz7o5oghb+88WPn42/GpuH2Dw2ouWN+zuBcuZGMqdNzkCt27dZDn2HnvwTM/wvb3W8s9jX0o7vpPi7uu487aoqtLrGfNfUjLS8JqakDAbNusb9+L/bXGzaDToa6fo/85SwsKkjFv3/7v3HkQpDb4k4PuqfkYn6ObaQSP/nJOEwv+ktMvXUa/6IF/9Mwa9FfYvqPF/HfXvknHL2ViZm548TjtIej9UwD/p/3/384ZHESe/vCv+LPPo+XJ60Ha77A1g/P48q4x/E3RePEebOxLCtutD6Uj0WFj2LmQ5cHXVd9mckYl5sitqWxnrIGWR127z43aKAs6Nfh/5iFF0TbgxHoNbp94T8wdcGj2vKkkF7PEAzbdhFuX2jCkTN38NAj4/Cw2NeMl17WcGttqsN/e/8YPjfHzy0k4nax9cgkLH46Bz+58W/4h1NWI5YMSMz95V/xDzb7S33NZ9gtPivOqUn2CrDuv/4lctsaxOOviaMhIiIiSgTxk9GVVw7nlhVAWBlLwyhe2hkpD9r6EgXBk0nY1IeTtXGSNGtLZWYhUDaGLKou603Jk9PoZIqEZyCrLKyMmXhQsgQ166bG2HaPAdwu1rhdvOgZZAn8+UBERPSAipsaXY6i+VoNKtsC7zEiXtoZEXmlGLtlBRxRLkBPFG/unlAF6vOTMacslkdSDMIUvX6NZcF4j3ZcbdVHZYwt7dj3vqwbNA4r31hiOxpcPNPrp3Xi9FcMWphxu1jjdhkguyzqwfkvGOQiIiJKMPET6NIKvLehTxtiKHbFSzvDkjdQ7tWxQGZyVSBF1inzKcZPRP1o/LwfslZ/an4yZv/GgWLtkoy8UEdVjBGyMLRvkXBJKxS+waiVY1NYfiRdOYmX9lxGK6aicnuCBbumFGO93O5n6nmibsbtYo3bxcNT3+vMUWa2ERERJaA46bpoFEuvx50KixEVY0a8tDMc1gXrAxWqJ3rgTUhC3pOjMNFTpL4f1z/qQ8v36mac8C4QbUPW0Hr/cOyeQMvC3b8ah1rRxuNxf5KfKU7U5+uF24MsuP1g4Haxxu3iSwa61ufW46VBivgTERFRfIqTQFcpxlZXIOXmp3APU8Hz8MRLO8PhHeiSheq7PtiJHttC0ESUSOSQ/auWTUVOzjivUfGM0Rb/VNc+aKFpihR9RMmcM0exW5yoc7sbuF2scbsQERHRgyV+itETEREREREREREFEDc1uoiIiIiIiIiIiAJhoIuIiIiIiIiIiBICA11ERERERERERJQQGOgiIiIiIiIiIqKEwEAXERERERERERElBAa6iIiIiIiIiIgoITDQRURERERERERECYGBLiIiih9TirFr+xIsVDeJyJ5r1Rrs2lCgbhERERE9GBjoIiKi+FCyBLveKESuvD5Fm0JEg8idtwg1DHYRERHRAyRp9py5/eo6ERxlO+Fc3Io7FTvRo6ZR7Fo+/TW85VQ3fDR3u3Gl5R9RfesGLqppIy8bGwvX4QXUobzhjzHULm9pM0dhUnESMjKS1JR+dJy6j2sn+nFXTbGWhLwXkzER93H+d/cHeeyDJBNrtq/GSjRg8ysn0aymhkRmcmlBrsuoWnsYx9VkIgpMZnXtWDoOrYf246UD7WoqERERUeJioItMXBizdRvS8SncW2vQq6ZS7AoU6PLojqWgUuwHujLLkpGfbwS4fHT0o+l3fbA/VWSgy9pQA11q/pxOHHx9H/ZdUZMDcE0pwE/LirBy3jjgzFGUv9eo7rHnKinGqmWFKMpRE9CJ+kP1OHCgMbzgXBRx/fxx/ewt3FCJynnBv3+IiIiI4hm7LpJJHpKzxL+b1xnkijPHGt/EnDrzZQ/KG+v0k5/UEuyYnK09jgJLKzWCXDKDqw/n3+nFSXn5qA8dHWJyRhLyXxyFNO3RNFxcq57FSnFy33roi0FP0uUJfc3eSux4Y5EeRAiSlvWyzhxEkMahaOki7NheDJeaMtK4fta4foEdf+8o6sXjV/4qdrYFERERUbQw0EUDFjyBFPGvp+GEfpvi2A1cvPVHrGy8pN1ypY3X/o+88Xg0VV0N1ZRibNqunyTuWpWpJkZSEiYt0DO5Oj7vQ6O5m+L3/Wj8XR9krAsZozBppjbVUmqGukImGZjkdYIeigKsWjoOaGvA7iC6XV2tPYqqPepyqFNNHYTYt9bLZWgZMvuxeW0VyuXl9aOobxOTcwqxI0ZqHHH9LHD9gli/RhyQyxOPXVWiJhERERElqDjsuqi6192sxs3qE3AsKEf6khVIkZlIQu/NenR9sBM9LfptX3oNKqBr28v4UT4mrxRjf1km5ldnYWL+O1bz57mQsuzXSJ+dA4eaJB/bdfgT/HjKqtPA0NopORa8jLFLiuBQ84gzPfQcqUVX7QnbjKvQ1k/ct9V0X0BiPk/dLrVuWeZpFvLK4dyyAo7z+jYIl8yymb0gCR2f96LxgproR3UZy+hH0zsWXcsmiPufHIWM/CQYcZbujn50nLyPlgvWbwF9ucD1j/rQ8r2YYPUcTX34tnawuk0hSJ+FjeI1e9rp9Pzq3tx9CV+2HMe7t26oKQOMrosyo2v9LTXRLP0ZHJxbApdd90Wb5f320n581qUmWMrGjPELsSMvE65Uo++kG83uE9j8zdfeyxm/GgfzponHqduBuGsxR8xvRe96o26IE76Id8GZmYzi55KAjgDdDo3HiNf9pHjdjWlzisU+EUyAyzzfEOl1dzCwHaYUYE1ZEebPG6cXaxdazxzF7vcsujVZPbbtMmrfP4zjAbepeL1L5mP9skeQmyNPvKVOsZx6/+XIwvHLporHqduBBOq6JZ6nZt3U8OoLqXkH6xpm7FvWyyjApr2LUBSNfW6ouH4arl+Q6zdF1bkbZHlERERE8S7+MrryijE6C+jFRIyp2Ann2oHgkeTIKsLYLTsxJk9N8OHIkWddreht0YNCWVsqvAM98rl8gk8y4OTcsg1jzUEuSSwrfe02OMssOgIMqZ0yAPWxmMcc5JJykLK4As6t5d7tMAlp/fImiucP5ixU8OrO2Iyes/Jn5Fw4bLazFgz75QrRznrcGUKQS7p7qR/d4n9GcYAuYzNHYWIG0H3qvk+QKwl5Zcko/kUyJpoCVFJqRhImPpeMggDZOQYZ9LJ8DnGJTJArGxunV+Lc3DK8YAo6Sa7UaXihYB12h5GUNcM5XX+uu7f8glwzJtsv7625r+GgXXfH9FnYXbgONQUyeGUuECaex1mGmpJKbExXk5SgglwjLE2tSve3AQKX7fq+iPxRMOeUjXQWlwx61aiuUEbgSpLXfYNcto/NmYrKNwJky00RJ9TbV2OHODEfCHJJ4nnmLcKOvWuwxmckxKCCXINY+FdTxd9OnP7K9wQ/UgqwQAugXkatZSBNZcKI9Zw0SZ8SX7h+XD/lShNOy6/ueY9hoT6FiIiIKCHFX6Ard6IW5HHMXoH02UDP3i1wV/wcN+VlWzV6bsoH5SB9Wam84sOlB45k0EYGrxbnoPd8Ndzb1PwVW3Bn7yfeGUrycTLgJK5qjzWWJR7rPlKvPcSx+Nf+Aauw21mKsdUyOCWzt8xt0+frkvNliedcoD/aW4jr11JjWh/RJjnt5qemaaaLT3H63rZW8TcHo4ssgnzSgueRLtrSe8Rne4bj+35PfSTnBH2Sr8wCVVfpkk+2jAyA5Sdp2VtNH/Xp9Za0Sx+aTumPzXgu2Sto4S0JqU/qGWVaIXKf5zj/L5HJzsH4hVrASWZTvXp2j1etrVdb3NpDnipYjeXatWBkY/nk1diRp0dvjrl9sqTGr0aNdp8bx1pqUW6q71XeeEkLjrjyfuYXsAJmYffcMjwlA1eirR82+rZVzuvEo+aI5K39psfU4picJjPMPNNMF5tsLul4bYPeTUcIplZTqNKcerfFbneA11Tsi1qgS0g19sUL3vuE1r1RZoV5ppkuEcrmGiBObsuWaCOqoe0yql7fr3dp0i77sbnWJ2ujRD0WsgvU0YEuUOKyec9lyHd17tJn/QJWWtbIG4v0+kBiOQf3eC+n6pCc1+dEu+6w6TGyPpDQ1uC1TM/FNrskExO1eOttXI9WJs6UDPFJJpz5zmskR/MnW3Prbe1/Tm40usxGGdeP6+fRjj81yKDYI5jo9x4nIiIiShxxF+hy5KgcBC0g8zLunGoeCMC0nMCdDz7Vb2fpgSZvqtg65mPs2lw9+FR9Qst+0jWjx6sbYql4XJF2rWfvz/XHarcksdzanXAf0Qpk+AV8wm1nSkUFUmQW1DYxj+yiaM4uE/P9qOZz5HgvTxfq+pnI7C75P9hC9Ke+0gJYjhyrlC613cS636m1WV5I+tFyUgYIkjDxST0Y4WWCDGaJ/x39cMsuhmYX+nD+o16ckyPlfW8OMvSj/UQfmpr0W56ghQXZVbH7VB9OWjzHXd/lhevWfpSffRMrG2SXQXMXxRv47GoVXtViXZl4zC/wpHuq4DWcKzFf1uEt2V1Q3NfsrvXp1piNjeI+6VhjFdZf9e5qeFG0Ra/t5cTTTu+srhmTS/GUvKJ1hdzv051StlXMe3aPdTfKobpyEm+/ogdGQu7CNiij62E/ugd56m4tkhU7iubp3frKX5HdDs2Nb0ezV3AoE2uWyewooH7PPrztM1Jbc91hvLTnsrg2DvOf8D5hdq0qgvZJKANVYjn76ryXc/yAmPf1/Xi7Tk2KGFXbq60TV/UJkTdJz2xrbTVeWNkVrBI7zLXgrnXqQcDcOCzAxvXj+vmJ1+w2IiIiouDEYaBLO+tB1wfeGUYeLQECNUYwJysHvXv14FMgjrIyrTh775Et4rH6NF+99adV4Mk74BNeO0sxerb8L7s1foysaouLrHmlPdZCiOvnRWWgBV+IvgV9WnaZd6BOMrZbz2GbdQ/Hhft6poxPlzEpbZrenVDW27LqcuYJRk1IQubMUSgoS8acF5NR/BsH8mWATAY5fJ/UrKkP505EOhPH30WjJlZ6NpaPfwa7p1fiYGGlFriSdbhk4MkrU2oQzd11WnbYSt8sqfSZeFrLyKpDtV1A6tZFLfPKlTkTM/QpQjYWZ+pZYB9esqj3ZfAK1FHUnTkaXOBvSj7max9LDThgF5Cq+07LvMotzDdljGTip4V6FtjB9096Bce8eAXZ4ljJY3pQT4jLwMhguH7xbYjrZ2R/ERERESWyOAt0qa550GtQhUwFcwIFrsyMYNW9+lCzksJspxr1MGwhrp9ZSqE8dG5Dn/xZOCjN6NUCXfORYo7x5ZVj7GKx3c5Xh9yGwPpxTetqmIQMr5paSXA+rrot2hSqT5PBrRcdWo2t/OdUMfkMi8wwG916z8GomyGDW4Wv4dzcdXiroARPydpZXjWw7Mli9Eb3v3LV1dF195ZPdpiSlqkHMVJLUOOVBWa+lOmZW16MERPb8V3AQvXxqF9lag0S9BRibVTFgUyPQajMEG2Etr366JX+F1nU2pcxYuLt6HUfjAGeoEHdaRzUush2ov7PiVOwm+sX3xJ9/YiIiIgiKc4CXapr3nm925ylAF3wjGBOcIGrIINVRnCpzfyg8NppdHeU3ST9amT5XNwWXQJDWz+z8AJzPQ0y9yMHyXqzhcgVoLdiWZTetgi9MjMZs2VwS54jyFEWT/VpdbbOq1pbRtfFESdrZsnglqp9JetmyWysclWvS++6GJyLV0/odbCcpRY1tsjOXVWbK1XV6rI0Qc8elLoj1W2VRpbq9jWgHfu0LrL7Brpi+nUfiyNcP66fiSv3EXWNiIiIKHHFV6BLZTx5B5W8pSzTu/b5d8EbYjaYJRfGLNHzH3rbTMGlIbVTBrys6m8NZijrF0RgzkqrHqTztDeSBeitfH8f12VgylSU3rYIvSYJBc/p91//XK+x1XiiX6uzdder1tZIm4XdBbJmllsv7t6wX6ubJbOxLobVDfBrVGtZXU68MO0ZU9dD5W673v3MXTtQBN7u0mDVRdG+VljQUjOh9RqNIXdVMDH18STb0T2NbrJosgmsGsQ+GkIv0+FhnDCfOarVOQt4ecWqi2IECljnjMNkdTU4HbimlUEMdb4QXOmAliATYCQ6IzjQ1hqH3TO5flw/P524dk1dJSIiIkpAcRXoMjKevIJKZgtexlitxlU97vl1m1PBnGCLrRtd81CE0ZYjHIr2lP1aC+zIoutdpuWF2059JEMx/9xiPdvLgmOBy+a+UNfPxMguC1XLSdwT20hvrwr6RawAvbX2RtV9cZoMYIn/dkXozeT9F6wDYUZ2Tkzo/gZHvIq7G7LxmLoWrItX/xEfyvS31BJUjNeneXRdwJfyvpAzvr7GF1owyCaAZkjPtr/PI4xg2ZRibNqud7HzFGGOJKMOXMYoTPLqHmtIwiQ5+qbQoe2HgQUa4MBStNfvShNOyzPmeUUWoyoG0ohTZ+T/cVj5q2LxTrcxRXWJDSjUYFk7rmtviWiOEmes31SUWW73AqzSRqq8jFN2tc00BQOv34YCNS0WcP24fgaj3l5id0MmIiIiirNAl1YoBilrP4azrNQUnHEhpWInsjwjJO70zygK0KXRjt41Ty5vJ8YuMJ3C5ZVijFieU9aign/B+bDbqUYyRNYKOLeWe9W+chjLXLsN6VaBtzDWz8/sMowxrae+TNEOddufUadrIlJU0C+iBeitXLiP6x161o0sLK/1SLQpQu+RMQqPl5ozbMT1mXpBem20xliRWoIdk2d5FX+fMX41DhauwwvBleoyuYF3W+TIicBTeb5BKeM+J16YW4ndcpleQadsLJ8slluyGsvVFMNnLXV6po+s71W4GhvHm0dlVO2duw4102epab68g2XLzcvVivB7j/JotrCsEEX6Wwu5S58NMVgTDKMOnNhlnktGgXmfmZCEArG/aFVyOu7jmk09OC27UOsOm4SJy0Yh0xzs0gZDsO8WGf31a8e+3+ujKq58Yw02rSqAy2sZmVi4agl27V3ilzlyvLZBzwaT9b22L8GaEvMJdyZcJWK+N1Zjh22AwDtYttC83CliuV7P5+34n61HgowkY/1yl67GLrld9MmibTL4oeqWnfkOx7WJ1rSRKY3XL+RgYnRx/YQHfP00xoAUwTyWiIiIKI4lzZ4zN5b6cAXgwpit25CONvQiR3XT8ycLsVvVr5JZVDLAZHu/jZSKj1X2lZU2dG17GT96dRWMTDvt9Moi79Un/INJYa6fTrXZpq2yZphdYXlHmRHwE0TbbkahNpevtNJkzFaZNTKw0PROn203Mu/H+ugQ834L5Iv7Oz7vRaNP8MKYt/tU9EddnDG5EjV5NtGs7kt4VazgW3nTtKLz600jJS6fro/I6Dtdl42NMkiWCjS37MHKq97ZYgGXKYnlfnhpP971LTyf/gwOzi0ZONny48aHZ6v85zMEnF+sa91+fKZumS3cUInKeeoGOnHw9X3YF4WshMyyZOTnB9hnfme/v2kmjMKcX4yyyRa0319DXT/XqjXYsXQcWg/tD27URcWYz1bbZRx8/7D/sqcUY9cbhXpBe0uDtDng/JdRtfawzcm3OJmXRfLbGrDZskvlAO9tGIDsvvmedyHvgNsliGX7zh/q6xIMrp/C9fMWxPpJxnPU76kaqO9FRERElIDiKKPL6JpXC/fWLbhzXgaSBvSe/xR3tlkXaZcG7U5oo6daPOfeetWNUbnZhp4j1XBX+Aa5pKG1E6d24ua2avSIZZh55rMKcgnhrp+uGT+KtnaJtpr13qzXlhlo9MTe+tOqPdEpQG/l7gnVxUywLUKv3D3Rh/OfGyPqKR0DNbvaQyjyHk0Xr1ahvPESmmWXQoMMNKmaXZ+ZpwdtIKvLlbfQLztLLnPO2Vp86HZ7nyB1u7Vi+OViuZbBqq4/YmXdHrwqnturvRDP4xbz1QUIcklyfrHcYz7DWTZr63vcMsglyayGerWLth76IipBLqm91mKfgbjdJKYPFuSSvr+Pcx/1oUPsZ2bd2n5nv78O1/o1H9iH8teP4uAZnyLXbZ2oP3RUnDBbBLmkKyfx0tr9qDp0Ga1eHxXiecSJ+ea1gwQe5fxiufViOWatMrC253SADJNGHDgk5skpxPpodOlU5HbZvEe+Bub2Gdtk8CBC84F6z+sXi7h+gSX6+nm6OLY14ACDXERERJTg4iejK68czi0rgLAyloZRvLQzUh609aUHiicjsKkPJ2vjJPk1IWVizfbVWJkTvUy+iClZgpp1U6OSERQTuH5xSc8mi4P3DxEREVEExE1Gl6NovlaDKryMpeETL+2MiLxSjN2yAo4oF6AnGime7MH8ZMwpi8GRFB8Y7dj3vqxTJOuL+dcQiyX6CHidOP1VAgaBBK5f/JFdFmWXyWhmihIRERHFkvgJdGkF3tvQ59XXJvbESzvDkjdQVcmxQGZyVSBF1inzKcZPlDj60Si7MYprqfnJmP0bB4q1SzLyQh1VkYZGdn3ccxmtmIrK7TEa7JpSjPWye9iZ+sQMKHD94o6ntteZo4mZgUdERERkIU4CXS5V1L0VvX41sWJJvLQzHC6M+eU2ZFV/rF2ca1domWs9e63qlBElkAt9Ws2t603sujji6g7jpdf1EegQQ6PiaSNPyhErZbH9tsuo8ikkHv+4fvFM1tDzLW5PRERElMjipEZXKcZWVyDl5qdwb43l7KF4aWc4vEdmlIXquz7YiR4GuYjogaePDJlz5ih2v9cYRGHweMP1IyIiIqL4ET/F6ImIiIiIiIiIiAKImxpdREREREREREREgTDQRURERERERERECYGBLiIiIiIiIiIiSggMdBERERERERERUUJgoIuIiIiIiIiIiBICA11ERERERERERJQQGOgiIiIiIiIiIqKEwEAXERGRnSnF2LV9CRaqmxRdrlVrsGtDgbpFRERERBQ6BrqIaAiysbHwNZwreQ0HJ89S04jsZGLN9krU7K3ErlVxEMwoWYJdbxQiV16fok2hYZA7bxFqGOwiIiIiojAlzZ4zt19dJ4KjbCeci1txp2InetQ0il0zJleiJs+pbnlr7nbjSss/ovrWDVxU0yIu/RkcnFsCl3bjEl6t24/PtOuRJgNq6/AC6lDe8Mforc8Qpc0chUnFScjISFJT+tFx6j6unejHXTXFWhLyXkzGRNzH+d/dH+SxcUxmRxmBI1xG1drDOK5djzQZUFuNlWjA5ldOollNDYmnrdFsJ1mRWV07lo5D66H9eOlAu5pKRERERBQcZnSRiQspc3OAm9fRq6ZQ/HKlOvFUwTrUFD6DGWpaxHVdwJfd+tXmlotRCnLFh8yyZMx+bpQpyCUlIWOBmP5iMjLVlAfalSacbtOvth76LoaDR5lY8ysZ5OrEwdeDC3K5phRgzYY1WrZasNlIrpJibFIZbvplDTatKlCB49gynOvXfGAfqs4AuUufxRpm0hERERFRiJjRRSalGFtdgZTz1bhZfUJNo1hmZHQ1t+zByqs31FQpGzPGz8SOAj3byv/+eBPbGV1ppcmYvUAGuHwyuCYkoWBZMjIyxPWOQNlaD0hG17AZWkZXKBlFCzdUonKeumE4cxTl7zWqG9aMZVhqG0ImWoSN3PoVYNPeRSiKoW1BRERERPGBGV00YMETSBH/ehoY5Ip/N3Dx1h+x8myddoLoypwZvayuYTEej6aqq6GaMpBVsmtVNPKqkjBJC3IBHZ/3odHcTfH7fjT+rg8d8nrGKEyaqU21lCqDYRQhGZiUo66GrACrZICmrQG7g+g2d7X2KKr2qMuhTjV1EGKfXK8FgTpRf2g/Nq+tQrm8vH4U9TLjLacQO2KkRtXIrV8jDsjliceuKlGTiIiIiIiCEIcZXS6M2boN6Tf1rCPHgnKkL1mBlCz93t6b9ej6YCd6WvTbvvQaVEDXtpfxo3xMXinG/rJMzK/OisT8d6zmz3MhZdmvkT47Bw41ST626/An+PGU1W/NQ2un5FjwMsYuKYJDzSPOvNBzpBZdtSdsuxaGtn7ivq2m+wIS83nqdql1yzJPs5BXDueWFXAMMUPMyJbp+LwXjRfURD8qIyajH03v9MHv9HSCuP/JUcjIT4IRL+nu6EfHyftouWD9FtCXC1z/qA8t34sJVs/R1IdvawervxSC9FnYKF6zp51OT/ee5u5L+LLlON695Z+RZZ/RZZiF3SVleMqmftaM8c+gIq8ET3mCSG40u09g8zdfW2RNqawqm4CTfRt8s7GysXz6z/C35nV014ll+mRqjV+Ng3nT4AomwOWuxRzRZiveGSmyK9o+7LuibkbCzGQUP5cUOGPLeIzYX06K/cWYNqdY7EvBBLjM84XNO8sJUwqw6ldFKMpRWTdtnaj//Rd4u84+uCO7oq1aVijmURPE9mw9U4/d7zVaZNyo5dl8vNhnS/lmY2WK1/BZlM0bp2p7iXnPNIhl+mT5yMLxy6YiN5iPs0AZSeJ5atZNDa8+lJp3sIwnY5+0XobKZIrGvjpUw71+Rp20IDLIiIiIiIgM8ZfRlVeM0VlALyZiTMVOONcOBI8kR1YRxm7ZiTF5aoIPR448C2pFb4seFMraUuEd6JHP5RN8kgEn55ZtGGsOckliWelrt8FZZlFxZEjtlAGoj8U85iCXlIOUxRVwbi33bodJSOuXN1E8fzBnhYJX3a5m9JyVP8vnwmGznbVg2C9XiHbW484Qu0HevdQPWQYqo3gU0vRJ/maOwsQMoPvUfZ8gVxLyypJR/ItkTDQFqKTUjCRMfC4ZBQGybAwy6GX5HOISmSBXNjZOr8S5uWV4wRQAklyp0/BCwTrsHq8mRIQMPr2GmgJzkEsSy3aWoaakEhvT1aRISc1Efvos7C5ch7d819FZYllLLKgg1whLU2MBdH8bIODZru/DyB8Fc07ZiGRx5YzDqg1rsOONRQNBLklcL1q32qb+kgw+VWLHOnOQSxqnjZC3Y++ayNdSEu2ZPKUAm7avRqUpyCXlzivEju3FXvuQFFSQaxAL/2qq+NuJ01+FGOQKWgEWaIHXy6i1DKSpTCaxbSdN0qfElwiun1HTbd5jWKhPISIiIiIaVPxldC14GVlri9SNNvTs/e/oOtWsB2G07CUZ2BHXLbOIVCYSPoX78EQtkNQrHnfn9ye0wJC8P2UB0GPO0DItT3useE494OOCo+x5OBfL+9oGMqgMYbdT3CfrZBnZW/VG2wQx3xgxX7qYr2fvz3HnlJruEcb6eajl3hTzbq0xBbVsqPXrPbIF7lqL5xvs/pAMZGt5sqt8ZJY5kJ9vcb/KpJHZW9d/fx/t3xu7exIyS0chX9VVssoC82SSNfVrWVwQz9Hk8xxpE/px16I9IRu/GucKpmnZW7+9dByfdRmZUdlYPvlneEsbWdE/K2vQjC71vOj2rm01MFqjG8ca/xHrjWwxmVE2rUxlbQU3iuLgWWW+mWBufCiWaWSozRBtrJFtFI41vinaol31oTLTfNYjKLLr4q/0AE1YWTqD0Pc92W0xcMZhwW+SkSH2Net9WN0fsI7XUHlnWMmsqNrakziuZdRkYuGqZ1GpairV76nC23XaVc1AvaVOcZ8p60sWKP/VIvWcwY1OOHj9K99MsE4cFMvcp5bpKlmCHTKrSPBt54Bw6zsZyw5zpMVgMp5sspRk0M7TzqFklUXTCKyfvr8g9rLbiIiIiChmxV1GlyNH/a4vAzIVL+OOETySWk7gzgef6rezJlpkPeUhWcuQmo+xa3PRs3cL3DJw5QlQNfsEgUrF4/RglQwsaY/VbkliubU74T6iFRzB6CLv3IJw25lSIYNc9bizTcwjuyiag2divh/VfI4c31wGKdT1M5HZXfJ/sCMunvpK67LoyLFK6VLbTaz7nSEHuaR+tJyUwaUkTHxSr4XkZcIoTMwX/zv64fYNIFzow/mPenHud32mAJXUj/YTfWhq0m+lTtD/W5FBru5TfThp8RwRCXJJt/aj/OybWNmw3xTkkm7gs6tVeNUtr2fisaCzrGQx+tU4qAJIze0XBoJD6c9ghwpyfXi2aiDIJXV9jXcb9uBDLf1oGv52crY2OWK6ZfCsyqsb5kWx7vr6iXPk1AgvT7pyEm+/otcIinzQwOh62I/uQZ66WyvUFRu0AMN7RpBLasfxA/uwWdVgKvorU1aXqd6SDDZ4dW280oh9r+zHQfkxiKkoi3QNtDYZcNrnCXJJzXWHtRH5pJzcSNdcU7W92jpxVZ8QeZP07LTWVmOHkEG5Suww15C71olW8S83Nw4Lt0Vl/eI1u42IiIiIRkIcBrq0sxB0fWCTddQSIFBjBHOyctC7Vw8+BeIoK9OKs8usJP/sKV1v/WkVePIO+ITXzlKMni3/y26NHyOr2uIia15pj7UQ4vp5ydXnDb4QfQv6bop/FgFFY7v1HA4iMyxYF+7rBb19un5JadP07oSy3pZVJownGDUhCZkzR6GgLBlzXkxG8W/0TBwtWBHofLmpD+dOmANc0XGxS11Jz8by8c9g9/RKHCysxLmS1/CW1j3OiUdt+m668tZpjxu4rNOypLQsCnetd6ZVWqY2He4TeNdYppcbeLflknYtskXs3fjwknWGWNNdFemiYWDfLa/5q8taAALZGfo+IqnABc7U22TUtGPf7y9r13IL8wfmG7JOHHzfOqvqamuQRdHjQclj4hNfF5eBrcEMcf2aW2+ra0REREREwYmzQJdL1azSa1CFTAVzAgWuzIxg1b36ULOSwmynGvUwbCGun1lKoTwVaUOfdpYbjGb0aoGu+Ugxx/jyyjF2sdhusstkiG0IrB/XTulZXRleNbWS4Hxc737YYdNtLE0Gt150aDW28p9TxeQzLDLDbHQPUwxGFobfXfgazs1dh7dk7SxZxypVFYAKg+wG+WHjHqz0KdI+Q0X1mu9a9hHU3W3XuxnJulraBLLWrzK1BgmWCnE1qqKsj6WuunIf0f4PZOhYUBk65vkoME/Qp+60yojrRP2fE6fgeqKvHxERERHFrjgLdKmueef1bnOWAnTBM4I5wQWuggxWGcGlNvODwmun0d1RdpO8WRH4YlX3KrT1MwsvMNfTUC/+5iBZ9dKUzxOpAvRWLIvS2xahV2YmY7YMbslzLjnK4qk+NH0kuzP24eQ7vZ6uiyNOq1OlCsN3X8Kxllq8enYPysVlTt2bnq59dmR9LPk480V2g7QaqZEi665bz/ZLdQYInk7Qsw6l7kh1d6X4ZAQFPdqxT+taK7uFqkl+3f/iSITXzwi0EhEREREFK74CXSrjyTuo5C1lmd61z78L3hCzwSy5MGaJ3imjt80UXBpSO2XAK5zOP0NZvyACc1Za9SCdp70LntcK5fce+SS05wnW9/dxXQamMpLgVDW1MgtUNtclq66FSSh4Tr//+ud6ja3GE/1ana27XrW2Rtos7NZqacki7Xswp2E/1l/9WqvVddGrXldkudICDONodG/sbkesxAI1MZhhZvS6TH08yXZUUKN7LZpsArIGsW/bjiw6HIxuihY1qgJ2Owsw34gKOcOsA9e0sotRzEy70gEtwSnASIJGcKetNeDeEpuisn6duHZNXSUiIiIiGkRcBbqMjCevoJLZgpcxVqtxVY97ft3mVDAn2GLrRtc8FGH0Am2CH0fZr7XAjiy63mVaXrjt7G3Tfwd3zC3Ws70sOBa4bO4Ldf1MjOyyULWcxD2xjfT2qqBfxArQW2tvVN0Xp8kAlvhvV4TeTN5/wToQ5hkIMBZ0f4MjlhlY2XhMXYuEi+5v9G6JzlJstCxun42NeRZF7GNCKAX5FTnq4vZK1JiLYUeSUT8uYxQmeXWrNSRhkja6p9gVtf03sEADI1gKY/2sC3tnYs0yfTTD1oYmfR8RPHW75hVhzRRtkg/r+WLDI5ho2WY77biuvQVDnS8UjTilFdO3K95fgFVa8f/LOGU5oqShYOB132AaPGDERWr9pEz8tFA+9jauc8RFIiIiIgpSnAW6ZM0sIGXtx3CWlZqCMy6kVOxElmeExJ3+GUUBujTa0bvmyeXtxNgFpiyrvFKMEctzylpU8C84H3Y71UiGyFoB59Zyr9pXDmOZa7ch3SrwFsb6+ZldhjGm9dSXKdqhbvsz6nRNRIoK+kW0AL2VC/dxvUPPnpGF5bUeiTZF6D0yRuHxUnOmjLg+Uy9Ir43WGCtSS7Bj8ixT8Xc1cmLhOrwQfqkuf11/xG+1LCQnXphbid3jTSMdps/CRrk8LQJ4Cb81F7EfUV/jC6PN057BcnOwSyvebz9a48KyQhTpb0nkLn3WJlgzFEb9OLGrPZeMAvO+NiEJBWI/03KhOu7jmk0dOS0rUUudS8LEZaOQaQ52aYMo2HeLDH39xqFo3RpsWlWgZ+1JUwqwZvtqrNSe5zJqzaNTXjmJWi1wMQ4r3xDzlZiCF4HmG1FGsEW0+VfFWGjeJlMysdC8Dj6O/1kW1h+H+U8EFzQMx/HaBi14mLt0NXb5vA6bti/Si7ef+c6yEL/Btapo4HW3DUKOjEisn2ZKPubLdQzmsUREREREStLsOXNjqQ9XAC6M2boN6WhDL3JUNz1/shC7Vf0qmUUlA0y299tIqfhYZV9ZaUPXtpfxo1dXwci0006vLPJefcI/mBTm+ulUm23aKmuG2RWWd5QZAT9BtO1mFGpz+UorTcZslSEjAwRN7/TZdgfzfqyPDjHvt0C+uL/j8140+gQhjHm7T0V/1MUZkytRk2cTzeq+hFfFCr6VNw3HGt/EelMNeWM+WaPLa2TFQWWbAlpW3PjwbJXNqIzeBm+DsSz75wxqPdKfwcG5JQMnzV7ENqqzHtFx4YZKVM5TN+RIfq/vsxk9cGgyy5KRnx9gX/ud/X6qmTAKc34xyibL0H4/D379Mj1BqdY2IFe9bb3ZzT8wr7Xgt6tr1RrsWDoOrYf24yXLwJixLPvnHPw5hCnF2PVGod6l0s9lVK21HtFRy5TauwhFbQ3Y/MrJgBlq3ts+gDNHUf6edyF2Yx0sBbFs3/kDboswjeT6ScZz1O+pGqjvRUREREQ0iDjK6DK65tXCvXUL7pyXgaQBvec/xZ1t1kXapUG7E9roqRbPubdedWNUbrah50g13BW+QS5paO3EqZ24ua0aPWIZZp75rIJcQrjrp2vGj6KtXaKtZr0367VlBho9sbf+tGpPdArQW7l7QnUVE2yL0Ct3T/Th/OfGyHhKx0DNrvZhGlFxMBevVqG88RKaZbV9gxo1Udbs+sw8PSJu4N2GN8Uy63DM67ndaHbXorwuuCDXsOr6I1aerRXt9X7R9NElj1sGuSSZXVKvdu3WQ19EJcgltdda7GsQt5vE9MGCXNL393Huoz50iP3TrFvbX+3389DXrxOn36/C5j2XtYCXofVMA6psg1V6QfHNewaWpesU8x3F5rXBBbmG1ZWTeOn1o6K9nWqCrrXtMg7uOR0gQ6gRBw6JeXIKsT4aXV2V5gP71PY0t68T9YfE9gwiCNR8oN7ntYgtQ10/TxfHtgYcYJCLiIiIiEIQPxldeeVwblkBhJWxNIzipZ2R8qCtL1EQPJmETX04WRsrH7GDZ0qRIY62VckS1KybGpWMrpGkZ5NxXyUiIiKi0MVNRpejaL5Wgyq8jKXhEy/tjIi8UozdsgKOKBegJ4o3nqzD/GTMKRvhkRQpDO3Y976sMyXrki2xHT0wFugjGHbi9FeJE+SSXRZll8loZmASERERUeKKn0CXVuC9DX36wIQxK17aGZY8U6H6BTKTqwIpsk6ZTzF+IupHo+zGKK6l5idj9m8cKNYuycgLdVRFGhmy66Ps3ompqNweo8GuKcVYL7v3nalPmICQp7bXmaMJlaFGRERERMMnTgJdLlXUvRW9fjWxYkm8tDMcLoz55TZkVX+sXZxrV2iZaz17reqUEREu9Gk1t643xcl4H+Sv7jBeel0fQRAxNKqh7FrpWrVEL7bfdhlVPoXg452s++Zb3J6IiIiIKFhxEugyCrxfj/HMoXhp59AFU6ie6IH3fT9aavtw8p1edelDy/fqPooPMrPrlcM4HlMZUxlYtXSqlvW0WbZNTU0Esoj9SwxyEREREdEQxE8xeiIiIiIiIiIiogDipkYXERERERERERFRIAx0ERERERERERFRQmCgi4iIiIiIiIiIEgIDXURERERERERElBAY6CIiIiIiIiIiooTAQBcRERERERERESUEBrqIiIiIiIiIiCghMNBFRETxY0oxdm1fgoXqJkWXa9Ua7NpQoG4REREREcU+BrqISMjGxsLXcK7kNRycPEtNo8SXiTXbK1GztxK7VsVBMKNkCXa9UYhceX2KNoWGQe68RahhsIuIiIiI4kRyVnb2VnWdCI6ynRi/YRb6Dv0JvWoaxb4Z45/B/zV9CXY8+v9CxeSntMuS8dno+uF/o/E/1YMCSX8Cr+RNxiPi6iNjk3C9Rcyn3/NASps5ClOXj8Lj/yUZk54cJS5JSEsGuq8CgTdnEvJedGDmPKDjTP8gj40BU2bjxeU5+Im4+pOCJHxf24Qr+j2xR2ZyvTwTubiMql8fxvE7ajpF1e0L/4o/P5SPRQv/Ek8+dBlHLtxV9xARERERxSYGusjEhbTyMvxF15/R9T//FffVVIptMyZXoubRaXA9lKam6B55KBPPZD+FJemdONf+PdrVdEv/2Y3s8UWY9xDQ3PK/8Mad79UdD57MsmTMWDAKqalJaoqUhNRJo5A1PQk9Z/phf6qfhLHzRuFh9ONmPAS67vQgY8FfYvpPgNZD9fj7C251R6zJxJrNizD/J504+Po/4VAQQS7XlAIsWfvXeLViIf5myh38w6nB181VUox1lSuw/v89H39TJi/5mPrQf6BVbJfb6jGxYjjXTwa7vp8yH88szMVDZ/4V/8ogIxERERHFsKTZc+b2q+v0wCvF2OoKpJyvxs3qE2oaxbTxq3GuYJq44saxxn/E+ls39OmCzPKqyCvBU6lufHi2Cu92qTvIVlppMmYvkAGufnScuo9rJ1RQa0ISCpYlIyNDXO+4j/O/u28T7JIZXcmYiECPoVDJOlE7lo5D66H9eOlAwJAtFm6oROU8dcNw5ijK3wuco2gsw1JbAza/chLN6uZIGrn1K8CmvYtQFEPbgoiIiIjICjO6aMCCVXhkbi56Dv/fuHddTaOYtnzyz/BMmszC+v/i/9M2EOSS2u9exuG2Rhzr+BK/T4Qg15RibNqsZ6NEpwtVEqauHoVUca3j8z401pu6KYrt5z7Tj7Qn9Uyvh27fh/uWus9LErL/i3hMd5xkdMWFAqz7r3+J3LYG/LfdjYNmViXduIPGpn/D6QZxuTEO8wvEK3rj3wJnPIl96//6u0fxE3Si/tBn2L3tGH5bexr/cOYOpk5/FLk5OVgUZNZUtI3c+rnRKrswFj6KcbdO419a1GQiIiIiohgThxldLozZug3pN/WsI8eCcqQvWYGULP3e3pv16PpgJ3psDsJlDSrnYnHeuu1l/Cgfk1eKsb8sE/Pn6A8Q89+xmj/PhZRlv0b67Bw41CT52K7Dn+DHU1a/bQ+tnZJjwcsYu6QIDjUP0IaeI7Xoqj1hWz8rtPUT92013ReQmK9CzKddV+uWZZ5mIa8czi0r4BhihpiRZdPxeS8aL6iJflQmTUY/mt7p8++mN0Hc/+QoZOQnaYEMqbujHx0n76PlgvVbQF8ucP2jPrTInnxWz9HUh29rA3VlC1H6LGwUr9nTTqfYyrrm7kv4suU43jVlaxmWT38NbzlloGsPVl71v9+aLDy/Di8YK+Ej4HN5MsgCs30Om/X77aX9+GyQYJx3JovswrYP+yJZUGpmMoqfSwqcsWU8RrzuJ8XrbkybUyz2CZntNRjzfEOWiYWr5qOscCpyPW/hTrSeqcfu2kY0+20bWXh+NVbavN0DZkuVLEHNuqnqhj3b55hSgDVlRZg/b5xeSF5obbuM2vcP4/hgr6FadjDZXH6Mdg+S8WTsW9bLUJlM0djnhmq410/WSZODAQSRQUZERERENFLib9TFvGKMzgJ6MRFjKnbCuXYgeCQ5soowdstOjMlTE3w4cuRZXit6W/SgUNaWCu9Aj3wun+CTDDg5t2zDWHOQSxLLSl+7Dc4y45TdZEjtlAGoj8U85iCXlIOUxRVwbi33bodJSOuXN1E8v81Zr6+b103BtWb0nG0T/3PhsNnOWjDslytEO+txZ4jdIO9e6ke3+J9RPAreVahMZo7CxAyg+9R9nyBXEvLKklH8i2RMNAWopNSMJEx8LhkFM9WEAGTQy/I5xCUyQa5sbJxeiXNzy/CCKQgkuVKn4YWCddg9Xk0w+cx9SfvvyluI5ena1Zgla4nZrd9bc+Voj9lqyshIc+r/u78NELhs1/dF5I9CpjZBF1SQK6IKsGn7alQuNQe5pHHaCHk73liDTavMLRw5sstczRuLsNIU5JJyc6ai8g052mPgdi78Kxlg68Tpr0IMcgWtAAu0AOpl1FoG0hpx4FCn+D8OkybpU+JLBNfvShNOy4/+eY9hoT6FiIiIiCjmxF9G14KXkbW2SN1oQ8/e/46uU816EEbLXpKBHXHdMotIZSLhU7gPT9QCSb3icXd+f0ILDMn7UxYAPeYMLdPytMeK59QDPi44yp6Hc7G8r20gg8oQdjvFfbJOlpG9VW+0TRDzjRHzpYv5evb+HHdOqekeYayfh1ruTTHv1hpTUMuGWr/eI1vgrrV4vsHuD8lAtpYnu8pHZpkD+fkW96sMHJm9df3399H+vbG7JyGzdBTyVT0mqywwTyZZU7+WxQXxHE0+z5E2oR93I1G3XWVK6dlNx/FZl5ENla11T3wrT0ZhLuHVuv34TL/Dw8jq0oj5P7TJ/hqMVtReLCe07DDDQJaY5fzmWmItJ1B99Wtc1O/BDHHfDnGfS9wXsJaY7Lr4q0IU5dhlpgyNvg/JbouBMwcLfpOMDLHPWO+L6v6AdbyGzlNvqe0yqryyojLhKpmP9cumAg3BbaNQ6l/5G8gSs5zfkwkmu8zV48CBRk9tJ5e4b724LzdgJpHx/GI914r1VFODFkzGk02WkgzGej651PNEY78bkhFYP31/QexltxERERERKXGX0eXIUTkBMiBT8TLuGMEjSZxA3/ngU/121kSLrKc8JGsZUvMxdm0uevZugVsGrjwBqmafIFCpeJwerJKBJe2x2i1JLLd2J9xH5M/bORhd5J3VFW47UypkkKsed7aJeWQXRXPwTMz3o5rPkeO9PF2o62cis7vkf6/MrQBOfaV1WXTkWKV0qe0m1v3OkINcUj9aTsrgUhImPikDUz4mjMLEfPG/ox9u38DDhT6c/6gX537XZwpQSf1oP9GHpib9VuoE/b8VGeTqPtWHkxbPEZEgl3RrP8rPvomVDbILnzlIdAOfXa3Cq1rpnEw8ZpG19dk3b6K85ZJ+0qqyv86VVGL35FmYoT0i+pZPV0Eud61FkCwbG/P07o7HGquw3hTkki6KdV/ZKDPTnHjaGSCr68pJvP1KFcrXVkUh2GB0PexH9yBP3d2hrsSA1obTPl3/2tFcdxgvie00HAGZhRtUkOvMUYvlZWKNDLgJ9Xv24W1TkEvS2rnnsrg2DvOfsMvqysAkmbHW1omr+oTIm6RnmrW2Gi+s7MpXiR3i4sk2u9aJVvEvN3fYU/eGLirrF6/ZbURERET0IIjDQJd21oOuD2yyjloCBGqMYE5WDnr36sGnQBxlZUgR/2VWkn/2lK63/rQKPHkHfMJrZylGz5b/ZbfGj5FVbXGRNa+0x1oIcf285Orz9jQE282wBX03xT+LgKKx3XoOB5EZFqwL96Gdpvl0GZPSpundCWW9LasMGk8wakISMmeOQkFZMua8mIzi3+gZPFqQI1DvqaY+nDthDnBFx0Ujkyk9G8vHP4Pd0ytxsLAS50qMjC0nHrXpu3nx6n6srHsT5Y11OKb1rXPiqbwy1MiA1/jodgn0ZJTJINc3X+sTzdJn4mn5AnXXodqygLtw6yKOiX+uzJnDFpyLZ81fXdYDE0ufxaZVBXBN0acPJ0/NNBnkssommpKP+drHYAMO1OmT/NR9h3rxL7cwX8swigklj4lPYF1cBrYGM8T1a24dbDgAIiIiIqKRFWeBLpeqWaXXoAqZCuYEClyZGcGqe/WhZiWF2c4FT2gBorCFuH5mKYXy1KcNffLsOSjN6NUCXfORYo7x5ZVj7GKx3WSXyRDbEFg/rp3Ss7oyvGpqJcH5uN79sMOmu1maDG696NBqbOU/p4rJZ1hkhtnoHqaB1mbI4Fbhazg3dx3eKijBU7KWVarRJzE4F2/9Eesb3sScs7X40C0b7sRTNvW9IkF2dzSCXOVWQS4pLVMPYqSWoKZErJ/lpQxPaQ8eKf0qU2uQoKcw/PW4LFw5iZdeb0B92zgULZU1uSpRs1dctsvaXNEPfMnua0aQa7NdlzmVSYScQi17SGuf30UWQY8NnqBP3WkclIm6srvln23WLQ4l+voRERERERniLNCluuad17vNWQrQBc8I5gQXuAoyWGUEl9rMDwqvnUZ3R9lN8mZF4ItV3avQ1s8svMBcT4PMxchBsuqlKZ8nUgXorVgWpbctQq/MTMZsGdyS53hylMVTfWj6SHZn7MPJd3o9XRdH3PjVqJHBLS3z6RKOtdTi1bN7UC4uc+reVF0XQ9D1Nd79pgrlLfqMT+U9E/FMKaOml8zUkkEuc3fEeHTXrWftpToDBEEn6NmDUnekuq2Gy+jK+fp+VB26jPq2TrTmDAS+dm0o0AOMETZQH6xBC3KF+mkTc1S3vQHt2Kd1kd2Ht41MNL/uf3Ekwuvnyn1EXSMiIiIiik3xFehSGU/eQSVvKcv0rn3+XfCGmA1myYUxS/R8hN420+nekNopA17hnJ4OZf2CCMxZadWDdJ72LnheK5Tfe+ST0J4nWN/fx3UZmMpIglPV1MosUNlcl6y6Fiah4Dn9/uuf6zW2Gk/0a3W27nrV2hpps7BbFWr/sHEP5jTs1+pYyVpdF73qdYXuovubqAQivIJcDX8MHOS62663wV2rBe0CXgZ7rii6q4KJqY8n2Y7uaXSTRZNNYNUg9lHbEUIj7Uo7jh84jLdf2YeX1srA11HUt0EbfXF9hEde9ApyvXIy8L5lBFhkEXTZrkAX2+fqwDWtDOI4TNYnRN6VDmgJTgFGEjSCO22t0a97FnFRWb9OXLumrhIRERERxZi4CnQZGU9eQSWzBS9jrFbjqh73/LrNqWBOsMXWxWmX1jUPRRi9QJvgx1H2ay2wI4uud5mWF247e9v0390dc4v1bC8LjgUum/tCXT8TI7ssVC0ncU9sI729KugXsQL01tobVffFaTKAJf7bFaE3k/dfsA6EGdk5MaH7GxyxHC0xG4+pa76WTx+kBpfRbTCC5CiJepDrEl4NJjDVdQFfylQ8Zyk2WhTTD5ocdXG73uXNU0Q7kow6cBmjMMmre6whCZO0UTrFLqXth4EFGuDAUgjr5yoJkK11pRFv/14WeTd1V4sAOUqiZ6THwYJc0pUmnJYRlnlFWBN2V8p2XNfeEo9gYtS6Yzbi1Bn5fyrKLLd7AVbJ9cZlnLKrNaYpGHj9NhSoabEgUusnZeKnhfKxt3GdIy4SERERUYyKs0CXrJkFpKz9GM6yUlNwxoWUip3I8oyQuNM/oyhAl0Y7etc8ubydGLvAdFqZV4oxYnlOWYsK/gXnw26nGskQWSvg3FruVfvKYSxz7TakWwXewlg/P7PLMMa0nvoyRTvUbX9Gna6JSFFBv4gWoLdy4T6ud+hZN7KwvNYj0aYIvUfGKDxeas6wEddn6gXptdEaY0VqCXZ4jZSYrQWVDhauwwtWpbrSn8HfOvUaXAcLV2N5unfAS5tXyxQDjrVEKFNK62Ipn1MGufbjM33qIG7g3RZ9VMUX5qrRIL0CXtlYPlm0tUSsg5piZWFZIYr0t5ZWhD384Ikdow6c2GWeS0aBeZ+ZkIQCsb9oYaOO+7hmUw9Oyy7UusMmYeKyUcg0B7u0wRDsu0UGvX5TirF+3SLs2LtG7544xTt44ZpSgE3r9NEOI9bVTga5tOeUQa7DOK5PHUQ79mkBt3FY+YZV7bBMLFy1BLv2LrHNNJKO/3mwkRmH7nhtg5Z9lrt0NXbJduqTxbaWwStVR+zMdwHX27WqaOD1G1JwL/IisX4aY4CBYB5LRERERDRCkmbPmRtLfbgCcGHM1m1IRxt6kaO66fmThdit6lfJLCoZYLK930ZKxccq+8pKG7q2vYwfvboKRqaddnplkffqE/7BpDDXT6fabNNWWTPMrrC8o8wI+AmibTejUJvLV1ppMmarzBoZWGh6p8+2G5n3Y310iHm/BfLF/R2f96LRJ3hhzNt9KvqjLnq6AlqRmVNiBd/Km4ZjjW9ivXnkwvRnsHuaqu1lo9luNEQfRhuaW/Zg5VWLzDKxrINzSwZOkgOx6NIYcB0lsZ4fXtqPd43RJ314RvnTdOLg6/uwLwpZJZllycjPD7DP/M5+f9NMGIU5vxhlky1ov7+Gsn6ukmKsWjYQGLMUTPdCweiO2HpoP146YNGyKcXY9UahXlh+MBbL9HR3tNN2GQffPxzgtSzAJlm0Poj18d6GAcjulD5F9AO2M4hl+85vuz2HYCTXTzKeo35P1UB9LyIiIiKiGBNHGV1G17xauLduwZ3zMpA0oPf8p7izzbpIuzRod0IbPdXiOffWq26Mys029ByphrvCN8glDa2dOLUTN7dVo0csw8wzn1WQSwh3/XTN+FG0tUu01az3Zr22zECjJ/bWn1btiU4Beit3T6guZoJtEXrl7ok+nP/cGFFP6Rio2dU+TCMqDubi1SqUN15Cs+ziZ5CBH1Wz6zPzdLMuOcriHv95hWYZIDu7J6ggV1CG2A1SrqMxGqTXXtrt1orvl4v1tAtySTIrRdaekloPfRGVIJfUXmuxz0DcbhLTBwtySd/fx7mP+tAh9jOzbm2/s99fQ1m/5jq9EP3mPXKeTjVV1yoDR3v2BxW4CIoxemKYmg/s0+qGHTzjUxRdtLv+0FHRzkBBLqkRBw6JdcwpjHjNMTPZTv/tabRx8G3ZfKDe8/rFoqGun6eLY1sDDjDIRUREREQxLH4yuvLK4dyyAggrY2kYxUs7I+VBW196oHgyApv6cLI2TpJfE1Im1mxfjZU50cvki5iSJahZNzUqGV0jSc8mi4PtT0REREQPvLjJ6HIUzddqUIWXsTR84qWdEZFXirFbVsAR5QL0RCPFkz2Yn4w5ZcM4kiL5aMe+92WdKVnvK3BNr5Gmj2DYidNfJU6QS3ZZlF0mo5lJSUREREQUKfET6NIKvLehz6vvS+yJl3aGJc9UqH6BzOSqQIqsU+ZTjJ8ocfSjUXZjFNdS85Mx+zcOFGuXZOSFOqoiDc2Vk3hpz2W0Yioqt8dosEsOFCC7952pT5iAkKe215mjCZWhRkRERESJK04CXS5V1L0VvX41sWJJvLQzHC6M+eU2ZFV/rF2ca1domWs9e63qlBElkAt9Ws2t603sujji6g7jpdf1EQQRQ6Mayq6VLjmCpCza33YZVT6F4ONdq0VxeyIiIiKiWBUnNbpKMba6Aik3P4V7ayxnD8VLO8PhPTKjLFTf9cFO9DDIRUQPPH1kyJwzR7H7vcbIDAJARERERERhiZ9i9ERERERERERERAHETY0uIiIiIiIiIiKiQBjoIiIiIiIiIiKihMBAFxERERERERERJQQGuoiIiIiIiIiIKCEw0EVERERERERERAmBgS4iIiIiIiIiIkoIDHQREREREREREVFCYKCLiIiIhseUYuzavgQL1U2iB4Fr1Rrs2lCgbhEREVG0MdBFRBRV2dhY+BrOlVRiY7qaRBT3MrFmeyVq9q7Bmilq0mBKlmDXG4XIldeDnYcoQeTOW4QaBruIiIiGBQNd5MVRthNZ1S8jRd2mWGUET17D7vFqkqVYC7Ko9hQ+gxlqCg2/tJmjUPBiMop/41CXZBSUJiFN3W8vCXkvise/OCqIxz5IVNBnezFcagr5kJlc66YiF5dR9cphHL+iphM9AJoP7MPmQ53AvEXYtSpTTSUiIqJoSZo9Z26/uk4PPBfGbN2GdHwK99Ya9KqpFJtmTBYn1nlONLfswcqrN9RUH+nP4ODcEri661De8EdcVJNHjgx0rcMLiJX2WMnG8skL8bd50waCFt1uHGs/geqrX4fRZrXOqW58eLYK73apySMksywZ+flJ6paPjn40/a4P7eqmPxnoSsZE3Mf5393HXTWVZKBrNVaiAZtfOYlmNTW2ZGLhqvkoWyqDTUpbJ+ob6nHgQGMYbVbrnNOJg6/vw76AgatQHqtzTSnAT8uKsHLeOODMUZS/16jusecqKcaqZYUoylETINbv0ODrF+58I4HbxVq8bJeFGypROS/49wERERGFhxldZJKH5Czx7+Z1BrniwEX3N9pBtStzpn12VFqmHqy5eytGg0oxJv0Z7C5ch7fMQS4p1Ymn8spQE+fdD9NKjSBXPzpO9eH8O704KS8f9aGjQ0zOSEI+s7USz5RibNq+GpXmIJeUMw5FSxdhRyjdD8PgWvUsVuYArYe+GPTkXgYCavZWYscbi/SgRZBkDaQd68zBB0mtX4BMu3DnG27cLtbibbscf+8o6sXjV/4qdrYhERFRImKgiwYseELrstjTcEK/TbGt6wK+7Bb/U6djsU3wZblzmvb/mPtr7f/IG49HU9XVmJONjdNK8FSqG8daalF+9k3MqVOXs7U4Jrc1nHghb5b26IjTghH6SVt0urYkYdICPZOr4/M+NJ7oH8jI+r4fjb/rg4x1IWMUJs3UplpKzVBXyCQDk7xOfGNJJtb8Sp6Yy6yTo9j8ehXK16rL6+Kku00+Rpx4l0WrdlABVi0dB7Q1YPcB+1xBw9Xao6jaoy6yq1cwxHtnvVyGllmzH5t91y+nEDusaiOFO98I4HaxFn/bpREHZDvFY1eVqElEREQUcXHYdVF1r7tZjZvVJ+BYUI70JSuQIjORhN6b9ej6YCd6WvTbvmQNKudioGvby/hRPiavFGN/WSbmV2cpYv47VvPnuZCy7NdIn50Dh5okH9t1+BP8eMoqWX1o7ZQcC17G2CVFcKh5xJkCeo7Uoqv2hG3GVWjrJ+7barovIDFfhZhPu67WLcs8zUJeOZxbVsBxXt8G4ZJZKLPFCXrH571ovKAm+lFdqjL60fSORderCeL+J0chIz8JRpylu6MfHSfvo+WC9VtAXy5w/aM+tHwvJlg9R1Mfvq01BQyGKn0WNorX7Gmn0/Nrb3P3JXzZchzv3vLvnhi4++Is7C4pw1O4hFfr9uMzNdWLzfJ+e0k8PmAXu2zMGL8QO/Iy4Up1qmluNLtPYPM3Pt37xq/GQZkhFUyAy12LOWJ+XzPGP4OKPBmEUhPslmWibxsMdBe0WlexPK/nSM/GctywXvdBu4Ea22RgXZvddfhtyx/Fe+E1vOUM3HVR79KibogTqYh3bZmZjOLnkoCOAN0OjceI/fqk2K+NaXOKxT4fTIDLPF+YtIwJcTJZv6cKb9epiX6MrnCXUbX2MI6rqR5TCrCmrAjz543zZDC1tl1G7fuD1YYS+3PJfKxf9ghyc+QJrdSJ1jP12P2eT7ckWVh92VTxOHU7EJuuVFZdoCyXZaJvHwzsH1brKpbn9RxTMrFQfCparrs4edcKxLfZdbs0tsnAuraeaUBt7UmgLIhuWGI71aybitZD+/FSEIEuL2rewbqiGe8d62UUYNPeRSiyeE+FO9+I43axFi/bxXjPDdJOIiIiCl/8ZXTlFWN0FtCLiRhTsRPOtQPBI8mRVYSxW3ZijDjBteLIkUfqreht0YNCWVsqvAM98rl8gk8y4OTcsg1jzUEuSSwrfe02OMssEtCH1E4ZgPpYzGMOckk5SFlcAefWcu92mIS0fnkTxfOb7gvEqztjM3rOyp8vc+Gw2c5aMOyXK0Q763FnCEEu6e6lfshkmoziAF2qZo7CRHEi3n3qvk+QKwl5ZeLk/RfJmGgKUEmpGUmY+FwyCgJkrxhk0MvyOcQlMkGubGycXolzc8vwgikQI7lSp+GFgnWWRecDdl8cPwNPyf/ui5ZBLhkIslveW3Nfw8HJ2WqKj/RZWve+mgIZ0DGCXJJ4Hqd1976gglyW9OL1NQXmIJdkvywrtusqLl4Bqy6bIJdkdAO1pNfh0reJmiS4nCViW1bib2OgL2Caeqm6vw0QmG3X32vIHwVzTtlwZnE1f3VZfIIBRcsCdO0pma+6wp32C3LJQFCN6sZk7qaXmzMVlW8EyJabIk5Ut6/GDlkw3RPkksTzzFtk2b0vqCCXJRmoq7TsAmW3LCu26youXgGrKzZBLmmS97ze9ICivk3UJCF3XqHYlmtQZvMRYbbwr6aKv504/ZVvYCBSCrBgnvx/GbV+wQdJZdCIbTtpkj5FF+588YLbxVoMbJcrTTgtD6HmPYaF+hQiIiKKsPgLdOVO1II8jtkrkD4b6Nm7Be6Kn+OmvGyrRs9N+aAcpC8rlVd8uPTAkQzayODV4hz0nq+Ge5uav2IL7uz9xDtDST5OBpzEVe2xxrLEY91H6rWHOBb/2j9gFXY7SzG2WganZPaWuW36fF1yvizxnAv0R3sLcf1aakzrI9okp9381DTNdPEpTt/bJk9FczC6yOZUdMHzSBdt6T3isz3D8X2/p36Qc4I+yVdmgao7dMknm0QGwPKTtOytpo/69HpE2qUPTaf0x2Y8l+x1Uu8tCalP6hllWqFun+c4/y9Dy17xGL9QC8LIbKpXz+4Z6DJXtwevtri1hzxVsBrLtWsmXbegnb+mZiJfmzBghpgmWXZbHL9aywSTmVFaNz3P8t5EeeMlPXiW9zOLINIs7J5bpgedRFs/bPRtq5zXiUfNgZ1b+02PqcUxOU1mRXmmmS4+2VwzJv8ML2iBI9FO87LO1uJDoyvhXIvt4iHakqfW1WLblrcM3qVzhszymrwaBwtkN1A3Przkn821fLosNi+vebezXOvy6Awq0He8tkHv/iIEU8soVGlOvdtitzvAPivea9pmFVKN99oF731e694os8I800yXIWZzaYyTwJyp+KlNsMc2eFKyRMsGk/dp3fSMrkXisnmPHkDLXfqsRRCpAJveWKQHndou4+Ce/Z75ytfuR9UhOa/PCWzdYdNjjkL7NpBZUZ5ppotP1oZRs0prp3lZrx/FQW0fGIeVbywJcBIs2lKm1lW0t+p17/Zurh08S8Qls7xWLdFGQpTtOPi+fzbXwg0ya05e827nZq2r1rggAn2ZmKgFw27jeoT3Z48pGeKbSDjznVfQ0/zN1Nx6W/ufk2v6pA93vnjB7WItJrZLO/7UIINij2BiFGvjERERPcjiLtDlyFG/PWsBmZdx51TzQACm5QTufPCpfjtLDzR5U8XWMR9j1+bqwafqE1r2k64ZPV7dEEvF44q0az17f64/VrslieXW7oT7iHZG5hfwCbedKRUVSJFZUNvEPLKLojm7TMz3o5rPkeO9PF2o62cis7vk/2AL0Z/6SgtgOXKsUrrUdhPrfqfWZnkh6UfLSXkCnYSJT+on614myGCW+N/RD7fsYmgmTtLPf9SLc3IkOXESP6Af7Sf60NSk3/Kc1FuQXRW7T4mTfYvnuOu7vHDdEieRZ9/EygbZZdDcBfEGPrtahVe1WFcmHvMLPH2NL7T7puFZr4yvbCzOlIGsS/jilj5lQDY25qnaXY1VWO8zkuBF0ZaVjZfENSeednqnbMyYXKpniWnd9/b7dKeUbRXznt2D9X7LDEP6M9ihgnGyy99687K6vsa7DXtUsGsa/tYu+0x4yjlN69o5x2LbXrTL3pLdFEtewzlxqZkri9OLExe3DAhadD0Uj/1bLVvKv50XRTvXe9o5iCsn8fYreiDBv1vMUBldD/vRPchTd2uRrJHUjn2/vyz+29SNmlKMMplZ0XYZf/IKnmRizTIZtAHq9+zD2z4joDXXHcZLe/Tnnf+E94moa1URtE96rfveYeyrM2+kdhw/IOZ9fX+ArpQhMNX5kV2c3jYv60oj9r2yXwW7pqIsQK22onl6d8By0d7jV7zb22wXVJJdpvYaxbtlcfpHxIm7DAhadLUytrNFO5tFO9/2tDMQVbusrRNX9QmRpzLSWluNHVd2IRPrZ651d61TD3LmmlITw50vXnC7WIup7RKvWXFERESxLw4DXdpRM7o+8M4w8mgJEKgxgjlZOejdqwefAnGUlWnF2XuPbBGP1af56q0/rQJP3gGf8NpZitGz5X/ZrfFjZFVbXGTNK+2xFkJcPy8qAy34QvQt6NOyy7wDdZKx3XoO26x7OC7c1zNJfLpUSWnT9O6Est6WVZcsTzBqQhIyZ45CQVky5ryYjOLfOJCvpUGJ+X2f1KypD+dORCBTZRCeoIvMIBr/DHZPr8TBwkot2PKWFkjxyZRSPnPLoJQM6JiKpKfPxNNyo1h1WzTu665DtV1A6tZFLfPKu0ukETyzzmry8AomDYHRVdB9wqau1Q2826Kve8CRJ921FvXLQuWEK20GFo+3CKgN2k4KWd13eoaURdce1xP6yIH1v/fJQJqSj/nax24DDtgFpNTz5hbmmzIxMvHTQhV4sshq8vAKJg2BOmHGmXqbrD0j0OfbTh9njkYgICrakv0Yflpi8QE4aDtjVMljetBSCCkQE+588YLbxdoIbRcj+4uIiIiiI84CXaprHvQaVCFTwZxAgSszI1h1rz6EgJEmzHaqUQ/DFuL6maUUykO2NvTJnyOD0oxeLdA1HynmGF9eOcYuFtvtfHXIbQisH9e0roZJyPCqqZUE5+Oq26JNofo0Gdx60aHV2Mp/ThWTz7DIDLPRrfccjDpZcH134Ws4JzOIZE0qWU/KqwaWDRWUgnOGpwvfDOd07QTZstuiEZhJLUGNylryv8gi9r6MERPb8d0wBHSMrpfNdwOkh91t1wMTFl03DQHnt9P1R6z0dD80umTqtdJ8a5cF1c4R168ytQYJ6gqxMaqiUe9mKhZ4jUxmBKUu45RvMMsIzMiRz/bqWUv+F1ks2pcxYuLt6HWvM3HlPqL9H8gMsaAyQ5AzDpO1Cf4Czm/nykm85Ol+aHTJnIqV61YPZKUoQbUzhniCDXWnVaZZJ+r/PHgXznDnixfcLta4XYiIiBJbnAW6VNe883q3OUsBuuAZwZzgAldBBquM4FKb+UHhtdPo7ii7SfrVyPK5uC26BIa2fmbhBeZ6GmRuRA6S9WYLkStAb8WyKL1tEXplZjJmy+CWPDaVoyye6tPqbJ1XtbaMrosjTtbMMgqud1/S6mbJelIyyCKDLXrXRTtG98WBro35WuVxN/4tYsNBPrguygL1skum6oJoXbss9t1VtblSVa0uSxP07EipO1LdcsNkWZQ+QBF6Ck2zLFAvu2SqLojWtcvigBEU9GjHPq0LsOxuqSb5dTsTwp0vXnC7WIuR7WIEkomIiCg64ivQpTKevINK3lKW6V37/LvgDTEbzJILY5bo+QG9babg0pDaKQNetp1VAhjK+gURmLPSqgfpPO2NZAF6K9/fx3UZmDIVpbctQq9JQsFz+v3XP9drbDWe6NfqbN31qrU10mZht1HoXBYyb9iv1c2S9aRkkCUYevdFo6bWLDwr41zd3+CIVeaVkQXlrvUUTbe9NFh1UbSqFRaiABlYvlxpFsNNGozstO52RD9meQNH2mVE0b92mRSwnTHgrgqWpj6eZDt6qdENGE02gWODeA9GfSDJKydRe0b8NxWlDziCn3EiKofsV1lLtpdXrLooRqAwdIAMLF+ezBAr6oQ5qrWtPIzC2P61y6SA7RxUB67JrJcQtkvIrnRAS6wJMIKdEVRoazXtN+HOFy+4XazF1HbpxLVr6ioRERFFVFwFuoyMJ6+gktmClzFWq3FVj3t+3eZUMCfYYutG1zwUYbTlCIeiPWW/1gI7suh6l2l54bZTH8lQzD+3WM/2suBY4LK5L9T1MzGyy0LVchL3xDbS26uCfhErQG+tvVF1XxQn5Np/uyL0ZvL+C9aBMCN7JSbIwJRXcXdDNh5T12yZa2qNn6F1O2xuv2BdR6vrAr6UqXHO0hAzk4zMMSdemPaMfU2s9Gz7+zwGD5ZddH+jByNs2zlQVN92XUMinm96gPXy1CgT5zzdpoLznnYOdB31km50+RzElGJs2q53sfPtRhYRRp27jFGY5NX915CESXJ0UaFDe58FFmgAB0thrN/xP5uLx6vh/f2K0CueIfuLQsxMasQpGVATy1n5K1P2mK8pKqga0ODBMiNTzb6dA0X1WxuaLAJyoRLPtyHAeon79e6g3ifoA+20ObGfYnT5DKQd17W3SjRHlzNeP7vi/QVYpRX/9+3uGu58vgoG9usNFoMnjBhuF2sjvV0k4z13e1i6SxMRET2I4izQpR9Vp6z9GM6yUlNwxoWUip3I8oyQuNM/oyhAl0Y7etc8ubydGLvAdJqQV4oxYnlOWYsK/gXnw26nGskQWSvg3FruVfvKYSxz7TakWwXewlg/P7PLMMa0nvoyRTvUbX9Gna6JSFFBv4gWoLciTtavi7N1mZUiC8trPRJtitB7iBP7x0vNGSji+ky9IL02WmOsSC3BjsmzvIq/zxi/GgcL1+GFQUt1qSBUaiYqnPIg3I0v3XbZYEYRdydemFuJ3XKZXoGkbCyfLJZbstovcPNZS51+4i3rexWuxkav4uyqvXPXoWa6qTC+F+9g2XLzcrUi/Kbn6/ojfms8VrbTfF/6LGyU20ULIF3Cb4dcbF6OKPkzsZ1l3TJ9WeaA1wyf5XmNZGkEDjENb4ltYl4nfXtY1Tvzt7CsEEUqcBCdbmRGnTvxlnguGQXm98SEJBSI94OWu9NxH9ds6t1p2ZNa6lwSJi4bhUxzsEsb7MG+W2RY66fq4Mii7AtV8We/IvQe7QOjNb6xBptWFcDltYxMLFy1BLv2LvEL3ByvbdCDOrK+1/YlWONVnD0TrhIx3xurscP2hN04CdaDZQvNy50ilmt+PiNTzWin+b4pBVizfbXWPVOeMNdGYPRN16pnsXKerFumL8sc8HL5LM/rBN0IHIoT+0qxTczrpG8Pq3pn/ryDldFhvH65S2WtMfG665O17blpu2rnme/8uruGO5+ZNmKnsV+HHGSNLm4XayO5XTTGwBnBPJaIiIjCkjR7ztxY6sMVgAtjtm5DOtrQixzVTc+fLMRuVb9KZlHJAJPt/TZSKj5W2VdW2tC17WX86NVVMDLttNMri7xXn/APJoW5fjrVZpu2ypphdoXlHWVGwE8QbbsZhdpcvtJKkzFbZZ7IE++md/psu1l5P9ZHh5j3WyBf3N/xeS8afU7ujXm7T0V/1MUZkytRk2cTzeq+hFfFCr6VNw3HGt/Eepua517P0V2HcstuhwMCLlMSy/3w0n7/kQTTn8HBuSUDB/l+3PjwbJX9CIQB5xfrWrffNFJktinAZMV+Wcb6NbfsCXrUxRmTV2OH2M6B1u1YY5X/axBonWTNtbvT8JQz8HZZuKESlTJjSdOJg6/vi8pod5llycjPD/Ce+J39+0kzYRTm/GKUTTak/fsx3PVzrVqDHVqmhHQZVWsPD3KCbX68hbbLOPj+Yf9lTynGrjcK9S6DlgZpc8D5fdudaQowWbFflrF+rYf2Bz3qomvVEqxfqo9Waa0T9XtMtYYMgdZJbMf6G1NRNG+w17IAm+QgAG0N2GzZZXSA9z4SgOye+p53AfCAr3uAZYc7n8F3/lBel2Bxu1iLx+0iGc9Rv6fK/z1HREREEZGclZ29VV2PcbOQ+n/Oh+Pf/gduvfNP6Js8E46sn3hS0nrPf4p//+AN/PtX1kM2O+b/DdLyf4L/+F8f4N51NTEIvX/+BPfaXfiLnFyMGqMm3mxDT93/wJ2de9Dzg5rmMbR24vqf0HX+ezgKJsEx5idqomm+f76K+2qaWbjrp7uN//if9UgSbf0L0VZD7816/Pvu38iEFVv3uzKQUjpNrF897myNcjaX8p9XgbQn9RNtWYT+coAiNv95tR8dt5PwsDMJDxln5uJk/vqX93HhD/dxd8woTHo8Cd3f3ofbJ3jx0JRRyJqUhN7r/bgZ5UI57XdO41hPNv4qLROPPKQmykDT5X/C2u9OofEv/lLL1LriPo7DNulr7b0/wZLsyZBVQppvHMF/v/OjfocNucz3OzqR8tB4jEtL0+bTdLtx7MYfsPmbL/H7/1TTzP7zMmpaGnE9aQwe/QtTe+FGs/sP+NWZQ9bzGeT8Yrkzx46H66GBPLtmsb7/dPk4PrprbvePONl2XGwbB8anTRaPV5ODWNb4sfPxN2PTcPuHBtQMsi0M7Xf+t9Y2q23S/INYXuMh/D9Wb121TnK+eWI+ndiOLfp2/HPa/yHaApy9cRonbdp75UYypk7PQa54C7Ye+gw7/yU6Iwnc/cbiPYF+dDfdx8V993FHTbHVJd4PTf1Iy0tCaupAwKxbvK++F++rGzaB2HDX7/aF/8DUske1YEvroS/w9xcCz3f7wr/iH87cwUOPjMPDOanwfKK1daL+eB127z6F/2W1kneu4UjtZXwv9smJPxmHn3hm7ETrmTr8t1eOWc9nkPOL5U6dPk6s40AYsLXtMv5YcxqHWsztvot//efT+POtZIzL1beJbvBlPfKXs7CoIBX//u3/xpFBtoXh9oUmrW1W26S1SSzv/WP43GKAVmOd5HzTxXw6sR0P6dvxwuR80Rbg0v/8V/yr7bZxo/Uh8bjCRzHzocsB2zyleL6e6TKYG/+Gfzilis4p8nXXt2eKafsbbT1nG3wIdz6Dtn8uEPun2qihvC7B4naxFo/bRQZ+1/3Xv0RuWwN2f3hNHH0RERFRNMRPRldeOZxbVgBhZSwNo3hpZ6Q8aOtLlEA8GY9NfThZGyfJvRSHjAy26GUqjriSJahZNzUqmUtxjdvFi56FlsDvAyIiohgRNzW6HEXztRpUtgXeY0S8tDMi8koxdssKOKJcgJ6IouPuCVWgPj8Zc8qGYSRFekC1Y9/7sr6RrEvmXyMtEegj7tmMCPoA43YZILssyq6WMjOVQS4iIqLoip9Al1bgvQ19shJoDIuXdoYlb6ACkWOBzOSqQIqsU+ZTjJ+I4kU/Gj/vh6yln5qfjNm/caBYuyQjL9RRFYkCuXISL+2RIzmq4vZqckKYUoz1sm7TmXoGMMy4XTw8tb3OHGVmGxER0TCIk0CXSxV1b0WvV+H3WBMv7QyHC2N+uQ1Z1R9rF+faFVrmWs9e32L8RBRXLvTh3Ed9uN7ErosUZXWH8dLr+sh1iKFR+MKXCVnoXyvY33YZVT4Fzx9c3C5WWi2K4hMREVF0xEmNrlKMra5Ays1P4R6mgufhiZd2hsN7ZEZZqL7rg53oYZCLiIgeSPqIkjlnjmL3e41BFCJ/UHC7EBER0ciKn2L0REREREREREREAcRNjS4iIiIiIiIiIqJAGOgiIiIiIiIiIqKEwEAXERERERERERElBAa6iIiIiIiIiIgoITDQRURERERERERECYGBLiIiIiIiIiIiSggMdBERERERERERUUJgoIuIiIiIKFxTirFr+xIsVDfpATHI6+5atQa7NhSoW0RE/vg5ET1Js+fM7VfXiYhohCzcUInKeeqGl8uoWnsYx9UtokhwPZ6OVfNGo+iRZDUFaL19D6fP3MW+b3vVFIpV4b1+DqxZPQ4rHxGPPfsDXvrqnppOQ1KyBLvWTUVum/isfl98Vl9R0weTV4oxy8owenaOeGV0vec/xZ3qGjyo78CUip0YK7ZH7/lquKtPqKkxKojXXZ7A7lg6DjhzFOXvNaqpwyUTC1fNR1mhaGOOmsTjCYo4fq9I3sfwnWhtu43aIL8Pwvmc4DlDcJjRRV4cZTuRVf0yUtRtegCkP4ODJa/hnLgcnJytJhJR7JEHlONR83fisjodLjUVjz+sTxOXTY+raYGIx+94Os0rSCLlPjIaK6d6T4sPEdouUTfCr59zNOaLkxEpd+7oGMo+ipfXz4LM6JHBDnly8UooQa5yOLdUIN0U5JIcs1fAuTW+j8HCPo4U20RuD8mRNdFru8ScIF/35gP7sPlQJzBvEXatylRTh8fCDatRudQc5EosPF8xjPDnZ9S/V+Lx+2GceN9NReUbwWX5juTnRKJjoItMXEiZK74Rb15/YH9NfBDNcE73fHG4MmdihrpOI0H+ElOFcq9L4F9mXFMKsGbDGtTsrURNTKY+Z4oD7jXYJdtnXLavwaaSWPsyl79+L/Fv56qCgQOrWHK7F83q6oA+XOtQV22NxqanR2vX5K+vm//+FsqNyyedqKrv0+6LW2Fvl2E2Eq+f+x5O39avtp69F5u/+MbL66fJxJpfFSIXnTj4eii/oLsw5pcrtECOlrlU8XPcVBf33nr0nP0EPfoD49AQjiNbTuLeTXmlTWyDkzF8HBra6y5PYqvOALlLn8WaKWpi1GViovrdsn7P/qCPJ+IHz1csjcTn53B+r8Tw98Px90zH7a8fxcE2OfURTAzyPR/q54TX8tRFC5aRFwa6yCQPyVniH784HiDZWJzpBLrr8GGLG0idjsXp6i6KaTJtWQZjdryxCCvnjVNTY8yUAmzavhqVon25apImZxyK1q2OncDclGK9nfLXbzVJI9u5dBF27F0zjCcoUeZ0QPuB//Zd7P7qnvdBo7sXx8WFYtiQXr9e7NuvB8XYbXHoXKuexUrxYrQe+gL7gs3kkvKKMVoea6nueeZXrPfUTtyp9T+Vix9DOY5sxo9bZcDv5ZjeBuG87sffO4p6jMPKXxUP7w8nbQ04UNeubiQSnq/EDn6v+LnSiD81hB50GrHPiQTGQBcNWPCElgLc0xDjdREoctJn4ulUcXjZfgHvur8Rh5lOPO1k90WNFvzQg0mxmEp8tfYoqvaoSyz+iiO7dryxCEU5nag/dBSbzb867bmMVvmYeYuwqUR79AjSf533tPN10y9kr4uDDu1XOXHgURYLQbleXFe/nHrp6NO35wMrXrYLXz9r8bhdCrBK1lRpa8DuA6EFEhxF87VsroQ81kr448hwX/dGHJDf0zmFWDXi33kJgOcrJon+vRKB9RuB4/nmVqtGD4afE5EWh8XoXRizdRvSb1bjZvUJOBaUI33JCqTIyL7Qe7MeXR/sRE+LftuX7NPtXAx0bXsZP8rH5JVi7C/LxPzab6SAmP+O1fx5LqQs+7V3PQW5rMOf4MdTVr88Da2dkmPByxi7pAgONY+Wzn2kFl213r8AmoW2fuK+rab7AhLzVYj5tOtq3bLM0yxoNShWwHFe3wbhSitNxuwFSej4vBeNF9REP0nIezEZEzP60fROH/wOPyaI+58chYz8JKSqSd0d/eg4eR8tF6zfAvpygesf9aHlezHB6jma+vBtbT/uqttDlj4LG8Vr9rTT6YnmN3dfwpctx/HurRtqiiEbGwvX4QXUobzhj7gobi+f/jP8rXledx02fyPvszF+Nc4VTMOxxjex/tYs7C4pw1PdxvNZmzFZfFnkAR+ercK7XWKCVZvdtWK5X3s9R7jzaULYLsunv4a3nFDrpCb6Udsu9RJerduPz9RUM9/Ckgdf3xfar/Yh0pcXZhHJkiWoWTd1hAre2nOtWoKffnXYervFUpunZGKh+NSwrLOiBewKkStObDa/ctIibX54Lfzr8agUb4LWs5146Sv1TeBMx67n05CLe6j6+x/89h/XEw9j/dzR3tlqVpp/QPkf/H+R1Qufy5pQagLEAWZzF3aLx/ptD6Mtt+9i8/4ui+0l623IwrV9OPhJB/a51WTF9UQGdszFwH3O0VhTlI75rmRP+1tFO32XHc52GQnD9/oZ21nd9OG1fBN9+yej/stbePtbNdGP8dw229XqNbt9D7X/LB7r83ob4uX181CfX62H9uOlQQMewR5r+RxTDXoMZXcs5n38KW+nlD2P9MXieFJ/gNZl8o64z38P0DnE921KUIXywz2OFMQxbtbaInXD5OancG8NoiD/EI/Lw9kuob3uPozvkmH6ztOOKbKj/70V9nmVEPx5zhD2s7DfR7rQ1y8C+1mIwv/8dGDhE2koc4nvF9/v93rxHev3eR3e94p5PuvvlsDHBUP9fhju43lJLzAvjmVCXdYQPif0Zd5mMXqT+MvoUinfvZiIMeIDybl2IHgkObKKMHbLTowRJ9RWHDnyg6kVveIDSStkuKXC+4NTPpfPh7H8IHZu2aaNBOP5MpXEstLXboOzTLz7fA2pnfID/WMxj/nDX8pByuIKOLeWe7fDJKT1y5sont90XyBe6cHN6Dkr0xxyxcGQPsWf+KDXalCILwDLL5bg3b3Uj27xP6N4FNL0Sf5mjsLEDKD71H2fIFcS8sqSUfyLZEw0Baik1IwkTHwuGQUz1YQAZNDL8jnEJTJBrmxsnF6Jc3PL8IIpmCO5UqfhhYJ12D1eTfCVmon89FnYXbgOb/nO6yxBTeEztnW3ljunib+X8IUWEPoaX8gvlxC6L8rglWWbxcU2uCYEP1/o2+WzljrtoO6pPPv1NjLZ4L5oGeSiyGg+YBPkkq51xs6vjVdsglzSJJ9ulyPs6m29BlNbp+lg0t0rTg8Ecd9VbYIvR5jrIA8+x6vC52qSJhm5roex4+8ysMapJkWBDLrUPP8wVpoCJpK87nviFt52GX7D+/qFrvm7e9r7smieqeivr8fTtBOW1rN3/Q6mbV+zR0aj8vnx2PWE9dFLvLx+hoV/NVX87cTpr4IIdoRyrGWWqxdk723zOSj1sOm+ZRx/yvnkSX61OH41nWRLjtkVGGt17CpedTnyoW2h/Gqf49awjyPF8+VY79W9QdTnGtJxeVjbRRfS6+7rShNOyx163mPDNxBEzjhMVlejJZzzqpDPc4awn4X9PlJCXr8I7GehCu/zczQ2rR6HSvkjitX3+/MZ2GTzeR062b3xB3FGKL5bnvY/bpA/5hijNvoGuaR4+34YcBvXQw2ojcTnRAKLv0CX+sCSX7jps4GevVsGCnluq0aPVsgyB+nLSuUVHy79A1V+mMkvycVqCONtRiHQLbiz16cIqHyc/CAWV72LhorlHpFvWdGWxb/2D1iF3U7x4V8tP0Tlrxrmtunzdcn5ssRzLtAf7S3E9WupMa2PaJOcJn9J80wzXXx+Xettk4fCORhdZPNBveB5pMsP+iMRKKr6fT86ZKHBjCQ4J+iTfGUWJIm/4nGXfLKzZAAsP0nL3mr6qA8n3+lVlz40ndIfm/FcMuwTWZOQ+qSeUQaL5zj/LxFKiBy/UAvkyCylV8/uwZy6N9VlD16VtbOEpwpWY7l2zdc0vDW3DE+luvFh48C85Y2X9LtTS1BhGSSbhWfll40p2POZW84TTPdFJx7NW42aPFnfy7/N5S1fq8f5CnG+cLZL1x/xWy1gZ7fewPK8EvFuEdvLtp3A8doG1W1NfPmGWoOFBqcCSK2tMVllGi6Z5SWL08usM/kL4Psjn80lNZsP9Dz6cC1AlnzzVx2mguV39QCjzLgyphkXn2wu4+BTPn/9l52m5/gBB7XlJWPl8w9H4WAsGZOKxIH23GTRznuo+sS07L/vxOZ6/6yzcLbLSBi+12+gbor5svmsfsJgyygs/Mho/NQmiLlwqiyG34fT3/msixwNUr5mcn/xKZS/+Us9gJY792HL4Gi8vH46o9B3kCcxQR9reWeTGIGg3jabTx558i//25zYY+6v9UwWmXGybYtahjgOPK89Sjy/74Grnokig0filNL7uFXOJ455e+Vx6y9NQYihHEfWvux9/179mNp2fQ1DPC4PfbsYQnzd/bSruj3BF6iOfWGcV4VznjOE/Szs95EmjPUb8n4WunA+P11PpOs/YGnfsebvCfEdKz+vbyeLd7uvML9XNPfwtnhe7bjhv5h+SHGmY732XS/rTlqtx9C/H+LreD4RPydGTtwFujy/AGkfcC/jzqnmgQ+mlhO488Gn+m3LoYlV1B7zMXZtrv4lLlNHPZH4ZvR4pTuLD2OVVt2z9+c+RUPFcmt3ii9V+c7xD/iE286UCvHhL7OgtslinOa2CWK+H9V8jhyrAFOo62cS8IPewqmvtA926w9qtd3EukemoGg/Wk7KgFISJj4pA1o+Jshglvjf0Q+37GJodqEP5z/qxbnf9aH9e3NQqh/tJ/rQ1KTfSrUJoEmyq2L3qT6ctHiOu77LC9et/Sg/+yZWNuzHZ13mrng38NnVKryqxXQy8ZhdppUMBNVVeXXjuyieU58PmJJqEbgaPwNPiX/H3KZgz62LOCb+BTP64lPOaWhu2YM5Fm2+KLsm2ghpvjC3iyeryzlLn+BFBfi6v8GRAO3ElZN4+xW9VlPIXRRoEJlYs0wGkC6jNpa2rUwZVyMu7nhDFqcXR4FnZH2x6Ke5h0Yc4FnFB29bjUgUJuPgUyxLdiV4+1vTN4P7njjY7VTBrtEoi9ivvgOKXKO1bgrl+2V3N/O3klhH9bnmbxi2S0TEcjvFicwZdTJSpI/u6EXsF2Xy8EOcHP3J63VwYM08/fH1X4r9xadQfvO3P+AldZIz/zG7/SVeXr8MTNJiQZ2hZxKEcKylZ5K0oU+LbFpQJ9S+mSrG8aeWAXNEnGBvld2qjC0ojgN/r44/fTjKfq39QGl53Crnk8e826rF8atNt8JQjyN96O0OsL6aoR+Xh7pdBgzhdfcyDpMmqatRkamVDSiTXbWG3NbBhH7eMbTzHCHE/Szc95Eu9PUb+n4WrvA+P1ub7/p0KRePl5/X+2Vx+Qi3VDxvlWzMI2lYrx03iO+N/yK7H4rjjH+2KnVgNoTvhxE7np+Kyu3FWBhWwCranxMPhjgMdOkfWF12X7QtAT74jA9H8eHTu1f/Eg/EUVamFTvsFR9Ud07p03z11p/Wlucb8AmvnaUYPVv+l90aP0ZWtcVF/jqgPdZCiOvnRX3QB1/YsQV92q8uapkmxnbrOWyz7uG4cB/a51v+KPEV7i1tmt6dUNbbsupG6AlGTUhC5sxRKChLxpwXk1H8GwfyZYBMZm0Fqk3Y1IdzJyKUuRWAJ8iTno3l45/B7umVOFhYiXMles0pLRvKsu+mGx9esq4z1XTX9ozQp9uiIYTui+5arLxqDj4FKcT5wtouXRfwpezv6izFRt/1UAE+WYA/UPdKip6FG1Zro1bV74n1OgLjkJv9GH5aEkODEYgDxfK/961hoX5l9cnIGpIM1fWsucuyK4G2TC0gIr4+XKMHfp2NlGZxoB3KQfZwbZehiod2fntP62IC8br6Zuu5HtNrhdWf8TkpcY7GfC074C4O2NX2Us9rub/Ey+s3VAFPqs2MTJLTlrWNpJRCPeDjm6miH3+qngQBfmz0bkMp0hfL+epxJ1B9rJYTtu0J/TjSzIWUuWL5AdZXGvpxeajbJbLCK1AdJM8PNauxQ44g3HY5+pnIIZ93DPE8RwppPwv/faQJ47xqRPazMD4/jW7qMst20xPiM9kmgzfSjv9B78KoLfev9axx+eOI9XGGEoffD80HvkDVmU605hSi8o3QCuFH9XPiARNngS71gaX6SofMOMAI8AVpZgSr7tWH+jURZjvVKCJhC3H9zPQP+sF+STNrRq8W6JqPFPOxRF45xsqDpfPVIbchsH5c07oaJiHDq6ZWEpyPq26LNoXq02Rw60WHVmMr/zlVTD7DIjPMRnegD98ImiGDOIWv4dzcdXiroARPyZpUqdH65lFZTbLbY4lYpuliBI8G677YfNe20ntAoc4X3na5gXdbrLphZmNjnh7g+204QToaMlksUxYFbT1zFG/XqYmx4spJvKRGXNz8+n5UHZKjQ07FynWrY3LkzWhyjdNPNVpVbQxLxqhHjyRHvA5MwOVSlN3DAa0rymgseFyfonPgpy6Z5XcPp3yDWUZg9JE07Pi78aixvDwsTm8fbMax1qDHlarOj33WinGc6XvcZkyvxz2bk3Jj1EevE3vjhP68nq0fjtCPI80C10kyDP24PMTtEsfky3Bdvxo9oZ53DPU8RwhpPwv7faSEfF4VR/uZuwsvfXIX9beTUTRX1uRSn9OrZW2uaAa+7uFtrQu+WK78Pmn+IcDAJ/FPz++jkRJngS71RRjoi9j4srb4UAv6AENjfFgNEqwyPgS9IvPhtdNId5Xp2F79zS0uVr8ShLZ+ZkGuq4+eBhmTz0Gy510cuQL0ViyL0tsWoVdmJmO2DG6Jx8iujR2n+rQ6W+dVrS2j6+KIG78aNTKII1PTui/hWEutVpOqXNWlMrogRozKagokmO6LUTeU7XLrOD4UO4wrb+FADS8WoR9R+ogw47TugC/F0OiQVpplgfoDh/HSK/txsE181C99FmtYL4EeEJZF6QMUoadghHCsZXlsaWYEhnwzVQYPGBnBIq8T+0GXN5jwjiM9VAAkcJZOBI7LQ90uEebyrvodWZ4fauSPNJ3IzZmKyl8VD7x/oyDU846hnueEvJ+F/T7ShX5eFRv7WdDcXXhbZkV90omqs/dQf7sPrY8MBL52/XUUsrUFIzNY84gjqvvoiCmZj8p54ni37TKqXt8fUrfJqH5OPGDiK9ClvggDfRGnLNNTXv2/LIf4JWzJhTFL5IegbJPpQ3BI7ZQfguG85YeyfuqDOdRf8lr1D3JPeyNZgN7K9/dxXQamTEXpbYvQa5JQ8Jx+//XP9RpbjSf6tTpbd71qbY20WdhdILOMVDH5hv1Yf/VrrSbVRa+6VJGjd1sUyztrFHc3X/ZoAaJQRl+MjqFulxs40i4jYdPwrCpKP8M5XbxTAhehp2jIxMINepBLZnINx9DqkWMUBh2H+U88WFldUq446LVlZPHE9KhHFBZxAqSdZ5qK0tsWoZeM7L5m2cVEnDgFuuwfrBZLrOvANa0MVKgj2g1+EmwwAgJ2WR8OIzPG97nspntE41hYCvM4UtHXNxIn/4GPy4e2XcJ93X114to1dTUq5I80+1B1RlyN6qiL4e9L4Z3nSKHtZ2G/jzRhrN+Ivf+GyN2L41/9gLf3d+Al+Rn9yQ+ovy2+/10Pq1paEWQMWiK+K6pk5rCnXldi0YNVciCjwzh+JZy6YNH+nHgwxFWga7APLDkSy1it77dMGdWmmAR/gKFTXfNQhNGWIxyK9pgKd3aZlhduO/WRDMX8c4u1IJgVxwLxIamuewt1/UyM7LJQtZzEPbGN9Paqg4uIFaC31t6oui9OkwEs8d+uCL2ZvP+CdSBMJvfEDFkc3VRMfkA2HlPXImOwYuxGgCiY0ReHwRC2y8WrJ7Ti+k/lPYMZ4vGLM8WKD1aE3jClGJu2h9avPr4UDKzfhgI1LRoysWb7au2XrdZD+8PI5Ip2O0X7NgT61TsTPy0cp11raw10sDJc23N4GBk9cKVbjpInPvk9xcdbm02Fx40hv226Mw6M5BhrEuv1i4Tjl2XtE6N4/GiIww/4F6FXjNEabfeXaBvO168d17WvpBBHxQrQ48BXoKwPR9lObdRByfcHVeP40z4zyuZY0fjhcvHz+om6lbxS+2PFcI8jFX19Bzv5H/pxecjbxUuYr7uH8V0S7qiNsSb0846hnecIIe5n4b6PdKGvX2T2s+HhejxAtpb4PH/bqMEZ6MeukI3GpqflccM9VP3hnhZck4Pa5M4dh01e3eQjbaS+38N5ryfa58TIirNAl/zAAlLWfgxnmfkL14WUip3I8ozE4j1EsyaEAwyD3jVPLm8nxmpHeIr4sh8jlieHmZUfoL4F58NupxrJUA6r69xa7lX7ymEsc+027yF3DWGsn5/ZZRhjWk99maId6rY/o07XRKSog4uIFqC3cuE+rncAqY/rheW1Hok2Reg9Mkbh8dKkge6OENdn6gXptdEaY0VqCXZMnmXqLpiNGeNX42DhOrwQyROHIIqxX3R/o524xkT3xSFtl69R3SLOymR22mS922KwRegXlhWiSH8rJ2S3NdeqooH1m1cUnfWbIg8uZOH5TtTv2R/WaDfRbqdr1bNYOa8QO/auwaaSTK8DP5dovwzSycL5coTIUwFqig3L9hxORkaPHH3v+QxxEGo6vXCOxprV41TA6h5qvYrG96khv0ej0tztwenAmr/O0H/JjUEJ9/pFwrd39ZMQWZRenBTJIxe/IvQevQOjNcr9xa/GiwMLn3gYu/7uYb8C95Ew3K/f8T9fFn9Dy/I0avPYnwT7ykH6MtMxpDgmG7tVHFeKY8+e81o42e8H1UAn9hqVcdJ79qT3sZr64VIrEr71ZXH8aT7mVceuWyowVhtyM4CQjyMlI8ulCOmm53csKPWuASsM7bg8jO3iI5zX3WNKPubLZpz5LjG6/oZz3jGU8xyzkPaz0N9HmjDWL1L7WdTJUZWffhg7/i5D754ovp/NXOI7Xg9IIaL1Mhf+tV6nsf7LH9R7QHxv/LOs1yXe/aI90fhukEbu+z2MoHiifU6MsDgKdKkvwpttWnDFsbgCTs8oHdswdra+B9sWDAyn/sCpnbhzXl7JEV+q20wjglQgXVue+DLd9jJ+9HrKobTzBO7s1b/E5ZeAeUQSp1pm7/lqr1+pPIZSX8FzgCO+DEzrqS9zhe0vZ1Jvm/ySEAcnUSlAb6Uf7m/7teBVvuqWaFeEXt6nF7AHUhckY/ZvHNpIi8W/kXW7ZDZXP5rU/SNLBWMEV14ZajyF4dehpmCa2KMu4VWtsHpk6N0WgSvdAbr/dd2C9kPCiHZfjMx20bO6nHghr0SbJxGK0C/coP8y5bmsm6rfMW+R9/Sgf7mKQrc8OQLUG4vUwcU4FK1b7d020yX4jLnIt7P5wD5s1orO623cYWrXDtF+PcglA3WhjBCZGN0cj/+hUwt0yOBF0dPjBoqKP29kZfXh4CfGAavBCHgILnkgbcwzDitdyWg926kPLx7TEuP1G7pe/KlZ71pSqX6F9ytCb/btD9isFbH3KW6sXcahcu5o5Ir9aWLUM76G4fWr+w7ayGGF+eJ7JTiDngSbGAEdzDYdQ4pjspQsedz5c3Rp5+e+z2UEjOwzo+x7HDTjxw8+1U++s+SIeOZjXv3Ytfd8gIz9IRxHymX3nNUDDo7FpnnXVmC03twBQzkuD2u7+AjjdTe4npiqj1j65+Houp+JiTIhv60zet3KwzrvGMJ5jhTifhbe+0gJef0iuJ9Fm7sLu7/UC9HL7ok7xPfzwGf1eHFbDRxy+y52hzL6cSCPP4xK+abxLT4v26IGP5E/jkVfbH+/D+/nROKLo0CXke5ZC/fWLeKLrs0rGq59AYsPLbuhXMP9cOmpFs8pPpT1dGnlZht6jlTDXeH7ZSoNrZ3yS/zmtmr0iGWYeearPuH1fIahfXiKAxzR1i71y4ah92a9tsxAwStjGGfZDTMaBeit3D1xHx3qum0ReuXuiT6c/7wf3cYMUsdAzS6th14MuHi1CuWNl9Asa2MZui95alN9Zp4+JMZoi5fwRcDBD7/GF9q2Gdnui5HZLsa6CCEUoT9e24B69ZZoPfQF9iVYCnHzgXrP+kXFpHERGW0m6u0UmmXR+deP4qAcClpN04iTBFlTbPPr+wYdIXI42jn89OG7N2sHxGqSpg+t4mB1s99w34oMeHx5D14jZN++h6pPbuElcdB8NQZHVEzM12/omr/q0k7spWCK0Dd/1aHVdznYrGp2GcRrXn9W7Bf7fwg8jHyYhv/1a8SBQ53ifLsQ64MK1A9+EuxFC+iYV8j7uFMPmvk+1+DdogIG21pqxPP7H7dCHAt27d0ijj8DZeyHfxwp9db+d8v1tQp4hH9cHuZ28RLq624owCo5EEtbAw7E2mjDYQr7vCPM8xxdiPtZWO8jXejrF8n9LPqav9UL0evf797fya3i+/rgl53i8zpC9RSd6dhl6rLoS35vaD+AuR7GrijU6xqJ7/dmrwOgYCXe58RIS5o9Z24spLQMLq8czi0rgCPiy9YuSBQL4qWdkfKgrS/FpeXTX8NbTll8vwrvBlOfawTILK3KeZdRtTaUzKEIKFmiZYRp9bPC6Fo4bNhOGg58/eLbsL5+ev1B2TX74Ov7Eu7HELIT+uuuf78P536i2ogGbH7lZGSCFUTxbhi/H/RRxhHSe36onxP6Mm8P/3lEDIubjC6jtsGIp3sOIl7aGRGyn/uWFXBEuQA90ZCkP4O/lVlswRahf8AYI8Oc/iq2T+rZThoOfP3i2/C+fu3Y934DZLfnlW8siVp9GYo1ob3u8uSzch7EyfUIZIbnFGJVCbthE0nD9v0wRWVmhWBEPycSWPwEumIo3TOQeGlnWEzFSR0LZCZXBVLEuvoW/SSKFTPGP4ODc2VtLuBYyx+DKkI/sqai0lQjSr9E8QRqSjHWyy/jM/Wx/cXKdtJw4OsX30bi9btyEi/tkTX+xGf3dga7HhhBvu56hoXcJ48Oc4ZoO/7U0Kld866PyX2UHlBR/n7wqp0r69PKiW2X8acglhXO54RfrV5x0Z6DvMRJoCvE2gYjJl7aGQ4XxvzSXCR0hZa51rPXqh4C0QhKfwYHVeH6mgI9yNXsrsX6gDXJHjSZ4ot1CXa9UYhc8UVc9V6sFr1kO2k48PWLbyP8+tXJGn8yw0fgaJ0PjiBfd1nnsXwEPlM8A60Mc20iotgyEt8Psr5rA6reD77b8Eh9TiS6OKnRVYqx1RVIufkp3FtjOXsoXtoZDhfGbN2GdC2Qpxd+7PpgJ3oY5KJYM341zhXoI0ui241jLf+I9bfif6TFyCrApr2LkCO+WHeLL9bY7XjMdtJw4OsX3/j6ERGRFX4/PMjipxg9ERERERERERFRAHFTo4uIiIiIiIiIiCgQBrqIiIiIiIiIiCghMNBFREREREREREQJgYEuIiIiIiIiIiJKCAx0ERERERERERFRQmCgi4iIiIiIiIiIEgIDXURERERERERElBAY6CIiIiIiIiIiooSQNHvO3H51nYgogGxsLFyHF1Ld+PBsFd7tUpPDYjwX0NxSi5VXv1bTKTyZWLhqPsoKpyI3R03CZVStPYzj6lascD2ejlXzRqPokWQ1BWi9fQ+nz9zFvm971RSiYDmwZvU4rHykDwc/6cA+t5pMCW/hhkpUzlM30InWttuofV985l1Rk4iIiOiBxYwu8uIo24ms6peRom5TYpsx/hnsLqzEuZLX1KUSuyfPwgx1f9Skz8TTqfpVV94MLNevxhAZiBPbo/CZ6G+LCFi4YTUql5qDXJEmgwnjUfN34rI6HS41FY8/rE8Tl02Pq2mBiMfveDrNK8gl5T4yGiunek8bXhFaPxqiRH8duJ9Fzzjx+TcVlW8swUI1hYiIiB5cDHSRiQspc8WZ8s3rYF5F4ls+vRI1BSV4KtWppkhOPJVXhprC1dENPnVdwJfd+tXmlov4TL9KYcnExGz9Wv2e/ShfW6UuUcrmut2LZnV1QB+udairtkZj09OjtWutZ3/A5r+/hXLj8kknqur7tPtGXNjrN7xcUwqwZsMa1OwV7+MNBWpqYK6SYmzaLh4v59Eua7BpVcFAwCWWxMnrELaYX79MLBT71y7PviIu28X+UpKp7rc3XPvZ8feMzzpxef0oDrbJqY9g4hTtbiIiInqAMdBFJnlIzhL/GOhKeDMmV+ItpwxwuXGsZQ/K697EHHk5W4tjMgCVOg1vRTWb6QbebdCXyW6LEdLWgAN17epGDHI6oCWc3b6L3V/d8z7Jd/fiuLjQ4GR3LRk82PHGIqycN05NHZxr1RrsWFeIIq+sv3EoWroIO7YXx2awi0bGlAJs2r4alWL/ylWTNDlif1m3OmBgdcT2syuN+FNDp7pBREREDzoGumjAgie0Los9DSf025SgZqEiT8/iOtZYhfVXb+Cidkvo+hrrG2pxTF5PLUHFeG3qA2g8HlVdK0M2ZSCbYdeqwbMf4kMvrt9WV806+tCqrsa3CKzfML3uV2uPomqPuhwK8sRetG39UhkU60T9of3YbMqCqZdZMDmF2BFkVlh0cT8bVLT3M/H8u95YhKIcua8cHdhXxGXznst6O+ctwqYS7dHeRng/a2612rhERET0IIrDYvQujNm6Dek3q3Gz+gQcC8qRvmQFUmQmktB7sx5dH+xET4t+25esQeVcLM7nt72MH+Vj8kox9pdlYn7186OY/47V/HkupCz7NdJn58ChJsnHdh3+BD+e8u+AMNR2So4FL2PskiI41DxAG3qO1KKr9oRtxlVo6yfu22q6LyAxX4WYT7uu1i3LPM1CXjmcW1bAcV7fBuFKK03G7AVJ6Pi8F40X1EQ/Sch7MRkTM/rR9E4f/PJaJoj7nxyFjPwkGPGL7o5+dJy8j5YL1m8BfbnA9Y/60PK9mGD1HE19+La2H3fV7SFLn4WN4jV72un0/PLd3H0JX7Ycx7u3bqgpBlXQHXUob/gjLorby6f/DH9rntddh83fyPtMxq/GuYJpovHGfBYsH+NdjP6IDJhNKx3o+tgts8P+Eevt2mkTOGpu2YOVV33n8WGzXX57aT8+C1gUPxszxi/EjrxMuDxdNN1iu5wQ2+Vrv+1yMG+aeJy6HYi7FnPE/FZ8CyQffH0f9kW5OLK2zOwGbH7lpEV3qMhY+NfjUSk2fuvZTrz0lfoEcqZj1/NpyMU9VP39D35dJV1PPIz1c0d7Z4VYaf4B5X+4p24M0AvXy5peagL60Nrchd3isYHWM5z5wlk/s5F43VGyBDXrpgJnjqL8vUY10Z/RttZD+/HSAd9PxwJs2rsIRcPV5kGE/jp4F6P/E0Zj1X9JH6gDd7sP9Wd+wNuBBjpwjsaaonTMdyV79tXBBkhwPZGBHXMxUADf6jnEfu27z8XDfuZatQQ//eqw9fMG2OdGej/TssmWitckBvZjIiIiGlnxl9GVV4zRWfJ30YkYU7ETzrUDwSPJkVWEsVt2YkyemuDDkSODOq3obdGDQllbKrwDPfK5fIJPMuDk3LINY81BLkksK33tNjjLjFNvkyG1UwagPhbzmINcUg5SFlfAubXcux0mIa1f3kTx/MEEuQSv7ozN6Dkrf57NhcNmO4tDToz55QrRznrcGUKQS7p7qR+yN11G8Sik6ZP8zRyFiRlA96n7PkGuJOSVJaP4F8mYaApQSakZSZj4XDIKZqoJAcigl+VziEtkglzZ2Di9EufmluEFUzBHcqVOwwsF67DbLrsqNRP56bOwu3Cd1h3Ra15nCWp8uiAud07T/je3X7AOckl32/WTM/nc2gRvj+ZVoka01au+l7j+lGjnuemz1ITIkN0s7bbLW3Nfw8HJqkCVL7VNagpk8MrUTojncZahpqQSG9PVJCWoIFesyhmHyepqNFy9rdfQaus0nfi7e6GVxRH3XdUm+HJ4TvpDoxft1gvXq0maZOS6HsaOv8vAGvNL6hHufOGuXzwowAItMHIZtX7BB6kRB7TMsHGYNEmfMpKG8jpMKsrAjucfHghySeJ60dPjUPPXen04b2J/+esM1Ih5VpoCVJI2QIKYL5ji8DLoZfkc4uIbWI2H/az5gE2QS7rWaZN9Fiv72W1cZ5CLiIjogRd/ga7cieLQVByezl6B9NlAz94tcFf8HDflZVs1em7KB+UgfVmpvOLDpQeOZNBGBq8W56D3fDXc29T8FVtwZ+8n3hlK8nEy4CSuao81liUe6z5Srz3EsfjX/gGrsNtZirHVMjgls7fMbdPn65LzZYnnXKA/2luI69dSY1of0SY57eanpmmmy9Yaryyy3jZ5qJuD0UUWQT5pwfNIF23pPeKzPcPxfT86ZIHejCQ4J+iTfGUWJIm/4nGXfLKzZAAsP0nL3mr6qA8n3+lVlz40ndIfm/FcMuw7gCQh9Uk9owwWz3H+XyKUEDl+oRbIkVlKr57do9fL0i578GqLPl7+UwV2BeJlwEcGndz4sHFg3vLGS/rdXl0Qs/GYihZe6Q6QReUpFp+Jx3yCQTJQ9JRsq7tOtNW/nXCW+QTlBupxmS/lxuMDGb8aNVo3S5ktVjtQS0zOL9ZPnkS68n7mF7CS3TN3a9tEXBXb1Lxd9LbKeZ141Bw5vbXf9BjVfVNmtHmmmS422VzS8doGvZuO0Hroi4TJLGg2n5h79OFagN5CzV91mArO39VPkG/f9S5ELy8+2VwyE2ylFqjqQ/2Xnabn+AEHteUlY+XzD/uNrhbufFI462cWs6/7lAy9NtqZ77wyhcyf3EaXr5zcke9qG/7rkIwiVzJam++i6hP1uv99J6rOqkEOXA/7B60eT9OCUzJ7q+oT0/5imq/oaev9RZeMSUUPY8fcZLFf+z/H5nr/LMW4388m6XW7Wlt9qubH2X5GREREiS3uAl2OHPV7qRaQeRl3TjUPBGBaTuDOB5/qt7P0QJM3VWwd8zF2ba4efKo+oWU/6ZrR49UNsVQ8rki71rP35/pjtVuSWG7tTriPyCNO/4BPuO1MqahAisyC2ibmkV0UzdllYr4f1XyOHKsAU6jrZyKzu+T/YAvRn/pKC2A5cqxSutR2E+t+p9ZmeSHpR8tJGVBKwsQnZUDLxwQZzBL/O/rhll0MzS704fxHvTj3uz60f28OSvWj/UQfmpr0W6k2ATRJdlXsPtWHkxbPcdd3eeG6tR/lZ9/EygbZFc8cgLqBz65W4VUtJmQVdFJkgKyuyqt740XxnPp84hwk1TfryY1/G0Iqmtbd8Js/mroN6u00gldPOSOR1ZWNjXl69pleS8y7q6Fcv5VaMM+Jp53e6zdjcimekle0rpf7fbp9yraKec/uwfpbalIkXTmJt1/Ra9P4d9+JtEytm1GZzKRo6xyGbBCbUeFuW40gFyZnOtbLwIFYluwW9ra565j7Hvbt71RBq9Eoe8L06RnufF6GsH7D+rqHwC8wIbuQVWKHucaTytLJzc3Qb4+48F4HrTvgH7pw3BND78Xxrzqw2QhaTfXJ6vr2B2z+5BZe2v+Dz2AI+nxV2sIcmGiTBSgVuUZryy23eI5m21h+vO5nmVizbKr4b5G1FTP72VRUbi/GQo68SERE9ECLw0CX/M2wDV0feGcYebQECNQYwZysHPTu1YNPgTjKyrTi7L1HtojH6tN89daf1pbnG/AJr52lGD1b/pfdGj9GVrXFRda80h5rIcT186Iy0IIvRN+CPi27zDtQJxnbreewzbqH48J9aIfP+aP8sq/SpundCWW9LavYjScYNSEJmTNHoaAsGXNeTEbxbxzI1/rlifkD/cDc1IdzJyKUuRXARSNolJ6N5eOfwe7plThYWIlzJa/hLe1EyycDycOND2WtKnXLrOmu7ZnWELjxpds6G+yi+xv9RC1t/NBHbEyfiae1jKw6VNsFpG5d1DKvXJkzTcvLxuJMPQvsw0s2Ncgkr4BinJEFo8UJZM3e1dixdCpy2y7j4PvRq8+l+fYHlP+9qkfk0Yt9+29Z1tcKW4bq/tXc5bMsg1jmGX15ua7RAxkj4c5nGK71G2klj4lvGF3sBLZMwn4d+nD6O+tvnObv7unZhI84/F53TzDK6cDCx9Ox6a8zsGt1Bmr+Tq+lpWVtBdpMzT8M1NoKRhzvZws3rMZKcWhTv+dwwDpimhHYz5oPfIGqM51ozSlE5RuJNiAIERERhSLOAl2qa544ZPXKdAqWCuYEClyZGcGqe/Whnj6G2U416mHYQlw/s5RCeUjahj7tbCAYzejVAl3zkWKO8eWVY+xisd3OV4fchsD6cU3rapiEDK+aWklwPq66LdoUqk+Twa0XHVqNrfznVDH5DIvMMBvdlifNkTdDBrcKX8O5uevwVkGJ1j3Qu7ZUJNkFzSLEprZXSNIy9ZPS1BLUlIjtYnkp0zO3vBgjJrbju4CF6hOHfNte16/GPdc4PXTeqmoZWTJGqXsk2VOXLNz5HhSeYEPdaRzUur51ov7P9gXsE5LF6y4HLti0ejxqnh+HSlnbTdbZMtf4GkTA/S2ByELvWqH5M0fxdp2aaCEW9jOVT09EREQPsDgLdKmueef1bnOWAnTBM4I5wQWuggxWGcGlNvODwmun0d1RdpP0q5Hlc3FbdAkMbf3MwgvM9TTIGmU5SPYcVUauAL0Vy6L0tkXolZnJmC2DW/LYW46yeKpPq7N1XtXaMroujjhZi0oGt1RNKVmPStbqKlf1uowuiEN3A9+ptDf/7owmRjbVAxQsiitXTuIlbej+/ag61IncnKmo/FWxHhgkMvMrHt6OfVrXt30DAQu7ukuJ7vGHBwYuuH0P9Wd/0OpsbVa1tvSui6SPZjhOG2nxJbvRPWNhPyuZj8p5op1tl1H1+v7Y60ZMREREwya+Al0q48k7qOQtZZnetc+/C94Qs8EsuTBmiZ6c39tmOiIeUjtlwCuc09WhrF8QgTkrrXqQztPeSBagt/L9fVyXgSlTUXrbIvSaJBQ8p99//XO9xlbjiX6tztZdr1pbI20WdhfIWlSqmHzDfq0elazVdTEK3es+c+tF6r27+3mb4ZyuB0262xFSLNDIwgp1PivGyI/uWv9i8L6XBqsuigFqmgUrEplpUdWO4wf2oeqMuBrlUReHW8CsGqObosUodeHOl7CudEBLrJn3mG1RdVeuPkRlW2uCBgUsX/fR2PS0rNnVh4Ny4IL9P+Dtr+5pdbaavWptPcgysXCDHuSSmVzldkEuKQb2M/35O3Hw/cM4foUBLiIiogdZXAW6jIwnr6CS2YKXMVarcVWPe37d5lQwJ9hi60bXPBRhtOUIh6I9Zb/WAjuy6HqXaXnhtlMfyVDMP7dYz/ay4Fjgsrkv1PUzMbLLQtVyEvfENtLbq4J+EStAb629UXVfnCYDWOK/XRF6M3n/BetAmJa0FCu6v8ERr6Lphmw8pq5FhKpr5T0ao9ksVGgjHQLHWqwCSHbdHgeKxze3X7CvjRUsY+RHZ6nFqIqBfI0vtAw4J16Y9ox9rbD07CDqiIURLJtSjE3bWR8mXJ56Sq50rLHsuevAmnl6UfHW5nueumThzhcxMfu6N+KUDIRiKsos21WAVTJbB5dxKkCXNK24uLF+GwrUtFhiV0trkNf99j38yTxwgYcDE9W1mDJs+1km1mxfrWVItR7ab5/J5RGp/WyobuN6gox0S0REROGLs0CXrJkFpKz9GM6yUnEYanAhpWInsjwjJO70zygK0KXRjt41Ty5vJ8YuMGVZ5ZVijFieU9aign/B+bDbqUYyRNYKOLeWe9W+chjLXLsN6VaBtzDWz8/sMowxrae+TNEOddufUadrIlJU0C+iBeitXLiP6x1A6uN6YXmtR6JNEXqPjFF4vDRpoLsjxPWZekF6bbTGWJFagh2TZ3kVVZ8xfjUOFq7DCxEt1fU11mujFQJPFVRi92RTwCd9FnYXqrpXAYrAP1XwGg6a2yrm2yjbqUUOL+G3VyORiXYD77booyq+MFe2UyzPK+iUjeWTxfYpWY3laorhs5Y6/YRW1vcqXI2N483dNNV2nbsONdPtRof0DpYtNy9XGyzAvtvnwrJCFOkfAchd+izWcPSv0Li7oMfKk7Hy+QxsetwUhneOxprV47BSSwy5h1pzEfBw54uQWH7dj9c2aEHA3KWrsWtVgZ51KU2RwatFetHwM98FLDDuWlU0sH7zimJyvy56ejx2PWEaaCCY1/2RNKw3zyO+SV2PP4xdcj7T136sGJb9TNsvZOH5TtTv2R90979I7GdD9wgm8jOXiIjogZc0e87cWOrDFYALY7ZuQzra0Isc1U3PnyzEblW/SmZRyQCT7f02Uio+VtlXVtrQte1l/OjVVTAy7bTTK4u8V5/wDyaFuX461WabtsqaYXaF5R1lRsBPEG27GYXaXL7SSpMxe4FRTL4fTe/0WdfnErwf66NDzPstkC/u7/i8F40+xeyNebtPRX/UxRmTK1Gjsqj8dF/Cq2IF38qbhmONb2K9J/iUrYJLbnx4tgrvWtTSMp63uWUPVvoEn5ZPr8RbzgDLbPAdyXFgec3dslC+muzFvi2+ArXNLOC2kURb5aiTfstMfwYH55aYTmB9DdLWgPOL7VNnPdLlwg2VWtFmXScOvr4P+6KaYaBnXqxEAza/EuWRF4fCmY5dz6ch9/ZdbN7fNUg7HaYAhZU+HPzEd+Q6Kdz5hm44XnfvZQRg0c3MU2fJStvg+47v/FqWT0zUPzJe8z603paF5NVkL9avu+uJDOyYa9PV9fY9rUZX5dzRqP/yFt4W3xVmxrytZztDG3VxiKK+n8kRXd8o1Lt6DsJqHxjqfjYU+rIxDJ+5REREFOviKKPL6JpXC/fWLbhzXgaSBvSe/xR3tlkXaZcG7U5oo6daPOfeetWNUbnZhp4j1XBX+Aa5pKG1E6d24ua2avSIZZh55rMKcgnhrp+uGT+KtnaJtpr13qzXlhlo9MTe+tOqPdEpQG/l7on7MErZ2hahV+6e6MP5z/vRba592zFQs6s9Cie84bh4tQrljZfQLLvqGWQAR9Xs+sw8PUI++0Yusw7HvIaVdGuF8Mv9glwm///27j02iuvuH//beCUbjLh4TcAmDksDJiCFmx8CLYIqedpE5AJWEcj0j4qkpSqWShApEkGpQpSIIKWglEcyVWgalD+CZcQjk6vS5CkKiF+41IYQKQmXfrOJgx0CtgHFN8nGv3POnFnP7M6sd2Z37d3l/ZIWdsc7O2dmZ87OfOacz+n+CtuaXowpb7jtBJ5LMMjlhdw288414I22NvsFkii3WVbHZXb+C6tO7MdzzVHbVaxjuE3Md2KIssr5xXLt20esp/pejrluH9mqoVEfSi3vfcQLLl/6cLD+GrYd7ULjDT1J6UdL+Ba2veYWrPI7X/Iy/XsPHzqIbftlGTv0FKkDje99nFDwIXyoMbJ+GelGL/aq774XLZbvviXchVqX4Gb4dHvM++XnmDm7jlk3VYZI+36mE8b7lex+loyw7YskIiKiO1n2tOgqr0Zw+0rAV4ulYZQt5UyVO219KWUSbdFFQ8mSFl2UG5auQN2G6RnUoovIwBZdREREZMqaFl2BykUqB5W/FkvDJ1vKmRLlyzB++0oE0pyAnnLTjDEpTTxGpQuxZimT31N6mSPbnTnNIBdlkGlmsnsiIiKibAp0qQTvreg3BibMWNlSTl/KLel6F8uWXBtRKPOURSXjJ7KRieon2Uc4lMngX1JxrjYcbWNrruRcx6dNRjehyg1r1WhsxmOF6zD/RL5MW4JNMphwtpEtZmjEyXxlkfruBZ3svvVrfMp9k4iI6I6XJYGukE7q3oK+mJxYmSRbyulHCGN/uxOT972lHsH1K1XLtZ4DTnnKiAbNDi7DkxUbULf0z/hMP+oqZqm/hduOpzyn151I5cV572u0ZHIOJcpiJQitWWEkKW/9GrVRie6JRl4HWs42ofZv7L5NREREWZOjaxnG79uIwqtvo21HJrceypZy+mEfmVEmqu98fTd6GOSioRRNwRPlv8LvgsHBEQxVIvn/xaZrbM1FlPkqsPXAL1B69mPs/etFBhKIiIiIKKNlTzJ6IiIiIiIiIiKiOLImRxcREREREREREVE8DHQREREREREREVFOYKCLiIiIiIiIiIhyAgNdRERERERERESUExjoIiIiIiIiIiKinMBAFxERERERERER5QQGuoiIiIiIiIiIKCcw0EVERMC0Jdjz8gos1y/pDjHE9x5asw57nq7Qr4iIYrGeICKiTJM3d978Af2ciChHTcHmhRvw5Ggg3NyAVd9+rqeTsnQF9myYjrLWr1H7tw9w7Bs9fSjlyzD28SoUzC1FQE/qO/82bu6rQ59+facp3Lgb48X26Du/D237juupGSqB711ewO56bCJw9mNU//WinjpcSrB8zSJULRRlLNWTIMq6XpRVvyKi1Fj+dA1qFugX6EBL6w00JPh7MLL1BBERUSwGusgmULUbwUdacFNcrPXoaZTJBgM4cXWfQHXTv/Clfpl99HrC53oUPYQj85cipF5cwHMn6vGOek6qRc8LC1HmNYBQXo3g9pWRAJfN1Ubc3JG9dYjvetC6Ta6+jbYdGRzw8/C9mxexLe/VY8uh63pq+tkvvE25E+ji760pgHVrJ2LVBPH0Rhe21XciLCfPHIe6BwvkMzQevYZXLqmnWSg71i/Z422k6gkiIiIn7LpIFiEUzi8VF2hX7tjWGJSjOr/A0W7jabj5Swa5Ikqw7g8y2NGBI897CR6EMPa3RkBHtVza+Gtc1Y+2A43oOXc4iy/ck6gHm0+i96p80iq2wckMrke9fe/hQwdRexYoe+yXWDdNT0y7EkydYjxr3F+P6vW1+pEbQS7+3rq40WcEgWz68V27fprtMnj9jv3VPMbE4/mPcaRVTp2AqQke8yNTTxARETljoIssypE/WfzHE+8s1IY3zr2IeSdcHlndmisVvserTca2YLfFQaE1v8Qqca3d8t5HOJhod0WpfAkKZF2hu+dZ64u+U7txsyH2Ui57JFMPhvHjDhnweyajt4Gf7/3YXz9GIyZi1R+W6JaRw6S1CYdO5GLrEP7eUgb75iI+berQLxI3YvUEERFRFAa6aNDiB1Ao/utpyvC8MnQHmoSfDNU9M9tNW4KtL9eg7kAN9qwp0RPTqQJrZE6V1ibs9djNJFC5SLXmysm6IufrQb/f+0Ucek9c+JYuxJqlehL5x99biz5cuaGfWrX3o0U/zW4pWL9h/30Awi1OhR4K6wkiIsoMWZijK4SxO3ai6Oo+XN13HIHF1ShasRKF8s6o0He1EZ2v70ZPs/E6mpETA+jc+Qx+lO8pX4bxv60S85cab5C5ZZzmLw+h8PE/osiSdFm+t/ODw/jxlNOd++TKKQUWP4PxKyoR0POo7jAfNqCzwd6Cwsrb+om/7bD8LS4xXySPiF63ydZpDsx8NeeNbeDXmGX5mLs4D+3v9+HiF3pijDyUP5WPqcUDuPyXfsRcvt0l/v6zUSiekQczXtLdPoD2k7fR/IXzIWAsF7jyZj+afxATnD7jcj8uNQygS79OWtH92Cy+sweDwcjd0HD3BRxtPoZXr32vp1iZObpki65avNqpJ8dj5qtyzdvl9pnRebKm4In7foXfWcvadgLbvorXemwKZk9ajl3lJQiNDuppbWK+42K+z+3zTVqLI+WzxPv063jaGjBPzG+In7cs3Lwfq7512paDZk96CBvLl+Lnkc9wKaOSiu0Smwj4yPMHvbWy8mrpCtRtmJ5gPpVE64qoOmHIOsCtLrHXn/J1YdVqFD0i6kPjDarL5E3xN9e6UBxHhQklyvdbDwqijp68vlK/sEg0P1eSvyt+tou37z2KmddrmBJOq2NiShO2PXvSobtX6vg+LxAS/51OYj/zfRwZvK9fCvYzj5Y/PAk1osJsOdeBLaf1pwaLsGf1GJShF7Wv3XLtshqaWYQ1C8agUubAUvrREu7E3n/2Ouw3Ol+W+NU2cmUFxLLHoSqUL5ZjaAl3iXl1Hi0nwQKsqyzCIus8N3rR8H+ijG16QpRk1k8a9t8Hwci5Be/LGuZ6goiIyEn2tejSXWb6MBVjxQldcP1g8EgKTK7E+O27MbZcT4gSKJUndi3oEyd08uRv8vaN9hNP+VlRJ7PyRDa4facaSStyMSKJZRWt34lglXk5a5FUOeUJ8VtiHuvJs1SKwkc2Irij2l4OC0/rVz5VfL7lb/HYuleE0XNOJm8oExeTxpRY4kRZ5fARJ9COJ+aJ67owAJleqXjJKIwxJsWaMwpTi4HuU7ejglx5KK/Kx5Lf5GOqJUAljS7Ow9RH81ExR0+IQwa9HD9DPFIT5JqCzffV4LP5VXjSEiCRQqNn4cmKDdg7SU8YaaNLMKPofuxduAEvRZc1uBR1Cx/CbP3aRs9TVyGDV2aQSxKfEaxC3dIabC7Sk7SEglwpJYNWfxZltAa5JPcyRvjdLiNk+X9NF/924MzpBIIdXuoKqzIxn/ivrzWqUo1w6b5l1p9yPnmRv0/Uv5aLbCkwdyPGO9W98qJc1rmi7rMFkITA3JXis6LqXd/1oKxvzctcu74E8nMl9bvia7sYPH3v0b65jDOy6l9wL5YbU9KvdCLu0U/Txc95geff6ST2M9/HkeZ5/VKwn3n17Y1+9X9rh2UN2vqg0kSJv32rJkSTQatJ2PWgNcgl5aMsNA67fl+MddafGqsJ+bgnWICtayeixhKwkspCY7BrbZGtDjeFHihG3epxWBU9z4QC1KyehD0P2L71CH/rlwlu4IrXgNpI1BNERERRsq9Fl+0Oeit6DvwPOk+FjZM7dZdSnsCJ5453PvVdSryNtg+mqhNUdVfy3ePqBFBdIC0Geqx30i3Ls9/BDIkTxtUIipM/WY7InVKT73KKv+0Tf5PzyLvCjWbZBDHfWDFfkZiv58CvcfOUnh7hY/0i9HITbYmg16/vw+1oc8pFM9TfPRlsrRVpXRWlpCqAGTMc/j4nH0sezVOtt668exvXfzB39zyULBuFGYvzxHPnVmCRlmSXB1QrLojPuBz1GWPuGkCXQ3k8m7QWn1XMUq23/n7hGN7pNFscTcET9/wKL5XLs3Wn0QLN1kvD2KIrEgASf7/4v5GWZrPFOsgglvTJxRex6Zp6qt2PvUur8HP5VKzjG7YWanIdl+N35bPwTcx8Jj2/a5mHNvueGtSJ7RivRZf5Hrlun4h122SWUba0m1Wl1z36e0hmu1jIril/WIhKcf2Z/lGrSrDu5bVYVepnBLvE6wqjJUmpS30luLVUMeuPq+JqSVyQB1SLk8PoaZZ1iQxkyQCReBpTf5otW+TzqHpXzme2SnEtu8d6MJout+v6miy/D35+V7xvF1My37vBdysPH4xWLOkeZdHP72Yyv9OSt/3M93Gk+D/v8b+f+aBHILSPPhjd+spOBp12zc8Xz/rFfLfEfHpLyhZX/z3OGOUwprWUZQREpR9HxLwH9bwhUY5dbiMhRkZJFMs714lDpwdbjMn5Nom/lcnPO9yOg9Etu3ysn82w/j4YjGP9hq/jbzjrCSIiIidZ16IrcgddniDKhL+Rixih+bg4GXvbeD3ZuANqp+96YhHGry8TJ43bjUTKkQuJcOzJrL4YkSeY9qTLYrkNu9H2obxtVYqCSvu9P7/lLNwoT57FSaW4wLkpuz5YL3LEfD/q+QKlTvcava6fhbzbLP93uSMc49Rp1T0iUOrUpEtvN7HuqUnIPIDmkzK4lIepP5OBqSh3jcLUGeL/9gG0RQedvujH+Tf78Nk/+i0BKmkA14/34/Jl49Xou4z/ncggV/epfpx0+IyUBLmka/WoPvciVjXVW4Jc0vd459taPKdOmktwr1trIgTx5Pw/47OlDo/77tfvSaFuGeyptXWn/FKsg1FOcU4+Wg+Xps2+Z5kOcslAVX1UN0y5jvVYdW6/exBoOBQ9hF06yCUDfJEgl9T5OV5t2o831MiNs/C7e+zrF+Fxu9h8cxKvPGuMeJX+i5hi3C0bdLR2eG9J4KGuMFqStKLfLRGNS0sVs/5ULWA+3I6rO2S3KrMuEfXYu7r+jBKo+qMR5HKqd+V8ss7eKS7yX3cJLnitB6MY5Y6zvkryvytet8ugJL53m4m4+279NC1KxIXyClTJrlpJl3Uo3n83k/udFjzuZ36PI4P39Ut+P/PLZfRBp5EKg0XYpINcMrAUCXJJbb04WN+BIyrFVAGqXFpZ4YYMgrVHglxS+NIt1OqFlU60zhfAugVmAEwszxLkkuR8W472imf5WHSvy/K8rF+0Yf19sJqOmpeXYLmvURTTXU8QERG5y8JAl3HC1+l2odIc58TRPLkUJ299B4yLoHgCVVUqWaxsleR2d76v8Yw+obUHfPyVcxkK5F1SyG6Nb2HyPoeHvGur3uvA4/rZ6BPlxBPjNqNfDqPvEFA0t1vPBz5aRLj54jbU+eGMUeISyG7MLKM7ocy35dSNMBKMuisPJXNGoaIqH/OeyseSP8lWYPIPYv54uV0v9+Oz49YAV3p8abacKpqCJyY9hL331eDIwhoVrHpJdb8I4ieufTeHUxveuBDdssxwucspQckUPFKiA0gX4rTGsgX4RsAYcXEt/2877tIy7nu82nxBPQuVzHHohuh1u2SpIbtRmUJGl66rZ8RFsjElWuFC3aqp1V5XGfWnDATFbxFqL8MyFD0i52vEzXitZJqPu5bHez1oFULhfLH8OOsrJf+74nW7pJa/BNUJkrl9DsiE22ux67HpKGv9Gkf+lt78XN5/N5P8nZY87Wf+jyPFx3nBiOxnl26hWgadbFVlHw7WX0P1P2UAKUqx7joY7oxtPaWIec8a85WFCoy63aYfR2ROLf3KyuxmaBMswCLZCuxGFw5ZW3lZXeoVtY/L8ryuXwYIH/oItWc70FK6EDUveEuEn9Z6goiIKAFZFujSJ3w614Rn5gVanAsMKzNY1dvo9TTbZzn1KEy+eVw/K+NEeaiWCFZh9KlA1yIU2vLdVGO8vNiUXSM8liG+AXx3ymjVVWzLqZWH4Eyj+2G7S6L6MTK49VRA5dia8ahOJl/s0DLMRfcwxShkAvS9C/+Mz+ZvwEsyR5TM82TLZRWPbIX0IuadcHhEkrSPFHPExOv4TyJdK0fIbB3tDHfFaVbWdd246Jb5uNSEO49ZVwxZL+o8P+6tVsx6MrreMac3otflotwc9dF2YW9e0J83Wpv64b0etIqfJ8mU/O+Kx+2SxeTXcMV4mj5efzeT/Z0WPO1nvo8jzfN5QXbsZyHd2qrFKShlMkc1lPm41IQkmIG1CWOw6/eTUOf4GAcj5JhbjPZ9RERE2SXLAl36QiLehYx5seNwUpjwBZpinuwNEawyTyJtdzb9ldPsLiC7s1zdGP/hdJfV2/pZJbiuUXqa5L3LUuRHzoJCKUtA78QxKb1rEnptTj7myuCWeI/s2th+qh+X35TdGftx8i99ka6LI07lcdIJ0Lsv4JPmBjx3bj+qxUMGq8yub0Qjy0Nd4Vg3WpmBoeiWKkMHjMxgke3CfsjlDcVfPRihAyDxW+mk4HfF63ZJsVCZLet3an1zElvWy+5Z9ah9rwNlpdNR84clYqulj9ffzWR/pz3vZ76PI4P384LM2M8oAyxdhJoFE8VX/TVqn6/31G0yrfUEERFRArIr0KUvJOJdyBQ+bnQZiL3YSPIixlEIY1cY9+9sdzaTKqc8ifRzWp/M+ukTW68tIVqME+FIeRevVvlx+j487LtFRVw/3MYVGZgqzkNQ59QqqdCtuS44dS3MQ8Wjxt+vvG/k2Lp4fEDl2eqy5doaafdjr0pW3oY3Lu7HvKZ6bPr2c5Wr68uR7s6XUvFyjCVoGFpShcbEGd7S7N7YfR2ZEiP1px3fqTRQXke0G/oi2GQGBNxafQTMljHRn+U2PSIddbnksx7UjPVNxcV//N+V5LaL3+89Wge++04/TYvrOHboIGrPiqdpHXXR/77k73da8raf+T6OFB/rN2LHnz9lE2SeLhdmK6xUjGpotg4Lyy6I1+I/hkosnyWMYFUHjvztAxz7xk9esHTXE0RERO6yKtA11AmfHClIjQSkmtyrKRaJX6AZdNc8VKJgsZoQw5r4uNOyPL/l7Gs1rpAC85eoIJiTwGJxkqmf23ldPwuzdZlXzSfRK7aRUV59cZayBPTOrl/U3RdnyQCW+N8tCb2V/PsXzoGwyEB5maD7K3xoS9JumoJ79bOU6LwGNQiSS9Bo9j2/sowgmAqf4yPVIi2IJ2c95JDbSiua4v63iBQEy1x82faVcXESXIbNjsuYgs3lxuiJ4etf+Br5MS45qtbL3vKg+HcdV9SuNgFTvSQZjtNiNlq8Vh9qFDmdkD36hoBZf7q3jHKp68zA+yOrjQt1J+XL3Os6v/WgZqzvUBf/yf+ueN4uNj6/94gS/HThRPH/DVzJiZHUvP9uJvc7LXjcz/weRwbv65ea/Sz9wv/pNQJPoSKsc+zhP5g8viVsTxzvS1svzsi0U67LS7eKwd+Hpyv0tOHg51jPtXqCiIiyUZYFuuQJH1C4/i0Eq6wXLHK4692R4dp7DuyOvVPq4QLNZHTNk8vbjfHixDVCDh8ulieH+5YnoNEJ532XU49kiMkrEdxRbct9FTCXuX4nipwukHysX4y5VRhrWU9jmaIc+nUsM0/XVBTqi7OUJqB38sVtXGkHRs80EsurHokuSegjikdh5rK8we6OEM/nGAnp1WiNmWL0Uuy6535LsGcKZk9aiyMLN+DJlJ5YX8P/06MHvnSfZXlFU7D5PnEirUYeTK13mk8YFxpiHesWrsXmSdbRB/V6zt+AOtcRIu3BsiesgSiVvD/OaIaJ6vwX/m4uY34N9lo/s+h+bJbfgwoAXsDfv019S7vlVcbQ8VLZY7/EOl+BiMQd+/fX4t+JWPRA4kE1MzeP+0VwtFIUPW6pA0WdMn6HqBdF3dlzXjYtir0hEO/CXtEtTvrOnbTXNTrwrpKE73hG1J/WOlvXvds3YnzVEC1xPNeDktnKpRJFls8PLF5mz2EoJPe74mO7RPHzvUdMm4FFshhn/+OYxDvr+PndTOZ32srTfub9OFJ8rF+q9rO0a+uEcU8tH6tWF2PrzMjWUYnj162diFWq91wvGk6noqRmcnu9vAcKELL9VAaw/IFx2PP7cViup6RSaE3l4O/Dgsq0/z4M8hEUz7V6goiIslIWBbr0hcTVVhVcCTyyEcHIKEc7MX6ucQbgmnDVT/6WU7tx87x8UiouSnZaRlTaiCK1PHExsvMZ/Gj7yGTKeRw3DxgXQfIk2jqiU1Avs+/8Pttd/ohk8tNELhDFybRlPY1lrnRteSD1tcqTbHFxl5YE9E4G0HZpQAWvZuhuiW5J6OXfjAT2wOjF+Zj7p4AaaXHJn2TeLtmaawCX9d9H1ufY12wk4QqVV6Fu6Z/VSIufLd2AuopZYo+6gOf0aH+pMTh6IIKW5c2XAbUgws37U58TrPNfWHXODHbNwpMVG/Q6WtezDW80uyfOtwbLXppvzmuU+6WK5XhCvSs573y1H2+oIGAQP7eWcX6VDnLJpP/OIytmnRP/gRohbOEMse0TM+RFsIUZ0MFcSx0o6pTCybLe/DU61fV59GeZASP3llHuLWbD+PH1t42L78lyRDxrnW3UvX3n47Q4TaIelMvuOWcEHAKPWOZdvxEFRnEHJfO74mu7RPHxvZtCD0xXXcEa/33RmJBWJZgqY82tHcl3O3Pj63czid9pyeN+5u840jyvXwr3s2Fw7J8dOKIG98tH5YMTB5PCrx6ng1z9OHLYeWRFXy7dwrZzMvm9WN78cdi1Wi9PPSaiZn4BykR5pqa9xZfPQPUwGd56goiIyFkWBbrM5vINaNuxXVwotNruJqoLGHHS5zYUtt+Ts5594jPFSa3R3US72oqeD/ehbWP0xYiUXDnlRdDVnfvQI5ZhFZlv33HHu6jJnXyKC0RR1k59Z9jUd7VRLTNe8MocBl92w0xHAnonXcdvo10/d01Cr3Ud78f59wfQbc4gtQ/m7Lqe6oCOT19+W4vqixcQVkEWrftCJGfXO9bpqXCt3nF5z517Eau+/R6Xu9KwYWSw68R+FbSzLRdtCLc1oPpELV6NNyqjCpY14JOoYTDDajsdS1Hw6Xu82vSi2DYnxHL0JCXBMibhWEMTGvUh2PLeRziY9i4fF3HovQ5xvb0QmxLqKjn0RbCNCuhY6xR7vWkEzaI/a+huUXGDbc114vNj612IuqzzwHZRf8Zrceq/HpT6Gv7HcX2dAh7+f1d8bhcbr9+7qQJrHpOJqZtw6ISelOV8/276/J02eNzPfB1HBu/rl8r9bDj04WD9NWw72oVGFfAy9aMlfAvbXmvHwRT/lIVPt6P68C0cCeucXaYb/Wg8J5ZZfyvly5TChxojvw/DJdxi26gJyr16goiIslPe3HnzM6FJy9DKqxHcvhL4UFysuAWJMkG2lDNV7rT1JcopJVj38lqsKu3AkecPDkNwjTKD9+99+dM1qFkwnPuJLiOasO3Zk+CvC5GwdAXqNkxHy3v1CY+A6FdozTrsegyejvnhryeIiIicZU2LLjM3TCY0l48nW8qZEjJPyPaVCKQ5AT0Rpct1HPxbE1owEateWJGW3DKUibx97/KCt2bBcLU0jFK6EGuWZm43LaLhZI6EeOZ0eoNcmKZbZnkwovUEERFRlOwJdGVUc3l32VJOXyzJnQOLZUuujSgU6xqdNJmIssg3J7Fl/9dowXTUvMxg1x0jwe/daNUhLnjPfpz2FiR21/FpU4d6VrlhrRptznhwH6U71LQl2KSOxca0BJJka6zIcfbCL6CGTWr9Gp8msKyRqyeIiIicZUmgy2NumBGTLeX0I4Sxv7UmWV6pWq71HHDKJ0NEWeXEB9jyvGzhIwzbaF404hL83lvExWv1X4c/sXT40EFse+9rtAxzbiKizFKC0JoV2PPCQpS1fo3aYTkWO8Rx34TavyXebXik6gkiIiInWZKjaxnG79uIwqtvo21HJrceypZy+hHC2B07UaQCeUbi3M7Xd6OHQS4iIiKiNKnA1gO/QOnZj7H3rxeZr46IiCgB2ZOMnoiIiIiIiIiIKI6sydFFREREREREREQUDwNdRERERERERESUExjoIiIiIiIiIiKinMBAFxERERERERER5QQGuoiIiIiIiIiIKCcw0EVERERERERERDmBgS4iIiIiIiIiIsoJDHQREREREREREVFOYKCLiIiIiIiIiIhyAgNdRERERERERESUExjoIiIiIiIiIiKinMBAFxERERERERER5QQGuoiIiIiIiIiIKCcw0EVERERERERERDmBgS4iIiIiIiIiIsoJDHQREREREREREVFOYKCLiIiIiIiIiIhyAgNdRERERERERESUExjoIiIiIiIiIiKinMBAFxERERERERER5QQGuoiIiIiIiIiIKCcw0EVERERERERERDmBgS4iIiIiIiIiIsoJDHQREREREREREVFOYKCLiIiIiIiIiIhyAgNdRERERERERESUExjoIiIiIiIiIiKinMBAFxERERERERER5QQGuoiIiIiIiIiIKCcw0EVERERERERERDmBgS4iIiIiIiIiIsoJDHQREREREREREVFOYKCLiIiIiIiIiIhyAgNdRERERERERESUExjoIiIiIiIiIiKinMBAFxERERERERER5QQGuoiIiIiIiIiIKCcw0EVERERERERERDmBgS4iIsoe05Zgz8srsFy/JCIiIiIaSaE167Dn6Qr9ijJB3tx58wf0cyIiylKhpUuw5vHpqCydqKcALa1f48y7Z3DwxHU9JcstXYE9G6ajTKxX7d8+wLFv9HRXJVi+ZhGqFop5SvUkiHnXi3n1KzfZsT1LsO7ltVgl1q3lvY+x5dBFPd1CBgZfWIgy/TKitQnbnj2JsH5JpASLsGf1mNj95UYXttV3cn/JSgnUE1kt19ePBr/jDhx5/iAODvnbn6S0/W4O83p4lLbzniw6D1n+dA1qFugX6BDrfwMNCZ1vGoGuXY+JbXf2Y1T/lfVQJmCLLrIJVO3G5H3PoFC/pkw3BZsX/hmfLR3isfAhzNZzjCxd3owpj7Mxc0ah4ql8LPlTQD/yUbEsD2P0393lofwp8f6nRiXw3hRaugK7Niy0nZxIZaXTseq/ivWrkSRP7mpQ9/IShPQUz+SJkgxyyUDVs4mddCx/ei1qHrMGuRKU8dtTmzYDi/S6lT127x3cyi2AdWsnoe734rG2aHAfmznOmCYeW2fqaS5CM4uwdW1x5P3ysefhIiwP6jdQBkr+e78jDFs94a+elxfXW19eh7oDYl79UK12p+k3DIX1IFHysuW8Z1hNVOtf80JivQjChw5i23sdwIJfYM+aEj2VRhIDXWQRQuF8cbZw9Qr69BSiO01JVT7mPjoKxcV5eoqUh+LFYvpT+eJUPtNUYOuG6eqZvJu9bX0tqs3H8/WobWhXf8tu4gLqD/JuoLwLOnRrLEMJpk4xnjXurx/cJkO25sqi7fnNZZxpNZ62vPcf5/X65iS2WNdh/cdo1H/KSTf6HO4O9+M7168tgHUPF2PXg2NQOSFfTzOUhcagZnXxnRUsaevElteuoTryuJUd+4vn7/0Okkg9MUJUCwiXi+uaF2pUN6Ahg2YZvH7DT7ZiXoE9lqBh3cvrsHXN0NvRCDha5juQ2Hw56U773Uz3eU8Wbc9jf7WU8/mPcUTVLRMwNcHAuwx21Z6VQfdfYl2iwXpKGwa6yKIc+ZPFfwx0ZaE2vHHuRcw74fJo+he+1O8kd2OW5WPGDBngGkD7qX6c/0sfTsrHm/1ol7/zxXmYMdyttYYyrRjqZnZrE/Yeumi/2PvmOo6JR7YLrfml7pbykfem/mK7HPLS5D6rtud1HHzWOCFjdx0/ZIugiVgVkgGufjQe7cC2SICnA7XnetGCfFROLzDeTpSVMrSekC1IZDcfdETdjKjFtv1NaBQXmGULKvHTIS8WWQ8q02SgSrdi1pOU0omofOwX2HVgneuF92DAUU9Q9HzJtMSm7HAHnEf68s1FfNrUoV8k7thfZSBPnFv8gcfOSGOgiwYtfkB1WexpOm68Jkq5SfjJaP3UK3USZ9xpTE+T4DzcvdhoxdX+fj8uHh9Al3ol/DCAi//oh7qnVTwKd89RUx2NvlNbeMdVjLttJ9BeVGCNvBhSJ2B36MlWNkv7cSv14coN/dSqvR8t+qmjmWOwaoJ80ovaw+145ZK1VVAfjp2+hS2HO1D9z149jTKLz++d0sRbPb/8v8wWJB/hlaibEeETJ/HKs/XYloF5jHxJez1otHquLO1Ao2yR8/xg0FC2SpFBQxm4WlXlkChblG2TGXB8T2zz6PlKF2IXE2wPr2H53aREhFucfmSGchGHZBdGceysWaon0YjIwmT0IYzdsRNFV/fh6r7jCCyuRtGKlSiULZGEvquN6Hx9N3qajdfRZA6q4CNA585n8KN8T/kyjP9tlZhf/zqL+W86zV8eQuHjf0TR3FIE9CT53s4PDuPHU7EN5pMtpxRY/AzGr6hEQM8jrvTQ82EDOhuOu7a48rZ+4m87LH+LS8y3Ucynnut1m2yd5qC8GsHtKxE4b2wDv2Qrm7mL89D+fh8ufqEnxpC5kfIxtXgAl//Sj5jL4bvE3382CsUz8mDGWbrbB9B+8jaav3A+BIzlAlfe7EfzD2KC02dc7selBktAJFlF92Oz+M4eDAYjdwHC3RdwtPkYXr32vZ5iJXNebcCTo2WLrlq82qknJ2j2pIewsXwpfh4JPrUh3HYc27763KEFmF4WTqBatRCbgifu+xV+Zy1r2wkxb1TrsUlrcaR8FkKJBLjaGjBPLNtJdILIlCfynJOPJY/miYuk2zj/j9vO36n5HvG9nxTfuzlt3hKxTyQS4LLOl4TQmhXixDTqrq0Tl4SYRsJR693bDrScbcRe8d7Y2kwnT4WZNLREfBe/RNWCiZHlt5xtEvNGJRSVieMfTzA/VrzEneJz6jZMFxdD9djiMdCl9pkpQyc7TXZ7YloF1lVVYpF1m7gkcDX2Y5kQ/wymiu24SsxjtGg4KC72xLaOmaZmE/T34LI9E98+Fdh64BeobI2/XczjrXF/raUM0cwyuSf4T/txqy1/eBJqREXUcq4DW07rX8hIYvVe1L52K6p8ujXXBLGOR6/hlUt6sgcyr9eaBbLLo56AfrSEO7H3n70O21UvT9QsRlL3gCjzOFSF8gf3mXCXmNct4bt4/wNjxPsLUBa9vEaxvDY9yYG3ckYrwNbfj0Oll2T0wQKsqyzCIuu63ejFmbNdOHjJ9ezF1/p5/96Hm73+lHXFmj9UDnbVaxXH+buxgR4rX/W153rCXs7hqOfNusFb3Z5EPah/S4bi+hku9XwiiaqHpR6cJr4zcfbrWJZpOhm4Q70f/3vQvxdprLsTY37vRjk+lTfA0nocRUvsd3NQiVjeImyyHBvy+GloEHVAldze8bfncOwvw3neE8v79owdWEh/fw3i+4u3bZI4biUjwTy8fwfmMRfv/JbSLvtadJUvQcFkeR9vKsZu3I3g+sHgkRSYXInx23djbLmeECVQKo+QFvQ1i+cy8fr2jfZAj/ysqOCTDDgFt+/EeGuQSxLLKlq/E8Eqh4aJSZVTBqDeEvNYg1xSKQof2Yjgjmp7OSw8rV/5VPH5lr/FY+vOGEbPOXmbpwwBl+0sqgaM/e1KUc5G3EwiyCV1XRhAt/i/eEmcLmNzRmFqMdB96nZUkCsP5VX5WPKbfEy1BKik0cV5mPpoPiritM4xyaCX42eIR2qCXFOw+b4afDa/Ck9aAkdSaPQsPFmxAXsn6QkpYSSFr6uwBrkksexgFeqW1mBzkZ4UbXQJZhTdj70LN+Cl6LIGl6LOIdF8QkGuETZGJ53uvhQncHnd2BcxY5T42R00/K24Jgx9cuJInizWOHZRKFsQv2uD7P5wjzhhUF0jLCcMUtmChY7dGzwngXdg3PXvwJnTQ504uZDl1k/dJbE9n16Huhd+oYJTtm0iE7huWIutjnfzJqBKnrSLeQwTUfn4EvFZUdM2JJYANR2ONTSpVjGyXA6/cAYzCfTZkc+L8+2NfvV/a4clkNLWB9WQQfztWzXBIliARSqg0otTnoNcRhJ0I6+XnqTkoyw0Drt+X4x1bknsJ+TjHrHsrWsnosYSCJJkTrBd1qTqEfr9861BIEkvT+YRe8DprCCJcvoilvdwMepWj1PdQW3rNqEAqx6c6JLvzO/6+fjeR4qoh9aIumKXqCsiF+eSeF4p6ok6xxYzSdTXfg1jPX/s31+r/8seW5R44vkRIi923ep5lUssE1rdqC5m+nm0u+3lHlSBxSqgIi78HQOEumWK2OfuvtuYMtLursr048gIyu3aYA8Ay+On5oV1qNK5Q0fecJ/3+KXro5iBhfT3J7bpVpfjL3XH7Q1c8RpoNHMHLuAAGSMp+1p0LX4Gk9dX6het6DnwP+g8FTaCMKr1kgzsiOeOrYh0SyS8jbYPpqpAUp943813j6vAkPx74WKgx9pCy7I89V7xmcbpVAiBqtUIPiL/1jrYgsrku5zib/vE3+Q8svVWo1k2Qcw3VsxXJObrOfBr3Dylp0f4WL8IvdyrYt4ddZaglgu9fn0fbkdbg8PnDfV3TwZba0VaV0UpqQpgxgyHv+sWOLL11pV3b+P6D+bunoeSZaMwQ3VVc24FFmlJdnlAteKC+IzLUZ8x5q4BdDmUx7NJa/FZxSzVeuvvF47hnU6z9dYUPHHPr/BSubwauYDnTtTjHeMPmr8WXbPvqUGd+sw2fHLxf7HJbC0mW5TNqhKfJ19EL89cln4p84KJec2WZrPFOtSJdZA+ufii+Ez1NMr92Lu0Cj/vNluFeSCbcqum+fB4Bzgxxj4kuy3GbzlY8ad8FIt9xnlf1H+P1yos1eLcqY1m3JmSJ4eytZDl7qe84/UHcTKgTiKiW+cYJ22Dd9A7cETMa96xC8k8K/ouuXvrH69370zmst1bDMVj3BX1OK+H7RlpbabuDp6x5LGQdx9/KU7M5La2L3/wTq15l9a6fWOnxW9RNfidJn5MJP5dmGV1K4Px9yHuNqf5uI2QI+09WBDVOiu6FZWFfj/Ctzx3TQw9UIxd8828XrdUl0dFtmT673GD3SFtrYl0WSKBnH4cEfOaLZxCojy7ZHmE6BZmkeXdEJ/5f+IzI62bAmK+Mdi0QK6HpUWT5q+c0Ty06NLbVLbeavi/LlFOszyytdY41KiyxC7P7/opXr/3YWevP81WHUZAwlpPxB5n/uprZ0PXEyNTz9taroh69EhCrUFiea8HrQbX3XH+SEsw8T2814hDlhxGcrtskgGNSN2t/xBtuOrBKKFpJbjngUWoUi13HMpo/t5FtTqRwczI92f+zg1juWON9HHk/Xczenkhsbw1YnlGsC3D9pc0n/fESnx7Rr4/sbxaWyuswVZzaErTcSsYy7/h7TxSM+b10RqMUibrWnQFSnVMVgZkNj6Dm2bwSGo+jpuvv228njxVnOpE08nWsQjj15eh58B2tMnAVSRAFY4KAi0T7zOCVTKwpN6rXkliuQ270fah6sCOgkr7PS6/5SzcKINcjbi5U8wjuyhag2divh/1fIFSp3vsXtfPQrbukv8nmoj+1GnVZTFQ6tSkS283se43kw5ySQNoPimDS3mY+jMjh5LNXaMwdYb4v30AbdGBhy/6cf7NPnz2j35LgEoawPXj/bh82Xg1+i7jfycyyNV9qh8nHT4jJUEu6Vo9qs+9iFWish4Mcknf451va/GcOvEvwb1urawQxJPz/4zPljo87rtfv0cregi7dJBLBsciQS6p83O82rQfb6hmS7Pwu3tcbj11yyBYra075ZdiHYxyit/M0Wm4ZfWNzNlh5I5I/Y++2fVwAN1DfHR3to7iJU5kzDwc8kfX1sT/m4s4+Gy9Hl1mOqrc7nLJE4314gfbMm/4xAdqhBmptCzVd7V1zpfWDo8tM8QJ0JoVqJInm57n9UCsu8yFsuVZefJl3XGu45geeUfeNXUarWcwsf71SLJT67Qr1mpghERadf2X011y3RJA7BOfxjuBS+txG81llL0bsSPyhSY6txAaUrAIm3Tw6IjO6xXR1ouD9eL4Uik9ClDl0gpJBXRea7d14wtfuoVaXchSl7LJro2DQSBJrJeYb0v9tdggUCrK6ZUoy7bDoiz1MlhlLY/Md9au1y+AqS6tyDytn03i3/tIUhesfzUvziWjnlDD0Qu24ywV9bVfw1jPyxHOtr33tZFTTbcGGe7R/pbLlrQyoHD2Y4c6qgTr5IW0oLqSRyXqlttly37ZMm0iFj0QZ7sMZz0ogxZq1MQa7HpBtoSZoLqfbZPfaXRdrVt6tbSYB5AMQIj5rLmhvutQ309ZWWYkIM3o40gsT513OCwvLJYn884ZyxvCsP5uepTEeU8yWppkUE2/UK4bx5/YTmk7biOmo+blJT5bnmZOa8g7URYGutRVDzpfd2l11BwnUGMGcyaXou+AEXyKJ1BVpZKzy1ZJsa2nDH2NZ9TyogM+/sq5DAVz5f+yW+NbmLzP4SFzXqn3OvC4fjZlxryJJ6JvRv9V8Z9DQNHcbj0fJNAyLFFf3DYSgUd1GZPGzDK6E8p8W04taCLBqLvyUDJnFCqq8jHvqXws+ZPRgkcFOeLVc5f78dlxa4ArPb40W2MVTcETkx7C3vtqcGRhjQpWvaQuDIL4SSqG+xtTYpxAth13aQH2PV5tvqCehUrmxHRDVAGyC9EtywyXu2xXKZRJzK4LZxtd7ixdx8F3dVeShTMcLjLEiZu8m6ZfWX3bYpxgjrjICf5a7JJ3sMUF25G/JdaywK9IbgiZH0UOz/70Oux5eZ26yDDu6jqf5LS2xJ68WqdlxDaNNL2vjO3asfRe8UslTz4vZ0Yw4dItVMvgUVSg5GD9tdQmky/WXfLCnVHLMollnjWWVxYqcDiO+nFEtlrSr6zMbnjRwv+Roz+Kz5s/DlsfEJ/pEiiySbqc/kRyaQUDWD6zCFsfLsaetcWo+72RS0t2R7w76nrZ1/qZhut7T5p79+vwaR3omVI8+D0kXV/7Nfz1fPiQuOgUF/TmSIuyzjRHCdy6NAXBhzgirW9kkMsxD5Hunt0qR+81JsU48R80iv9S+z2kktiXptyLnyayLXW9LmVKYMsuw4+jIZeXG/ye9/hhfq9lj/3SCIAnEmxK4XEbPvQRas92oKVUdj31NkCAv0T2lEpZFugK6ZxVRg4qz3QwJ17gysoMVvU2ej2N91lOPeqhbx7Xz6pwofxpa0W/+pVIRBh9KtC1CIXWGF95NcY/Irab7DLpsQzxDeC7U0arrmJbTq08BGca3Q/bXbqbjZHBracCKsfWjEd1Mvlih5ZhLrodLxJSTyaG37vwz/hs/ga8JHNnyfxXoxM945ets17EvBMOj6jk7rN1VC/c5di30NB13bh4lfm41IRcN6Bbag0R9BSydVTFkE5+M3jn1oG+c6vytKgJ2U2uyxXjadrIBLdqdCR551zmAJG5IKy5Q7KaeREQfdfTvFvqltcl84XNnE4TAp4ubsyWYC0uQSnFHPVP5uNSE5LU1okth7vQeCMflfNlzqpJKnBUt1bmrnIODI1IOQWZ+H7rWlG21RNRI3ODyVxd4vPj8rF+OclS796J9bUx0qIx2t8RcWGpAl4pz/czSHYrMoNc29ySRZuBCznyoLqJ4vT4RSQ4lBG+OakCh7I10Lbn61GrWswZreXcLtAjQa0TZ3SLow40/jtLE2iP4HGU0PJywLCe98j9+XkZBNcBcB1sqntZt/x0Cnyl4bhVn0dZJ8sCXbpr3nmj25yjOF3wzGBOYoGrBINVZnCp1fomf+U0uzvKbpJXN8Z/OOW98rZ+Vv4Ccz1NMhZeivzI0Z+6BPROHJPSuyah1+bkY64MbsnfcDnK4ql+XH5Tdmfsx8m/9EW6Lo44ld9KJ4bvvoBPmhvw3Ln9qBYPGawyuwRS+nS1Ga32RgfjBEHvMloPSt2p6rZKqRM5wZcn9x1GwtE/xEmmnqylMm+NkUdDdveRw7rXigsLeXEhLzLMrj5ZTV/4qITRelImJaH3LQ1BnrRq68QrspXS4Q7UnutF4w1RflF2MzC05+HUtcryTeUZ04nvb4gynruFWlHebeJR/dq1SNdMR9mwfjQ8ZJeyv1q6osUbEMOnwbw/TSrI5fWsOVuEZYJ62WJOd5mTrWJsrXPNIE/EdRxUXeZktzs9SQcNcj14QwkaifMesyunDtw2tsoWVoOBrz1Pp7Gr89JFkANzqC7deh0T7U5qBj5p5GRXoEu3eLIHlewKHze69sV2wUuyNZijEMauMOLBfa2Wn8mkyikDXn4O12TWL4HAnJMWI0gXKe/i1SpRft+Hh719TqJ+uI0rMjBVnIegzqlVUqFbc11w6lqYh4pHjb9fed/IsXXx+IDKs9Vly7U10u7HXpXEXSZ33495TfXY9O3nKlfXl7Z8XakVGhNnGEeze2P3daQlFpiBLcXMXpejZ+a5ju5pdpPFZZfAqknso6noZZoOcbsjmHfB0pXXyvMd03Z8J+8ue57PkisiBXdpnVVgq050emS/OPl59gOVB0LmrJAXF7nDzCE2HYt1y4rQAzqJa0MWD5nd1oszSeSoittKyew2eCMNo/61yXxXt/BKfTu2vCYDQ7fQKNZDjk64yWE9hq+cBdiqkunLJPsdqK4XZTzdq3J1hW35uobgcf1yQpx6d0Tra79SVOdGuqKlmC3INVTibTMQJJO1q5socR4JJuAfGWY9HtU695t2qAZccUaGMy/WnbrbZ5QMOo4ys9tnKozweY8O3L7y7EHjpubzH6vuznL0xU3W1oopPG6N/V936fa1jh347jv9lIZdVgW6zBZPtqCS1eJnMF7luGpEb0y3OR3MSTTZutjtVdc8VKJgsZoQI1D1RxXYkUnXOy3L81vOvlbjJz0wf4nR2stBYHHI5W9e18/CbF3mVfNJ9IptZJRXB/1SloDe2fWLuvviLBnAEv+7JaG3kn//wjkQFhlAMBN0f4UPrYnhI6bgXv0sFb5s+8qo1IPLsNkxuf0UbC43Rk8MX//C28iICYuXWN/FNN1U+kCahvI288AVj8Ldtu6xpjzcrUbpFLuU2g/jizfAgaM0r1/kosEp35IymLwzfXmXvCYoNZOypz6xacq0fo1PrQluI0owVT/LSB4uRsOHGlUuC6NlRQl+utC4uxk3Cb0p3cetb334NGx065O5oda5dY+TIxTOHPyFNPNJIVTkMk8A6+QogUJLuDclx1FoZpzWTG29eMXMtWUJaqW8nOKzE9pfbvTiU2vi+4iA6/HgZ/1SR1y4mfvn006DLqSOc84a53o3M+prvxKrr5c/PUQOLjMAkUJq9EgV5PoatYkEpuLlKfQi7fWg2B+ejtfyTdfbgj1gdRGnVAsct2TsFVijkrl/jVNuuY6U4TqO3HI/DdNxNMTv5uDyXAKH0/QAO0PJ2N9NLVXnPQmch4SWxmmtJRP8mznWrMHFVB23ETdwxXPONfOY8zMvpUqWBbqM2qFw/VsIVi2zBGdCKNy4G5MjIyTujm1RFKdLoxuja55c3m6MX2w5zMqXYaxYXlDmokJswnnf5dQjGWLySgR3VNtyXwXMZa7fiSKnwJuP9YsxtwpjLetpLFOUQ7+OZebpmopCHfRLaQJ6J1/cxpV2o9WNTCwvqzW3JPQRxaMwc5m1hY14PsdISK9Ga8wUo5di1z33W5K/T8HsSWtxZOEGPJnKHCWd/8LfVeslOVJjDfZOsoyQWHQ/NsvlqQjgBfz921S3KPscH5nLnvUQnrAGu1QSfvfRGpdX6abSQkzz+5Qw88CJXebRfFRY95m78lAh9hf1M9p+G9+55INTrQtVE7g8TH18FEqswS41GIJ7t8i0r983J9GgTmgnYtULURcYcpjtyNDd6ci7ZJ5Mi2X/IWrkGpXM1P1E7ti/nXJEZZDShdhkGyFMDnm9Anvk9lRJWTONbiWnLmws5Rb7gPuIQhdxSHYjKp2On64xui0menGd/uPWv/DpW3rkwXysWq3zQam/SAGEZo7DntXjsOpBSyCsrRPGvRw9jyUIpoJia8U+rhpA9KIh7kiBCZKjJ4rl7/p9sdF9L2hZnhASyzRaUonvxJqPK2Xl7Md3kZZvlu0jPmO50+/ShDHY5LQd5fIGJw7yu34pElpTObh/puyiyInMNxU1mmC8endE62u/PNTz4kK+aoGRg2vPyyvEe+31u6pDVcsRoPHdFLWUUl2u5GfKIJdzwv1Yg3kK1fcQkxNIrNcaUdYDYh30FCfprgdDa34pfm9kPiJjX7EeaqGo/SU6YGWOrlv2mPguovbPrS/rPEZDdFMfvuMIYp+RwZ/hPo4S/N00AyzifTVqv1ZTFbVPv5BYXqhM/t1Ukj7vSXB7inpi04ZfqP1adU+MrifkPqrrCXvX2tQct4N83GzNhRQPOSBv7rz5mdSHK44Qxu7YiSK0og+lupteLJmI3Sl/lWxFJQNMrn93UbjxLd36ykkrOnc+gx9tXQVTU043fTLJ+77jscEkn+tn0GV2KavMGeaWWD5QZQb8BFG2q2nIzRVtzLJ8zNUta2Rg4fJf+kWV5sz+3ijtYt5LwAzx9/b3+3AxKnhhztt9Kv2jLs6+pwZ15S7RrO4LeE6s4Evls/DJxRexyZZDfooOTMlk9LUuoyg6MefTL2M4fd7QyzLXI9y8H6vcgmRFD+HI/KWWH0grsa4nnEd0jIyOpHSooZvTMapNSVU+ZsyIs8/8w31/U+4ahXm/GeXSWtB9f/W9fuJEYM8LC1GWSDcM8eM+eGLnxGm55jzuZTK7gqhhv91OFs1y6pd2cjh7twsPcSIjk4YmtH5WutzwOJ+H7RnpAuNEthhoAmoem47G/bWRfCfm92ydZn7OUNOcJLTto7iWWzbzd0vKbH4P6nm878tuuI5b/wKWoI+TfjQebccr4rdi0NDzHDkcPRKgOY/T3wyhB4qxa34+Ws51YIsl+CQTvK9ZoHNfubnRhW31nVH7q59yxjLLFSN8yzayoev7pBu9KkdXzfwCsT2v2ban//VLXvSx4OU4SsxgndsiLuzKHOtet+PCT33tbOh6YgTqefHerX8YvKB30uI2GmKUIcsWt1xRHOp+1zrTJOp72bXJ7bsYjnowJC7cN8nRhvXrWB3i98SSe8si7vr5+C1M33HUIY6jiSNyHLluo+jfzXj7mthPGr+fjsoF8Zc57L+baT7vcZLo9pSJ79c8Hr+ecNtH45ZVGuK4lYzPgOfvwFz2UNuB0iuLWnSZXfMa0LZjO26el4GkQX3n38bNnc5J2qUhuxO66NknPvNAo+7GqF1tRc+H+9C2MTrIJSVXTpzajas796FHLMMqMp9TkEvwu36GMH4UZe0UZbXqu9qolhlv9MS+xjO6POlJQO+k67juYia4JqHXuo734/z75oh6Wvtgzq7rQ5zgD5cvv61F9cULCMts+6buC5GcXe9Yp6fE93i16UWxzBP4xPbZbQi3NaD6hJegmUed/8Kqcw1iufaNH1bre8wxyCXJu47G0OPyJOqjtP3oX29w2GcgXl8W04cKckk/3MZnb/ajXexnVt1qv3PfX4dn/YxEs4PDuJvEyaM4udi2Po0nUzJRvMqnYCQYNrXIE439Z+IETczWRPIOov1u3kgLHzootuXX6gI2Qq2PkbvimOrDkHlUudVIXBay3P+27fRRzNYagoc7lMN13PrXh4P117DtqBz1z9piqB8t4S7UHo4OcknWefQkRc5zC9teGzp45EX4kpGoPbaMYpve6FU5sZyDQKkpZ/h0O7ad010hTXK5X9vLot53VLzPuixdPpmz65j90I/wv37JU91ybXVhunTgzN9k3WuvL1rONqHW9QJqBOtrv7zU8+K9rzxbH1uHCvL9MvFzIkGuhCTZDVLWmeZokPZ6s0Ml494m6vt438Vw1INhmXTepYxqfxH7mdsFt/FbJsto/d7MdYsf+JCG7TgS+8VedUwM/3GU8O+mPgaMkUNNg/vJoRaXitAik383U3Xek+j2NEdjjd0/zXpF1CEu+2iyx60Utv2gJUp3+W1twiEGuUZU9rToKq9GcPtKwFeLpWGULeVMlTttfemOEmkReLkfJxuypPFrThq6tUEsPY/XFl3kyrjLPAx3l4mG29IVqNswXVxUpq8lCo8bynlpO46IRoafFl08V8ocWdOiK1C5CDJzg78WS8MnW8qZEuXLMH77SgTSnICeaKREWg/OyMe8qswdSTH3XcfBv8k8IjLfQqI5FbTShVgTJwcYJWiazKkj/m9NMAk9URYxR9Y6c5oX50R+8TiinDLNHIwhcTIwJrudZmYL9jtP9gS6VIL3VvQn2CRypGRLOX0pH8yqFFgsW3JtRKHMUxaVjJ8odwzgouzGKJ6NnpGPuX8KYIl65KPc66iKlBzZHUA2lzeTvOrJ7szh1GXy2rVq9CLj4TFQRipHhplzJGWJoYkyxbQl2CQvZs428sKEyC8eR5QDZGusyPmiOXhAgjf4IjnBzn7MFo0ZIksCXSGd1L0FfTE5sTJJtpTTjxDG/nYnJu97Sz2C61eqlms9B5zylBHlkC/6Vc6tK5fZdXHEnZA5SIwRopDACDiRHBDDkTsk18jktPpkb9cGI8gl85kwqSrljhJxYSJHQpNJmL9GbaryQRHdUXgcUa6SedyaUPu3xG/wyfMk90F9aLhlSY6uZRi/byMKr76Nth2Z3HooW8rph31kRpmovvP13ehhkIuIKPfoXCuKTNz67kd45QTvUFIuMUYSLRUXJnvFhUl6WioyRxfluuE4joiIvMueZPRERERERERERERxZE2OLiIiIiIiIiIiongY6CIiIiIiIiIiopzAQBcREREREREREeUEBrqIiIiIiIiIiCgnMNBFREREREREREQ5gYEuIiIiIiIiIiLKCQx0ERERERERERFRTmCgi4iIiIiIiIiIcgIDXZQD8lD+VABL/pSP8rv0JCIiIiIiIiK64+TNnTd/QD8nQqBqN4KPtODmxt3o0dMynwx05WNq8QCuvNmP5h/05JTQn43bOP+P2+jSU7PbFGxeuAFPjtYvI9oQ7r6Oo83H8Oq17/W0VNPLxglUN/0LX+qp2S+AdWsnYtUE8fRGF7bVdyIsJ88ch7oHC+QzNB69hlcuqadEPnE/IyIiIiIaCgNdZBHC2B07UYS30bajDn16auZjoMsbt0CXRXe6AlF3QKArfAvV/+w1JkcCEP04crgdB9uMyXYBLH94HKpC+SjTU3CjH41nb+GVS/GPwtDMIqxZMAaVcrmKmO9cJw6d7jUCIHGEggX4aWURVonl2soch7G8ArE8MY/Sj5ZwLxoaO3HMcd2S42n9LMGeIVmDRCnifXvGfu8tN3px5mwXDrp+78nsZ0REREREdwZ2XSSLcuRPFv9dvZJFQS7y7wKeO/Ei5pmPc/vxXPMF4+J/9FLULXwIs9X7KG2CBdi6diJqrEEuaUI+Kh+ciLqH3QM3oQeKsetBaxBIEvPNH4dda4sQ0lOiLX94Eup+Pwm7Vo8zgjIJWv6wuTzrPKLcoTGoWV2MdUE9KUX8rt9w87U9g0XY8/vY771sQgFWie99T5zvnYiIiIiI4mOgiwYtfgCF4r+epuPGa1JGF+snua7ze7zzbT1WnTsRCXZtnKT+kkKT8JN4LcnSYdoSbH25BnUHarBnTYmemGp9uHJDP7Vq70eLfhpDBjtWj0PlBNlK6Ra2vXYN1fqx7WivMV9oHLbOVO+2E/Numi+DKnLejsF5D99CoyzHhDHY5RIs+bbxFmqP6se5fj11CGJ5suWRWt7Rjkg5q1/rQG1YfkY+VlWmMDjjZ/0u3bKUy+nRgSNy3hS35vK+PQNY999jVICrJSy+98ODZdym169MfO97HggYb7fxsZ8REREREd1hsrDrou5ed3Ufru47jsDiahStWIlC2RJJ6LvaiM7Xd6On2XgdzchBJa7pdz6DH+V7ypdh/G+rxPylxhvE/Ded5i8PofDxP6Jobqm4TNHksj44jB9POV0yJVdOKbD4GYxfUYmAngdoRc+HDehsOO7a4srb+om/7bD8LS4xXyRvl163ydZpDsqrEdy+EoHzxjZIXh7GzBmFmUvyIsGn7su3ceX/uw38LIAZM+J0XbwrD+U/G4XiGWJePam7fQDtJ2+j+YuoQ2BOPuZZlhHX5X6cbHA4hFyWd+XdflxPUdfKJ+77M14KylZZx3Dvfb/Ck0HZpKYNn1ysxaZrU7A5ZpqaTTC7Lsp56/GOnmo1+54a1JWLed26MBbdj81i33pQfL7ZsibcfcE5v9ektThSPguhRAJcbQ2Y99Xn+oWFy/L+fkGUv1NPcLH86RrULNAv0IEjzx/EwW/0yxSSLXtqROFaznVgy2l9hKpglgxq9KL2tVs4ZkyNCD0wDj/9zy3nrmZmdzSHbnCOy4oowNbfj0NlIt3Y4izDRr/PeXlmdzrndfQjZetnYXxmmrv2JbI9h3yPuX7O29PPfkZEREREdCfJvhZd5UtQMFne156KsRt3I7h+MHgkBSZXYvz23RhbridECZTKoE4L+pqNoNDk7RvtgR75WVHBJxlwCm7fifHWIJckllW0fieCVealt0VS5ZQBqLfEPNYgl1SKwkc2Irij2l4OC0/rVz5VfH4iQS7B1p0xjJ5zreL/MgRctrMKhv12pShnI26mKMglc2XNfdQegBo9YxRm/Ebm59ITYoj5qvKxRL7HEnSSRhfnYeqj+aiYoydYJNOKa8wy9+XN+E0A85bl6SmpUILfyaCVCmhJQfy8/CFsvi9qWsVaPKFfJeLLtq90q64SzFBTTDKAVoPP5lepz7fu+aHRs/BkxQbsdWgFllCQy4UMurkt76X5f8aRe6boKSPr2xtGa57WDktgpq0P8kiRObe+VRPswqddglySayudAixWG6IXDTFBIKkXh1TLonzcncR+nDiXVka+pX79ZDdIGRxqPJo5+ata9P4Sy1w/sR0cWvP52c+IiIiIiO4k2RfoKpuqgjyBuStRNBfoObAdbRt/javysXMfeq7KN5Wi6PFl8kmUkBE4kkEbGbx6pBR95/ehbaeef+N23Dxw2N5CSb5PBpzEU/Vec1nivW0fNqq3BB75Y2zAync5l2H8Phmckq23rGUz5uuU800Wn7nYeLedx/VrrrOsjyiTnHb1bcs0yyMqOX1fq7wEL0VBpTX0YLF4NYpEWfo+jNqePpVUmcGsAbS/34+Tf+lTj/Nv9qO9PU7rqzmjVMBJtqa6LN5rznfyL/24fMpoiVX8aD5sHdq+sL+vXU5rv43zkWmWR3Rrrjn5mLtYBrJEOU/12+Y5//4AusVfRi8ehfK71LtTIIjQ6Da8cU7m2dqPN9QCluLJYNQ0zMIvvXRD7PwCR9V8Jbi3SE0xTFquAk6yNdVz5/YP5vcSy3mu2YggxATVrtVb3teAT+Q02VIsMs3yiG7NNWmt0bJMtkprbrDNU33RyCcWKv8VNlvLGOVYQxMaVRQAaHnvo7S05pLC1sBDRD++8xsEKjbyN8UERIIBceQJ4V5byx3rkWiWpXSiW0jco0tdqttf2fwxWG7GTyN0YCpVQZaUr18B1shukDe6cCiDRiMss+U6swrgHp2XzGn9Ur6fERERERHlmKwLdAVKdepeFZB5BjdPhQcDMM3HcfP1t43Xk41Ak51Oto5FGL++zAg+7TuuWj8ZwuixdUNcJt5XqZ71HPi18V71ShLLbdiNtg/lFXRswMdvOQs3bkShbAW1U8wjuyhaW5eJ+X7U8wVKnQJMXtfPQrbukv8nmoj+1GkVwAqUOjXp0ttNrPvNBpfleXGXDFbJJ0bXxIuWroZdPwzg4j/6cUVFoxx80Y/zb/bhM/Ge6+K9gwZw/Xg/Ll82Xo1OSeApD+VLjNZaMhh38fiAbZTGLlGWz96XZchD8azUteoKN/8vXlXd977Hh9eNYJN12n+SGioyiJ+M0U+la/WoPvciVjXJLoPWLooyv1ctnlOLjwqO+TYFm8tnqWeq6+W3n9u6UH4pyrLq4gXxLIgHg3FadX1zEq88W4vq9bXYcui6npgu/fjOaV+80We0kEtYAOsWyBxUDq2aYgJgsqvbJOwSj0heJ90azD2Y4lUfDtbLfFwB1KwWy3m4CMuDYlnisW6t7GYHNJ6NzntllEsmah/qYctDluL1kyMbqm6O/+eWl8tnOf261CtqeEHl4Sqwt1KcWRQZnCC+VO1nRERERES5JwsDXfJefys6X7e3MIpojhOoMYM5k0vRd8AIPsUTqKpSydn7Ptwu3mtMi9bXeEYHnuwBH3/lXIaCufJ/2a3xLUze5/CQOa/Uex14XD8b3QIt8UT0zehXrcvsgTrJ3G49H7isu1clugvg5dvO+beG0GXOc1ceSuaMQkVVPuY9lY8lf5J5veQfxOenIke5+Pxi2bKs/Ta++8KYFOOL26qF2OiZebDGj5LxTXdUTizBOu1yV2r7an1p5sQqmoInJj2EvffV4MjCGny2VOYMk3+ICo75VTQHD8ovvvsE9kXyi0W59qVqIRYqmTPyI0SqZOjRXeNkgOha/PxXDpY/LHNeya52CeRbmlmgAk1S6gJbDoL5WMoHLaAAAAwISURBVKw/3xhpcSLqxGOVTKZ/tAOvpKu1VFLrZ7Y268WnqT0MkmB2TRTrI0eQtATSjFEmxfZUCf5dpHA/IyIiIiLKRVkW6NJd83QOKs90MCde4MrKDFb1Nnq9R+6znHrUQ988rp9V4UJ5KdmK/oSH7gqjTwW6FqHQGuMrr8b4R8R2O7/PcxncjNFdpbp9XqjKBPYVTwVU3qwZj+oE8cWpzJOlmQG54lGY+yexPMdHPoYlbVLKtOH/RbUImy2DWwv/jM/mb8BLFUvxc5k7a3RMf7bkjSkxWruMXoq6pWJ5jo8q/Fy9OXeY+aTkiHzxgkeRoI/uVqhGKPw6TYEOmUBdjhCJXhw5LEdd7MC2o11o1K2uSqfn21omGXrxim3UQ/eH03qmYv1CDxSpIFlLuDdOS6fkyulH+HS7bfsZ+vUojO145euU3CIgIiIiIrojZVmgS3fNO290m3MUpwueGcxJLHCVYLDKDC61Wt/kr5xmd0fZTTImR1bUo82hS6C39bPyF5jraZIdcEqRr3tpys9JbQL6FJA5s2RwS7W0MvJmyVxdMreXzJtldl2kKGZrKlzHf6yjGsqcWTK4pVpaXVB5s2Surmqdr8voukh+ySDXLplPKnwLW9xa58QkqdeteV5rHwzEuOX38qUAW+UogTe6sK1eJs+XNVYfwpc68Up9O6oPd+LMhHHYtXYclhszJCdl6xfAT1UXwH6c+U/mBY4i2y8SSGtX33lYHEPLp8tuq6I2d8zHRURERERE8WRXoEu3eLIHlewKHze69sV2wUuyNZijEMauMDrV9LVagktJlVMGvGLbRgwtmfVLIDDnpMUI0kXKm+IE9NG8NxrKQ8WjRmL4KzKB/T+MvFkyV5fM7eVJcQJdDa8byeZx2ZrM3uXxj9u2/F2ZZnbwPrFHCW1f4h01Rbofeytkzqw2vHFxP+Y11au8WTJX15e2fF0JiBnN0UHXdaMVTlvDYLJ6t0fTv2z5u7JPAMsfNoJcslVP3C5o5gh7oQLXwFJIJzFPSaBEdx10bRXV1ouD/9eFlgkFqHnYCNAkJWXrl4+7VVL3PlzJqgCsOeqkSx4uIiIiIiKKK6sCXWaLJ1tQyWrxMxivclw1ojem25wO5iSabN3smicu8QocRzgU5an6owrsyKTrnZbl+S2nMZKhmH/+EhUEcxIQV0DOf/O6fhZm6zKvmk+iV2wjo7w66JeqBPQWXRd0AGnGKPvoiKa74D7qotQ+gDZLAvtBuqthgoZMWP/DANrlhakoZ+pGVRwBRQ9hlxrpEPikLWoURKn7K3x4zSmwNQX36mdDSyBhvTnyY3BZ3FEVhzRtCba+XIO6AzXYsyYVydhSTSZ0NxKQt5zrcG/JFdELI/1eAarM5Ow2epRB+b4UdbWT4ubH0i2sUiNF62eO3ngjRaNBDhOzuyXCnVF5uIiIiIiIKBFZFuhSly0oXP8WglXLLMGZEAo37sbkyAiJu2NbFMXp0ujG6Jonl7cb441b7IbyZRgrlheUuagQm3Dedzn1SIaYvBLBHdW23FcBc5nrd6LIKfDmY/1izK3CWMt6GssU5dCvY5l5uqaiUAf9UpaA3soMICEPM57KR4kliDRmTj7m/WaIvFfFozBzmbVFlngu5xOfZYzmGI9YturemIepj4+yLdtIbm/N9TWA5pPGqIpTRZkq5DJtAS/x/mViuX8S66CnZBSZXP6etTgyf6luzdWATU5J4Ecvxa577rckf5+C2ZPEfAs34MkhW919jo/UxXsQT856CE9YA1gqub119MTv8WqzMarik/NrsFcu0xbw0uVduhZP6ClOllctRKVxSKLssV9i3TTjeUYIFqhR9syE7luiR1h0cayxS3XvK5s/0T5yn/o8YxREhHuHTmSfCOsogQ+LZdm+44AaKXCP7NoopKarZIrWzwy+ZeBIhMsfnoQ62dVTjlxpEuu2Trfqk625jjSmKd8aEREREVGOy5s7b77HPlwjJYSxO3aiCK3oQ6nuphdLJmJ3yl8lW1HJAJPr310UbnxLt75y0orOnc/gR1tXwdSU002fTPK+73hsMMnn+hl0mV3KKnOGuSWWD1SZAT9BlO1qunJz3TUK834zyrkFlsy91Z6H4hkDuPJmv21kxjHL8jF3sUvieTHf5UvADPH39vf7cNFtpMR4y4b4jL/047p+JcVdpiSWe+Vdezn9eOI+Y5TDTy6+GAlIzb6nBnXlwSGmTcFmGZSK05wt3HYC276K7Q5ofpaj7gt4TmyIl8pn2ZYfo+ihwWBaDPEZJ+ot3SWHWKYklvvGhXq8as0lZrH86RrULNAv0IEjzx/EwW/0y5EULMKe1WMSagmlWnpFBcEi+bycqHxanTEBHhlgkYnuhxTdfXLmOBXMiltWl2X65Wf9rMz5nbZdqvjbnrKb6jjVgs+ZDHpa8pEREREREZEnWdSiy+ya14C2Hdtx87wMJA3qO/82bu50TtIuDdmd0EXPPvGZBxp1N0btait6PtyHto3RQS4puXLi1G5c3bkPPWIZVpH5nIJcgt/1M4TxoyhrpyirVd/VRrXMeKMn9jWe0eVJcwL6H27jszf7ceWyNS5rJJc//49+fNfmHK/tOi7+/v4Auq25bmSgSefsup5I1yC97HYxn1W3+pzbtiCXJJd5UpdVdbk0ifeb5U02yJUebQjLYNW5/VjlEOSSvvy2FtUXL4j36QmSDDTpnF3v2FbYRee/sOpcAz6JGkZTLvuNi8dsQS5JLnOeeP8bbaJ8epoi5pfJ8KvFct2CXNKxhiY06l275b2PMiPIJSXZ3c9t5L7Gc7dSGnBSLt3ClsMdqD3XixY1AuKglhu9OHK0I+XLHNb1G1Z9OPZPc930JMUy6iKDXEREREREvmVPi67yagS3rwR8tVgaRtlSzlS509aXiIiIiIiIiDJW1rToClQuUjmo/LVYGj7ZUs6UKF+G8dtXIpCGBPRERERERERERF5lT6BLJXhvRb8xMGHGypZy+lI+mIwmsFi25NqIQpmnLCoZPxERERERERHRSMiSQFdIJ3VvQV9MTqxMki3l9COEsb/dicn73lKP4PqVquVazwGnPGVERERERERERMMvSwJdZoL3Kxnecihbypm8RBLVExERERERERENp+xJRk9ERERERERERBRH1uToIiIiIiIiIiIiioeBLiIiIiIiIiIiygkMdBERERERERERUU5goIuIiIiIiIiIiHICA11ERERERERERJQTGOgiIiIiIiIiIqKcwEAXERERERERERHlBAa6iIiIiIiIiIgoJzDQRUREREREREREOYGBLiIiIiIiIiIiygkMdBERERERERERUU5goIuIiIiIiIiIiHICA11ERERERERERJQTGOgiIiIiIiIiIqKcwEAXERERERERERHlBAa6iIiIiIiIiIgoJzDQRUREREREREREOYGBLiIiIiIiIiIiygkMdBERERERERERUU5goIuIiIiIiIiIiHICA11ERERERERERJQTGOgiIiIiIiIiIqKcwEAXERERERERERHlBAa6iIiIiIiIiIgoJzDQRUREREREREREOYGBLiIiIiIiIiIiygkMdBERERERERERUU5goIuIiIiIiIiIiHICA11ERERERERERJQTGOgiIiIiIiIiIqKcwEAXERERERERERHlBAa6iIiIiIiIiIgoJzDQRUREREREREREOYGBLiIiIiIiIiIiygkMdBERERERERERUU5goIuIiIiIiIiIiHICA11ERERERERERJQTGOgiIiIiIiIiIqKcwEAXERERERERERHlBAa6iIiIiIiIiIgoJzDQRUREREREREREOYGBLiIiIiIiIiIiygkMdBERERERERERUU5goIuIiIiIiIiIiHICA11ERERERERERJQTGOgiIiIiIiIiIqKcwEAXERERERERERHlBAa6iIiIiIiIiIgoJzDQRUREREREREREOYGBLiIiIiIiIiIiygkMdBERERERERERUU5goIuIiIiIiIiIiHICA11ERERERERERJQTGOgiIiIiIiIiIqKcwEAXERERERERERHlBAa6iIiIiIiIiIgoJzDQRUREREREREREOYGBLiIiIiIiIiIiygHA/w/oF9IMyoaOwgAAAABJRU5ErkJggg==;" vertex="1" parent="1">
          <mxGeometry x="470" y="660" width="1210" height="437" as="geometry" />
        </mxCell>
        <mxCell id="01Iar1CoBmKypzJJ37KZ-10" value="" style="shape=image;verticalLabelPosition=bottom;labelBackgroundColor=default;verticalAlign=top;aspect=fixed;imageAspect=0;image=data:image/png,iVBORw0KGgoAAAANSUhEUgAAAsEAAAICCAYAAAAuzRBuAAAAAXNSR0IArs4c6QAAAARnQU1BAACxjwv8YQUAAAAJcEhZcwAADsMAAA7DAcdvqGQAAGy1SURBVHhe7d0NbFRnnuf7P6HnSoa72xiXE9vBLyS0wUwTwO4k9HgxHZSoRdOMfXMbC+9Kfcls0CbWXECZQYJRonSU3AEp0xGNRg4rp4fckWawYG5kN6G5s0HJQNrdJGkb0vTy4iaNwYnNNDZO717wSDMJ93nOeU7VOVXn1JvLdpXP9yNVqs5Tdeq8lIl/9ffzPGfOQytX3RUAAAAgRO4x9wAAAEBoEIIBAAAQOoRgAAAAhA4hGAAAAKFDCAYAAEDoEIIBAAAQOoRgAAAAhA4hGAAAAKFDCAYAAEDoEIIBAAAQOoRgAAAAhA4hGAAAAKFDCAYAAEDoEIIBAAAQOoRgAAAAhA4hGAAAAKFDCAYAAEDoEIIBAAAQOoRgAAAAhA4hGAAAAKFDCAYAAEDoEIIBAAAQOoRgAAAAhA4hGAAAAKFDCAYAAEDoEIIBAAAQOoRgAAAAhA4hGAAAAKFDCAYAAEDoEIIBAAAQOoRgAAAAhA4hGAAAAKFDCAYAAEDoEIIBAAAQOoRgAAAAhA4hGAAAAKFDCAYAAEDoEIIBAAAQOoRgAAAAhA4hGAAAAKFDCAYAAEDoEIIBAAAQOoRgAAAAhA4hGAAAAKFDCAYAAEDoEIIBAAAQOoRgAAAAhA4hGAAAAKFDCAYAAEDoEIIBAAAQOoRgAAAAhM6ch1auumseA9m59x5Z+f17pMgsRt36Un71N1/KHbOYnyLStPlhaalfLBXlpkmuSsfWE3LaLAEAgNmn4ENwpOUrsmSJWYgzceuuTJz5Uj69cDePgtgcqfyTuXK/FEJATFMBh+CmHe3SvtosRBGCAQCY7WZ1CI7KqzA2C0NwgjlS++dzZWHeh+CItO1tleZykb7OI/Jq76hpBwAAs92s6RN866f/Jmf+yn37Qn710y9lQj+58B752to51uuABCP9cpQADABAqMzigXF35c6FL+Xjn9qF7qIS6y4vFC00DwAAADAjZk13CF0JHrhgGt2c/qpBf5q/d45U/tE9snDJnGifVt2X+LO3v5DR35kGX3Nk3vJ75GtrdKh1qsx3ZeLKl/Kb7rg+yMvnyso16v3TCb9XvpAzav0EAft568yXMnQh/vXxXS7mqPN0j9zvXtfaz+CuCvPUPn8txT5PfPCFfPy+349PFt0hsv4cJsfqE1zWL7v3nJFB0wYAAGa/WT9F2rylJlSpQBUfxuatnStrvq/Coit4aTrULvn+V2RlUBcKFdhqVch86Ds6JLpfo5aXqHYVACvvNU1G9tVfFQ5bgvfz/u/MldrlpiGeen6e2dcl8esuuUce+pN7ZJ5Zdouo7dnHZhqmWNafQ66UF0uVeQgAAMJhFleC50hk7T1y/6N2sEp4frkKXiro6ertrQ++lE/fj4VkqwqqQ6B67rO//UKGPJVIU+XUD3Wl0lOJjW1zIqgy7ayfbpXU7KddFf1SRn/n3dYStS19DFf+6guJ9Wo1leBoiFXr/jS2n/r4dMjVkp0X7zr3qHOiZ4CI35afDI4x688hN+zZIZgNAgCAsJk1leCF3/mKrPlz922uFRB1AJ648kVCQK5c44RA9ZwreGl3Lnxh+hLPkYVL7dc55qngaQdgHfBUMPN0Rbgro++rdVVg8w/AWVD78qu//Tf5WG0rFoA1e1tXrthLRXGV5ygVnnVode+nPr7oeiVxx2f6Tuvz4l3H6V+tzklQ5Tlj2X8OkxeRms0bpEVPjzYyLtftRgAAEBKzujvEhAqqV1Qg/Ti+j+29KlTpJKue/zQorKrQd0vdFX1tjqvLwBwpUctWlfTtJBVOT1idvDtOBVTtd2T5PVLbMldW/slcK+zb08OpsB+xXhFH76d/1fbOWPb7GB+cs5b15zAJ1WvktTfbpevNVtm3cbFUjFyVnoP0BwYAIGxm5RRpv/rADnhFt+7GVU+NiF0h1lOnPeSpHrtvpstDHKef7MQUDtaKp7si1P6J2qfvz5Ul3zGDxzx9kXPnzph9v/A7cyXiri7rvsWmC8XEJAK0xyQ+h1wZVrfP7IcAACBEZmUl+M77dvVQltyTMECt4Fj9d1XwtSqmut/sF1Z1+1fqpgO/060hZ6JdJexBadEwqgK4FUavfBFctS0E187Ic1s7ZMvWI9JxfFwqyhdL+zNrpMY8DQAAwmHufWVlPzCPC9K8ZXZAnPjNlzJ20zQqE3PnyH2L5si/r1TZ8exd+VfTbpkzR0pWzpE/0NOR/c2X8unPk9w866r1/si+PPDElbvyP27brZkx76He5H/+PHHGCq85Uvt/2IPR9CC1C/9NHeN1FfLVdv/VbNv/+OfIV1ffI/9eb+Nj//38g+p7rPPzb5/dlX+O6xA7b5nupjDHutDIH9hNij1w7Tf/LdU+a+YYJ9R7x597t6w/h1y4I9cu/Fp+V/2wPPy1f5GB7ityzTwDAABmv1nbJ1hXgz/T5eCF98ii+IFcv1OBTj+XcaVYrWeqpPd/1396Mcu96fVfDRzMFu/WXRnzDMBzmO4EubRcT6cm8pkejBe9+p59Bb74gWsp6SnazENfWX8OAAAAkzOLB8bdlaEzdnBcuCY+sDrPqTD7/blSu1bPp2s/Y9PTj82VlX8+V+LHm43+PHYp5of+ZK5ULnf3zVXvo0LkSvWeD7UE9dn1Bun4frcRz/sZ5rLPsWMw29HToFkD43LHnh1ChetJzsYwYfVHUcfo3m99fJ7znP3nAAAAMBmz/Ipxsfly/a5upi/S8JA1z24Aa25en/lpnavQmcVEKea1Tbq+dx7epPuopz/7jVhTwXmP3znu4P1w3jfhvKQ8Nh1wVZD3vVJdTOB++1wRL+vPYdIi0ra3VZqFK8YBABA2s3qKtFilUaTo0XsSqol33leBTIXEz67ctau7Dh3yVDi05gH2C16/+1I+VkH1ygdqPavi6dCXTVbr6Xl5kwU2vb7a7i21HTfrghg//dIzpZnex1/9NG471ut0P1oVls1sDjnzO/Xe6nwkk/JKdYq13/r8mGWL3u8B89gl688BAAAgSwVfCUYumQqyJLvS2xzrssq6+u5XXS8sVIIBAAirWV4JRkbMxSsmfpNsAJx6LlfzBOeL8nrZ3EivYwAAwoRKMGKi/YHvyq2ffimfXvCG4XkqJOupz+5fovvvevsuF6qazW2yb2OxWXJclY6tJ+S0WQIAALMPIRgezkDDpHTf3ikZqDYzajZvkO31i6Wi3DQQggEAmPUIwUigL9O8aI19aWb3LBHOrBB6zuKM5gsGAADIM4RgAAAAhA4D4wAAABA6BR2Cq6pqzCMAAAAgfVSCAQAAEDqEYAAAAIQOIRgAAAChQwgGAABA6BCCAQAAEDqEYAAAAIQOITg0ymRn/QvyceML0lO1wrRlynmPdtk53zRNSq7fDwAAID2E4LCYv1weM9dArqmsk032wylggm39eqkzLQAAAPmGEBwWty/IexP2w8Ghi3LMfoiMRKRpR5u89ma7dDm3vW2yqzFing9W07hGdu11rfemWm9zraS63Eu26wEAgOQIwaFxQ/b3vywre1+W5uvnTRvSVl2rwmirtK8ulgrTZCkvloZtrdK1o9Y0JKrZ3Cb7ttVLQ7lpsKj1Nj4u+/auCQy02a4HAABSIwQjx0rlAdPtYtpUx6qlr21OXZXNmHr/1156XIXRcek7flJ2b+2QLea2u/OqDOvXrH5cdjVar/ZS627fWKwe6HWPxNZ98aT0jajm8nrZ5xegs10PAACkZc5DK1fdNY8LTlVVjVy/PmiWZpdNy16QV0pETg28LNtvmkZtfpnV1/bi7Rv2smG/fkwOneuQ/bd1v9xt8lRAGB0c6pTm6971vdQ2SptkX+VSqTHvMTjWK28MvStS6d6O/ZyUtkqP67VJjXXLyktOJdrZz9h+b1r2pDxdUhKtcurt7r70rlw0y36adrRL+2qzoEJjz4uH5fA1s5gjNZs3yDc/POH/vo0bpGvbYpGzJ2XLjwZMo83Zt2EVZJ87OmpaHbWy600Vrn32Odv1AABAeqgE56krd8as++qiMuvepkLj0m3StWqb9FR52x+cp+4mLsk/OsE0a3Yw7ar1htqakkZ5ZVW7PK234yOtAJzMvBVyQG33FVcA1vR2u/JgkN3g0YAArH06bleDE9TKo1Y4vyrdCUFWG5Cjx8fVfbEsWmS32LJdDwAApIsQnKcuTtjhp2ZeqXVvcc/w4Nd+56apmMb6/7pvW4bsYJ3MpmVOBXlMTg10xtY91y2nJlRA9Qu7N4+4tqNep9smemVLtM11i1aB3UrkqdoWWacrwu5tDly2ny5qlGddhxvvdHe/3UVAGT7+zvRXRhfZ/YSHh2/Zy47qhWJ15z37iZy2GmzukD84/Ll1X17h6saR7XoAACBthOB8dfOiHSZV2I1WQedFVBC6LKd0lk1oV8FIheBJmb9eni7RD+zuCdtvxrpMXLx9Xrb3d8ohM8NEzk1clud7O2S/e5sqXD9vcru3Ih7n2hl5dY/dZzax68BUi0jbdxere5+qbUI41t0Y2mWfu++yqSJXVCy0l7Vs1wMAAGkjBOetm/JbHTiLIrLEbpBNJUtVWByVd3RXiaJl8m1zgYk69Rrt2kSyfr5pMGFaxt6P9fedFip0Xz7iO22b0y0kXzXtaJXmcpG+zhOeqq2vxgelwTzMKLxmux4AAAhECM5bN+STO/p+qTxhdQUw/X7v3JRjVleJEnnA9M9dMk+Xby/LO5MsBDthetIV5ZDQU5hZg9fOnpRXe02jj2hw7f1IeqxuG+PS90vvADo/2a4HAABSIwTnMe/gOHvqMSug3hkVPSeG3b5CntAZWAXjK+oO08Oaw1dPYaYC8HNxM0JEJQyYG5XDVreNw7HQ7NefONv1AABA2gjBeezi2CUr7FqD4ErrZJ16bHV5MFd/q4ksl7r5pVKtXxwdFDd5nkF32XJ145hd7KvG6QCsK8DxU6J5XLslVgF39YPSZDUkqqlYYN2PDLv6E2e7HgAASBshOJ/dvinWRAcqlG6yuio4XR5MVwkdNHM1KE5xQreU1MkmqyWOCtzpXwgjIg+aPstTbqovlhEVkTZz1Thr/t5kAdgyIB+c1feLpcV3v2pls3VBjKvygac7RbbrAQCAdBGC81pscNwTut+vq8vDsTE9fZhqN7M5vDc2yUFxmqkw637Ir9S3yiZXiK3TF8RY1WJVo5M7L+9YvThK5Kml6z3voS/0sak0ySwPWWpqiV1auGLjE9JmlcZzzFw2uVlfNa7T7wIW/vT0bdYsDhtbVUCvjU1zZr2fvuCFEjcVmpbtegAAID1cMS7POVeOs7ivtjZ/vQqljSYc6enF/GdXcKurapeuypLkV4zzvG+cicty6s5SWRd/xbh4yd7Ds6/xV4yzGj3S2ecpv2KcddnkeqsPbip+V3iL9h/2M9Ivu/ecsSvwcbJdDwAApEYlOM/ZFV/bqTHXhSacrhJaLgfF3X5Xms91y6Ex99RkY3JqqFu29B+R19OZssy8x6kJ72sHVYg+NHA6ZVjP1JRfLMMMQsvW4NHDsrtT76O+yptjXPqOn0waZLNdDwAApEYlGAAAAKFDJRgAAAChQwgGAABA6BCCAQAAEDqEYAAAAIQOIRgAAAChQwgGAABA6BCCAQAAEDqEYAAAAIQOIRgAAAChQwgGAABA6BCCAQAAEDqEYAAAAIQOIRgAAAChQwjOa2Wys/4F+bixXXbON03TztmHF6SnaoVpy5V8OD4AABBGhGAkN3+5PFZkP6yprJNN9sM8YoJ0/XqpMy2Av1rZ9Wa7dKW67ag1r8+dms1t6r03SJNZBgDMPEIwkrt9Qd6bsB8ODl2UY/ZDZKGmulbadugwlH7QqmlcI7v2ukNam+zaXCs15vkg2a43qzU+KA3mYTLDw7fMo1yJyDfri0VGxuW6aQEAzDxCMFK4Ifv7X5aVvS9L8/Xzpg2ZaNphB9F9Lz0uzatVGEqTrh7u21YvDeWmwVIsDRsfl3171wQG2mzXy4WazRtk146p3UbWek/Ilq0d0dvu4+NWc19nrE3fnjs6arXnzkJZpD+LG7dk0G4AAOQBQjAKXKk8YLprZKw6Vi19bXPENObe9e6T0tFpbiZ4paT2bftGHZjHpe/4EdnthLQXT0rfiGour5d9ftXkbNfLkaqKxdKggn6VWc5nVRX2efr0U3t5ypgKdN8vB+xlAEBemPPQylV3zeOCU1VVI9evz+baiu7vuk2eKhqTQ+c6ZP/tMtm07El5uqQkWmkbHOuV3ZfelYtmOcH8FbKzcq085l5n4rK8cfmIHLttGqKc7ZnFOINDndJ8/YZZ8ldX2ir7KpdKTZJgGnufLI9PbaMnxTaixrpl5SX/Crau0LavNgsqDPW8eFgOXzOLU6Vxg3RtWyxy9qRs+VFwKHL2bVgF2cTKpO7b+rgKVon7nO16uWJv/6p0bD0hp01b7kSkbW+rNN9Q565bpK2lwa6sj1yVnoMn5LA6voS2wGN0zkWqfXVt0/q8ItK0+WFp2bhYKuwXyLD6LA+o52L/J1LvvbdBGsp1yE5lqs4VACAVKsGFYt4KOaAC4yuugKjVlDRKV8CgsLqqdvl4VYs8Fb9O0VJ5ZZWe7aHMtOTGpmXt0lWbZjiNl+HxZbWNglErj1rh/Kp0+/5pfkCOWhXlYlm0yG6xZbteoTDdCuRB2eXuWlK+WB5u2SCvxbU1tySpeFcvFOutzn6SPIBWL5GH1QutfsLVa+S1N1ul3RWAtYrVj8t2918S9HunFYAV+gkDwIwhBBeEEnmqtkXW6YrpQKfVP1fftgxctp8uapRnS+2HUaWt0lVZoh6Myamhbtli1nHW01Wrmson46Ymi/X/dd+2DI2Z55NQ29MBVm/Pu4+9pkJ2WZ43bYnV5AyP7+aR6GtW9nbLKd020es5xugtoAqsne7ut7sIKMPH35n6KnC6AgKa+8vB4PDn1n15RVz40veZrlconONbvVgazp60u3p0XrWeqlBtFXFtSS0qtoJsykFw5nVS/4QK2fVSMXJVOl48YvoPH5GOs9arpKJiof1Au3ZGnnO6oWw9KX26baQ/1jXFfdtzhn7CADBDCMGFYkKHyA7ZfzMWIC+qMPi8yafVRe6qbpnsrFxqPTo10CHbr5/3dCfQ6zVbAbNEHivJTTW4rsgOVXp73n1812xrqTwRH9TdMjq+HFFh5dU9dhjJ/WCoSUgIaPbUXvvcfZc/HZdhdecJX9mulzX7/WMzUDjdSxZLe1z7rkZrhclxAqkOlE73A3M8njYjWcCtqVhg3Y8MJ//cnddV6MrucRV+95yQ09ecdUatL1LW9oM4wZ1BcQCQdwjBBWFMDuk+vGbJ7codnyqtM7fvRK+8ftNuSnDzolVBrYksn7b5dYODbIbHFzauqb0yCq/ZrpennEDa97aremqCsbstdcA1U5bJVfmg124JYg+e0zNI+PWxjgkM3M7+MSgOAPIOIXg2mhex/wRe1ChdjfbV3hJvLbLOenFuXJywA8K62lbZ5O5iMX+FHKi1q9LXJuK7QSCZaHDt/Uh6rG4b42mFqWzXy9yAvBr35327e4Ae7OVtfzVF2EyH32wOTd9YrP7rbbNflyzgmr7FKfvjRuR+63ubfi//AFzziN0/OChw++0fACA/EIKRG9GuC/agu2jYXmXC9lh3cFUaXs6f+KNG5bDVbeNwLEwmdH1Qsl2vIDiD/j6Xz6J9t52Q6m4zr0sWcNPuopA6LCefZs1v/wAA+YIQPBvdGbV/uevpwfwGi7lv/UmmV8uY3XXBGyzMwLxL3n7JOVcUkSXmYcG7dkusAu7qBwMvs+v7J/9s1ysEvoP+TEh1t6UTcNP9IuB0Jwl8r1Qh12f/AAB5gxA8GzmXOi5ZGzf7wxSyZocQOXTuZWn2BO3EgXlTIyIPZnqs03SxjMwNyAdWt4LF0uK7X7Wy2bogRvyf/LNdrwD4BVcTUj1taQRcp4vCRx8m/yIQ7YMc2JUkRaXYCeQAgLxECJ6Vbsj+IXv2h6dWtcuBqhVS5wmIZbKpqlV6Gltlk2mZLHt2iBJ5IEezTaTvvLxjFaDVsS5dH9cfWR1nafD+NLXELi1csfEJaau2H+cDZ9aBio2tKqDXxqY5q9YXYtAXeVB8KozZrpcr14evSt/Z3M9961fBTrfNK/0uCimvKOeE8P4rybtVrG6QtsbYl5Ia9Vm07VgTWK0HAEwPrhiX1+KvqGaaXfQFMfR8wH5Xc3OeCzRx2ZqVwe993ZJtI2r+eulZ1eiZkzaevlLde0OnXdOgTe74opJuW0+95j/zxHRcMc67jSR8riBXs7lN9lmVWx96SrCAOWazXS+f2efR+xklXp3OXN2t3K/NWgiWcF783svLOc99nUED/5JvO3g9AMB0oBI8i1283iErz3XLobExb+iZMP10+1MH4LTdviBvqO0ko69U91TtNjmQbL7gbNx+V5rVcZ5Sx+WmQ/ehgdO+AVjL24tlGINHD8vuTr2P+ipvjnHpO34yaZDNdr385Ve9NW2ergh+3RNMWyoJ/X5TdHVQUlaKrYGJR6TnrPtzUD9r1gU3CMAAMNOoBCMHTEVXelWwDhpoVyablunLIquQlqyqCwAAMA2oBGPyzMU5BkcvJBkAd4MLXwAAgLxBCEbO1FQ+KQdKyxKuQFc3f4XsXOb0T74sb1AFBgAAM4zuEMiJTctesLo6JJXmQDwAAICpRghGztSVrpdnK5dJdVGJZ6YGZ1aIf7x5YxrmCwYAAEiNEAwAAIDQoU8wAAAAQocQDAAAgNAhBAMAACB0CMEAAAAIHUIwAAAAQocQDAAAgNAhBAMAACB0CMEAAAAIHUIwcqBMdta/IB83tsvO+aYJAAAgj3HFOOSADsHb5KmiMTl0rkP23zbNKEDms5Re2dL/bt5d5nrTshfklRKzEIifw9muZnOb7Nv4uXRsPSGnTRsAZIpKMACggETkm/XFIiPjct20AEA2CMEACsaxSy/Lyl7n1imHJnSrrvy626kCz24LZVG5urtxS/g7IIDJIAQDcCmVB4rMQ3hVr5Fde9ul6812eW1zxDRi2jU+KA3qru+XA/YyAGSJPsGFYv4K2Vm5Vh4rKZEa0zQ4cVneGzot+2/eMC2O+H6dZbJp2ZPytHvdsV7ZfSlZn88yqSttkn2VEakpcjphjqn13lfrnY9bL75PcObbqytdL89WNsq6aAAL2lZMXZUKJJUS6//pd47Gun33d1NVkzwdWaqOzTQ52xtSr52SKmIm59Ml4HN/4/IROZawn1l+7qWt0lPpPhdJqPO5Uu1vgoz205b95+dIty96Lv49iDTtaJf21WZBxqXnxcNy+JpZzJmItO1tleYbJ2XLjwakpnGNbP5uvTToyqcyPHJVug+ekNOB242o/XxCWlYXS4VpGT7bL93dZ+T0og3StW2B737bfWwl9lx1rex6pkFtt9h+gdpuR8B2axo3yPbvLpYKs4/63PQd75OjRwd8KrXe47P2d/PD0rJRrW+/QO3vSTmgnoutq/Zlr2tfklL7ST9hAGmiEpz31C/wZe3y8aoWecr1S1urKVoqT9VukwOlpiFeUUSWqGBxQAWAV+LXLWmUrvr1UmeWPcw6XbU6GLlHIan3KGmRrmSzQMzLdHs6oLygtuUOwFoa23LRgcr3HKmbN9iY/UsIfWZ7q9rlQFWZacuRLM9n4DGpz/2VVS9IT9B+ZvG5pxWAA2S9ny7pf36TkO2/h+lUvUQeVmFyWBZK2w4VTLfFArBWUb5Y2l9qk7Zq0+BWvUZee7NVBfVYANYqVtdb6+z6xmK19Ll85hNkqyp0wLSf04G466XHvaFT70PCejqctqt9dAdgrVgaNj4u+/au8Zxji3N8w7di++sKwFrF6sdlu7vSXr1QytMKwAr9hAFkgEpwvittlY9VeLKraqfl2G2n6qurmU+qMKdD1WV5vveIHLOfUJwKmVnUfSYH3opWjOvUe+pApp0aeFm237QeGiokNLbIOv1QbfOQp9JsKqgqQF7zrJf99uxqoD6GMfXcW+o5sy0VVnYuVaHIes/447M5654auyzrStT7q/19Pu4c1c2/4ansRrdnvdZdpXQqtep9Rjul+brzHpOVzflUzOdunZeh9+X167FqqD6f+3Sg1ufZUwGdzOfuMPs7kebsEFntpy2bz8/LOV7/94/JxXlRdHeIZ+xQOnz8iDx3dNQ8kUONulqrw6o2Ln2d78jR3lG7KmpVZ3U4VY/POpVUh3ruTfWcfjjSLx0Hz0SrtlalVgdVvaCe273nTFyF1lRnRT33drEVaq1qbPeADFrvEZGmRpHTaj9inO2Zqu+HzmsVtZ9taj+b1X72dXbIq72mXTPHN6zCqqhgW2FVmD9S+6rfW1exdYhXDxOOz2G263scAJAZKsH57uYR2XLuZWnu14HNHcxuyLHrHfL8mH4ckQeDqqU6WOiBQtHgJXJRvae9nvp9VeSt0tVVrTWBTYegI5717G0ekeZzncFBIZPtzV+vQqcdgHWIiQZg7fZ52d/vDHxaKk8nqSbqADU41Ckrfc5RUIAaHNVhyyxY1GvVfjb3q3OdswCc7flUoU2HceXUgDovrmCpWfs5cFk9KpHHSgLOS4afe3ZysJ9KNp9f1iZzXq6dkVf3dMiWrR1TE4CVmooF9gMd8rYeVgHSBGDt2oC8erBfhvXjsoWeKmvTDhOAdXhU4dDdbWGw94Q813nVXvAdTGYGmsliFZYXqOCqAr7ujhB9j9G4AOxsTwXYF9U+6m4Pru3p/Txs9rO8wtt32jm+Cl3ZVV8ktuzRXSyc91bb6TbHF0RXhfU9g+IA5AAhuABEg8D8MtlUul4OLGuXnvp2+bjRmTO1RB6YZ70ijgqXutppltyu3DG/9T3K5NsRE0ovJ6kCeoKKW4bbmxexf5GPvR9Qxbsh+4d0iFK/PCPLg/9UPdaddnC9OHbJ+uVZU/mkHKhaIXVTenGPLM/n/OXymK5aquD8etCXjZsX5ZS68z8vmX7uWZr0fhoZfH6TM03nZRLsbgnj0nMwoMp57ZaMmIdR1WukRVdPdXD2rZ7G+A4mc4KlCqYjnXbwTq5WHrX6RuuuGe3WQMGE20v1ni4ODvv4dIU4eSXd6i7hZ5Hd1YNBcQBygRBcAPSgsQP6imyrtskruu+s7s/o6VuaK87MAKPySa4rcD7qiuwq0eCdoASl3DGVMN2f02pIlHT9eLffleZzvXJqokTWVeo+wPpKd+qmvlTkPhRneT6dLwdFjdKl9833ZrpYzKQc7WdGn9+sFpH7rUK0f7/dIDWP2F0dhvuvBFZH7QrsuHz6qb3sYYKl7uLh6boQxMzOkDnn+K7KBwFB2zmWkWH/55usfs0BxwEAGSIE5zurv6IZNDZxWU4Ndcvz5zpli7rpOVGdP+MiAyoIb+9/WVaqc/j8kDqnE2MyqL5UOKG4Z5kKw+alwPQx3RLOfhI8u4FPdwCnevzRh0GVVXNxiYBw7QTL4PW9nC4Nur+v7hqS7Oat9prjSzJ4zTkW/5Cb3ZcEAAhCCM5rK+SAGXR0aMDuM6n7Xep+kxcDuyTkQpI+xlOgZl7Q9BaKU22cGJUrVkMOqXOo++Ru7++QZn2RhXPdKhCr/SlpkX05nSEiw/PpVL/1dGTRC0AE3Kbq0sZJKu9R+bCfs4mpsAZ2BVCaWuxuBpl1B0gWPrMPlvH9fVNyKsiB/XlT7UsaXxIAIAOE4EIwcUn+0TOgylEmD5pHuXFe3rEqyyXy1NIk00XNL8tJpdTpnyslawOmQYsNvBocvZCTEFVXmqTKe/u8bHf6ICcL5vNN95TGVNN/ZXk+b1+Q9/SAwMDzMh3SCO55sZ/TaIovluFUWIO6AuiZFex5inV3AqvFpVgWLTIPPfSMC2bQXLJBcRlMLTY4/Ll1X1G/xDM4z62m0Xx5dYlWkAMDfIp9cargAJAjhOBCUNQo+3R/VbOow6Ge1qlHT/uU467Bx4Z67V+Uup9nfavsLHWHPLPdVduka9kK0zYJt9+VN5yQqOfndW9LT5EWndbqsryRi4FTejaKWnteXqvLgwqfbnV6DlkzVVayfqqbXBf10APskgXA7M6nMyDQnJeEvsp6ajW1XmOrbDItueMN7pvc27UGZrr3fyb3c/rpKqwzZ2/Fxif85+qdBGfQWMM2HbJrXSFSB9m26NRpfZ3ei0FcHx637hu2bZAm1z7pC23s2mumHFN8K8zZzLbQ+4n06fvyemsuYM829fRo1vzGrbK50TQaybs6KE4lPEnfZsvqBmlTIdthb1Pth1kGgHQxT3Cei82j60NP9zQq1oUfvPObpp4/1XlfPTVVwsh8FRZ7VjUGVnms7hm+89Nmsz1nXbOYIMtjCJB4ZTofKebI3bTMmZVDC96/qIzPpy3pZ6+pz1/PdpCbz8El6f7qKca8Myxkvp+2bD4/77kPEn/8uTkvU3vFOGeu3nEZluK4i0/E+M9P7JojOJ6eh7d/gbS7rwbn5szbm+m8x575jBMlXvXNHF958BXd7KvWFSfOLRzlvIdZjBO8HgD4oxKc5y5e75AtA5dl0Jov19ChwvQRPuZuzxU9g0KvPWjMs10VLvRlbLfoeVZ9gkR2bsj+/pfVMeoZG0yTZSq2peeEtQfF2dvzjirUFyTR5zXVRSJ0ddfZ18Ght1LvX5bnU3/2up/yoTH1OtNmUfutB0ha8w7n8NxEWTNo6P7RfufndMIUYzO2n9NMz2HbZ+YnGz7+To4vmWy6Atzok+f2HJGOszoMx+hLH3e8GDQ/8YC8+uJJ6VHrRI3oC20ckd17TpiuBf79bFN2wQjSe0K2qG32qe24RffTE4C11N0uUlaKZVQOq3PjOU5FX0pab5MADCBTVIIBYKbpSwi/VG9dQCKjiiwAIGtUggFghqWaHxcAkHuEYACYYam7AgAAco0QDAAziotAAMBMIAQDwIzKfK5eAMDkMTAOAAAAoUMlGAAAAKFDCAYAAEDoEIIBAAAQOoRgAAAAhA4hGAAAAKFDCAYAAEDoEIIBAAAQOoRgAAAAhA4Xy0DM/PXSs6pRasxi1ESvbOl/Vy6aReS5xg3StW2xWYjp6+yQV3vNAgAAIUclGJhWEWnavEFe29suXW/at9d2rJGmavN0DtRULDCP3K7KBwRgAACiqAQjiRVyoLFF1lEJzomaxg2yfdtiqTDLXlelY+sJOW2WcicibXtbpVn6ZfeeM8K/FgAAbFSCgWlQs7lN9pkAPHz2pOx+sUO2bNW3I9JxfFy1Lpb2HbXWa3NroSwqV3c3bhGAAQBwIQSj8FWvkV2me8FrmyOmMY+o/du+sVg9GLf65T73owEZvGY/JTIqp48elt2d/bJbtedc44PSoO76fjkF7w0AQAGjO0TBKJO60ibZVxmRmqIS0zYmg2Pvy+5L5wO7KtSVrpdnKxtlXZFpSGOdmMy7Q2SzvboqFWArRQ6d65D9t1XD/BWys3KtPFZSEh2kNzjWHfgeTTvapX21WVBBs+fFw3I4GjJzLaK294S0rC6OdmsYPtsv3d1n5PQiPSBtQdz2TXeE8iwHplWr7bV4tycjV6Xn7Y/kcO+oaQhmVaA3SvrnJMvtJWynulZ2PdMgDeU6/CvqPToOnpDTU/a5AACQGSrBhUCFwgP126SrdqkrAGsqJJa0SFdju+ycb5qiymRn/QtqHXcg1ZKtMxm52Z4OxB+vapGnXAFY04/TCeFTqnqNvPZmqwrcroCoVKyul/aX2mTXN/SMDJ/LZ+6g1/iwFYBlpF+OZhiAdR/i115K3J6UL5bmba1pVb2rKnQIjdunAJPZnns7OhB3vfR4LABr+hwQgAEAeYQQnPdUAFah0AqWE5fl0ECnrOx92dw65fmhyzKoguYD8+xXO+qqnpSnrDA6Jqfc65zrlkMTur1EnlrVKpv0wxyY/PbUMVS2SlelCvnqOJ8/5z3OLUPnzesSne7ul74R+/Hw8XemqApcK7teqrfDoQq0HdE+vR2yu/OqDEuxNOhq9Mi4XNevMZqsYCzS93aGg9JUIPX0ITbb0n2Idx+/ar2kYuMT0pZ0VolaeVTv09lPUg+4m9T2InJ/mbrTx67fZ2NxYr/nzo+mYNAfAADZIwTnubqqtbJOP7C6JByR/TdvWO22G3Ls+hFpVoFx+03TpM1fL/t0mFSBVHcx2O5e5/Z52d/faYLpUnm6SqeXScrR9taVLJXBIRV+1XEeu+09zou6m0SQa2fk1T124HruaOouAtlo2vG41bdWVLjbsueM58/6g70n5DkVhC2eAWgmhGY8PZkK3Gae32gfYmtJG5XBoydUMNWD6Yrl4UeSVIOrF1oF2OHhW/ZyoMluzwy+k8WyfdsC9R5HEvs9p9F1AwCA6UQIzmtl8u2ICZeXk/TJ9QRGZV7E7kow9r7dxzbBDdk/dNl6VBNZLnXWo0nI1fbGuqX5etyx5IPqNdJiVXlTD17zHYAWVx1OpWZzgxW4h48fCexDPPihrj6LVFQstBv8LLK7NYwMJw+gk96eCdtSXiwjnYfVexB4AQD5jxCc10rlAauLwah8kqwSGqeuyK7WDd5xl4fj3Bm1q33qtUushuzlantJ159BNY+YbgL9V1wVUi/7AhXj8umn9rLFCYcZsvvXjstHH04uTNpdMVJXoSe9PRO2k4VoAADyDSEYSCF1SIzIN+tjA8Mmx/SvTfVeTvAM7Org6qdrNwSY/PbssD350A4AwHQiBBeEiDyYxUwONfNKzSMfTheGiVG5YjVM3nRvL3+YPrHxgfPaLbHG65UXS5XVkCsRafuu3Yc3uKtDLi+SkWx7aYZoAADyDCE4r52Xd8b0fYk8tXR9cF/a+WWe5y6OXbKDT8nagGnJymRn5VLr0eDohdRTj6XoMpHz7WVqWi6WUSyLFpmHHnreYDNoLiFwDsgHZ/X9YmkJ3C/z5SBqVD6zukUvlkcbrYYENZufSD3tmrlIRupBcZPdXsAXAAAA8hwhOM8dG+q1g1VRo3TVt8rOUvfsCvoCGq3Ss2qbdC1bYdqU2+/KG054XtUuB9zr6AtR1G8z05ldljeSDkS7Kb+NzuqwIha01XtscofdnG0vO00t9dKgg5iSetqwzF0f1jMjiDRs2yBNrveuadThW8+ray/7BU49fZs1oGxjq7y2o9YTeK15ed9slX1713jaT//SnmmiYVub7Gp0hefqWmnboS9KYXfP6DmYetq1ivolsX3WF8Jwv58xqe05/Z65LDMAoMBwxbhCMH+9CrqNcRVDN3tqMu/MDPriFU749OO3TiL7am7uC3QYY92y8pJ77t7st+dsQ0+Pls3sEFN/xbha2fWmqfbG01dC618g7UmuymZfTU0HST/+++s9pnjpHGPAPusZLvYkhtmst6eCfNe2xdaguKmang4AgKkw976ysh+YxwXnq19dIL///edmaRb716vSNTQgn835X+WB/yUiC/7AtKtgOTj23+SZs8fl7X81TVH/n5wZOS2n/uUrUjqvSmrSWifR6O8/klNzyuQbX1XbNW3WRTtuXJQzd/4/06Blv73Srz4s3/vqPPn8f/RL1+/d75meazfmyuJl5VLx70SFsWPyw5/fMc/kypj8/Ozv5Q8WFMuycpPyR8alr+uYHDj0K/n9H66Qx2s/l3f/7yu+F0X7/MKv5R/U+ouXFat9dL4ljMvw2V75v/ackp/93jS5XPvgI/nlzYgsryiWf6eOy6K3ebpXDvyl/zpeep9j50UbVoH93bd/LT8bSjw/2W6vZs3D6tiLZODUKfn5kGkEAKAAUAkGAABA6NAnGAAAAKFDCAYAAEDoEIIBAAAQOoRgAAAAhA4hGAAAAKFDCAYAAEDoEIIBAAAQOoRgAAAAhA4hGAAAAKFDCAYAAEDoEIIBAAAQOoRgAAAAhA4hGAAAAKFDCAYAAEDoEIIBAAAQOoRgAAAAhA4hGAAAAKFDCAYAAEDoEIIBAAAQOoRgAAAAhA4hGAAAAKFDCAYAAEDoEIIBAAAQOoRgAAAAhA4hGAAAAKFDCAYAAEDoEIIBAAAQOoRgAAAAhA4hGAAAAKFDCAYAAEDoEIIBAAAQOoRgAAAAhA4hGAAAAKFDCAYAAEDoEIIBAAAQOoRgAAAAhA4hGAAAAKFDCAYAAEDoEIIBAAAQOoRgAAAAhA4hGAAAAKFDCAYAAEDoEIIBAAAQOoRgAAAAhM6ch1auumseF5yqqhq5fn3QLCHcItK0+WFpqV8sFeWmSa5Kx9YTctosAQAAOAjBeWuO1P75XFloltJx66f/JgMXzMKMmSOVfzJX7pcv5Vd/86XcMa1TrWlHu7SvNgtRhGAAAOCP7hCYBSJyf5n9qK/ziGzZ2mFuBGAAAOCPSnBBMVXWhXfls7/9QoZ+Z5rzykxUgiPStrdVmqVfdu85I3SQAQAAqVAJRs4VZdKHAwAAYAZQCS4oWVSC71Xr/NE9snDJHCkyTRO31PpvfyGjCes77x/Uvzhg+8vnyso16v3TCb9XvpAz3bn/kbP6BJdRCQYAAOmhEjyLzVs7V9Z8X4VWVwDWihbOkSXf/4qsXDvHtDjuytDffCG31KOF35krlffarY55a++xAvLEB18mBPC8qP6WF0uVeQgAAJAMIXi2Wj5XHnpUh9y7cuuDL+RXf/VvcsbcfvXTuzKhnil69J6EoKtfP6Ce11Xf+797j8yzG0XuvUe+pt/v1pfym/fjKrkXvoi+95m/skO0fp17m9HbFFSBAQAAMkUInpXmSOUau8p766dfyIAKre4BandUaP3YBN2FS+OrwYp6/soVdb9QBV+rWqzeTwXiIhWQP3t7+qY9S09EajZvkBY9PdrIuFy3GwEAAJIiBM9G96pwq7sn3PpSPg2aN/jCl1bFtuhrc2LVXpfRbruiq6vFtS12NwgdqPNmRorqNfLam+3S9War7Nu4WCpGrkrPQfoDAwCA9BCCZ6OI6QO88B556M+/Imt8b6kuxHFXBv72S5nQ1eIlc6wBbTN/IY5gw+r2mf0QAAAgJUIwAs1b6hpQt9C/Yjxjrp2R56wLYhyRjuPjUlG+WNqfWSM15mkAAIBk5t5XVvYD87jgfPWrC+T3v//cLIXBHPnq6nvk36tk+j8/viv/47ZpjjdnjpSsnCN/oKcj+5sv5dOfJ7mdvSv/albzWD5XGh6zK8BXfjNHFn5NbXfuXfnnlJ1u1bb/6B4p0vv4c29f5KlxR65d+LX8rvphefhr/yID3VfkmnkGAAAgCJXg2eh3d+WW7tC7xG/2h3TMkdrv6AFxd+VK910Zff9L+Uy9X9Gjc6V2uf2KdBRltW0AAICpRwiele7K0Bkzzdn3VXBdO0fmeQLpHImsnSsr/3yuREyLW6TF7i+sB8KNWi3q/d7W/YPt+YP91olRAVzPLKG3/d17JOLe7r1qu8t9ZqMAAACYZoTg2erCF/KrD8w0aI/OlYe+7x0Ut+TROVKkq7vx1drl6rkl6j5+INzvvpTfmPdb0pI8yI7+3A7MemCevihHdLsqkC/5jgrG1qtyKSL3l6k7pkgDAABpIgTPYnfe/0LO/O0X8tkV++IYUbfMBTT+Jm7Ks3vvkZWubhDx9PtZ8wcvmetztTkXFZg/Vtu9pbbjZl2u+adfmuoyAADAzJnz0MpViWmnQFRV1cj168wMi4i07W2VZumX3XuYKxgAAKRGJRizR3m9bG7MfWcLAAAw+1AJxqxQs7lN9m0sNkuOq9Kx9YScNksAAAAOKsGYFQaPHpbdx6/K8IhpAAAASIJKMAAAAEKHSjAAAABChxAMAACA0CEE5zHd3QMAAAC5RwgGAABA6BCCAQAAEDqEYAAAAIQOIRgAAAChQwgGAABA6BCCAQAAEDqEYOSZMtlZ/4J83PiC9FStMG2Zct6jXXbON00IlcjmH8qfvvn38p1G0wAAQBwum5zHQnlZ6PnrpWdVo9gzJF+W53uPyDHrcSZ0CN4mTxWNyaFzHbL/tmkuIDrEbdlYbpbSMPIT6drTJaNmcabY+z0s72z9ofr0Ulkr33nzWXnALAU6+7r89Y/eNwvpqJFv7v1LaSgfkb4X/0x+cc00AwDgQiUY+eX2BXlvwn44OHQxiwAcUjc+m/EArMPn1+pVcB/5TMZMS1KNj6QOwMr48JB5lK5KKdbfH0Y+kt8QgAEAAagE57FQVoJzovArwX6c6vBvO/+j/LTXNOYVU9nNuHJry9nxVW+R//TSH0txlvsBAAgHKsEIr+o1smtvu3S92S6vbY6YxvxVUmGVN2X8U3s575jK7m9/mV3wzNnxLbpfitVd5hVkAECYUAnOY7O/EuxUbM1inMGhTmm+fsMs+SmTutIm2Ve5VGrMewyO9cobQ++KVL4gr5QkrwQ37WiX9tVmQcal58XDcjinfz43fVNvvC5/3S3yzZYWaVituwv0Sd/BH8ovZG1iW+D2nf6zfWn2txWJNP6ZfPu7DXbXAMuI/PZ4t3x49H2frhNOP9qA91fv9afbGtRbuPseq33a2yIPlEc3kESq/c70+Gpk6Y7/U76hzp0OvNr42Z/IL7u7ZOyRfK+YAwDyAZVgFCg7QHfVxgKwVlPSKK+sapen55mGGWX6psoj8p2XnrXDrlbeIA+0/Jn8p7i2hpa19mM/1XZ1U85+mN6As71/L1tUaI0FYK1cHtj4rGzZu0US696D8ou3+9R9g3xjsz0sMUp3L7ACsAqo7sF3ep/SCsBKqn7CmRyf3p83/1KecAVgrXj1H8sTL/2ZPKL7Jasw/QkBGACQBCEYM+iG7O9/WVb2em9bhlIPq9q0zKkgj8mpgc7Yuue65dREiScYBznd3S99I/bj4ePv5LgKrDjBbrUKvWdfl66t/1H+ulMHTR3YVECNa0sq7T/xm4pqua76qvd/Ub2/3oa+vfi6fbzlfyyP+E0d1vv/WM8Xb/zfZalpst5P96/VFdo9cRXaa13yd857b31dfqvbdKU42ua6pZq5IpPjs/ZHUdt6x3V8Xeo8jqsQ/4DOwOkOzgMAhBYhGIVn/np5ukQ/sLs7bL8Z6zJx8fZ52d7fKYfMDBNJXTsjr+7pkC1bO+S5o1Mwt4IJdlYw/JHpgvDpZyqoxbUZyQJgpKLCuh8fTt49ZukO06XgxT+Tn+puD+5gf+19+cXBn1jbL66Iq/Za4qvBuouEfj891ViKLgpO4M9ylorMjk/Rg95UsL7sOr7R3h/K31lBWMmL2TIAAPmMEIzCMy+i4pky9n5ez/zgBLvfvu2qgppg7G5LJwCmN2hsrTxo9XFukCde+nvrYhEJN6eKGsRVDf7mjgzm2nWOK6tBcWZqtVRdGKq3yDf08ZkvEEH0fjAoDgCQCiEYBaeuyO7ROnjnpnWfr/yC69JvNKj/etvs1yULgE64HZZbycJomvPuJherBjeobf62M72LTfgdV/qceX2Td2GIPPKwHXD7zwRWedOtKAMAQAgGpoRfcK2RhWX63t1mXpcsAKY5aCxaee509cUNuP3d0aCQWCPf/K4OtJnwO64MpNmVwvlS8dsPg/c9rYoyAAAKIRgFq2ZeqXmUh3yDq6l4utvSCYBpDxqz+ff3Tc9SpwtEpz3Q7YHv+s0kEc/nuDKR4fEFS6+iDACARghGwbk4dkmsWmBJnWyyWuLML5UH0pgdYkovluEX7Ex3BU9bGgEw3T/xjw4PW/fF9WsCg2uksSbwuaU7/l6ecLpA9L4vHx4fCZ5Jws0J8llyulIEV3jdyqV4kXnooecNNoPmGBQHAEgDIRiF5/YFec+a/WGpvFLfKpvmW62WutJW6VnVIuvMcjJNLfXSoCuHSsXGJ6St2n6cC37BNd22eGlfSa33Q3uaMhVc9VzAS13HE6leK9/c8UPZsu0vfUOtvmSxDsDjx/8ieoGJ0aPdGVSDldUt8k0Vsh32NtV+mGV/6XelGBu257N7YNufeY+tcYt8Z6+eN9hennxFGQAQBlwxLo/N/ivG+aurapeuypLkV4ybv16F3UYVoXxMXJZTd5bKuhm8YpxdVfXOrGC3ua+IluIqbZYMr6TmXNktwPjZ1+Uf46Zm01eW0xfWsKYdi5t1QYdjffU1HY6T9iO2jsMsxvFeuS35a6P0DBAJcws758KHvpBHf4U8sVHSm80CABB6VIJRmG6/K83nuuXQmLv355icGuqWLf1H5PU7qXuFTt3FMvyqm6bN0181jT6saQ6Ki+r9oXVRjN+OmAMz9CWF9YUl/i4oAAdMO+ZUg70X0Ig3KL/Y8xfSdzZumzqYqm16L11sjjkV3y4N78tP9QU/3NtRx/nbzr9QgfmH5hxmOTgPABA6VILzWFgrwQAAAFONSjAAAABChxAMAACA0CEEAwAAIHQIwQAAAAgdQjAAAABChxAMAACA0CEEAwAAIHQIwQAAAAgdQjAAAABChxAMAACA0CEEAwAAIHQIwQAAAAgdQjAAAABChxAMpFQmO+tfkI8b22XnfNMEAAAKGiEYQIiYLzT166XOtOSTTcv0l61UN76MzXY1m9uk680N0mSWAUwNQjAAAHkjIt+sLxYZGZfrpgXA1CAEA0CeOHbpZVnZ69w65dCEbh2TQ+fc7R2y/7b1csxKC2VRubq7cUsG7QYAU4QQDCBESuWBIvMQXtVrZNfedul6s11e2xwxjZh2jQ9Kg7rr++WAvQxgysx5aOWqu+ZxwamqqpHr12fvd+XZfnwe81fIzsq18lhJidSYpsGJy/Le0GnZf/OGaXHofp3b5CnplS3978pFtbxp2ZPytHvdsV7ZfUk/F6RM6kqbZF9lRGqKSkzbmFrvfbXe+bj1zPaKdEVOV+Ey315d6Xp5trJR1kUDWNC2YuqqVCCpFLNN1eB3jsa6ffd3U1WTPB1Zqo7NNDnbG1KvnZIqYibn0yXgc3/j8hE5lrCfWX7upa3SU+k+F0mo87lS7W+CjPbTlv3n54j/uTPNCXLx70GkaUe7tK82CzIuPS8elsPXzGLORKRtb6s03zgpW340IDWNa2Tzd+ulQVc+leGRq9J98IScDtxuRO3nE9KyulgqTMvw2X7p7j4jpxdtkK5tC3z3W/ex3bdRYs9V18quZxrUdovtF6jtdgRst6Zxg2z/7mKpMPuoz03f8T45enTAp1LrPT5rfzc/LC0b1fr2C9T+npQD6rnYumpf9rr2JSm1n1vVfpolAJNDJRgzTP0CX9YuH69qkadcv7S1mqKl8lTtNjlQahriFUVkiQoWB1QAeCV+3ZJG6Qoa/GTW6arVwcgJbJp6j5IW6Uo28GheptvTAeUFtS13ANbS2JaLDlS+50jdvMHG7F9C6DPbW9UuB6rKTFuOZHk+A49Jfe6vrHpBeoL2M4vPPa0AHCDr/XRJ//ObhGz/PUyn6iXysAqTw7JQ2naoYLotFoC1ivLF0v5Sm7RVmwa36jXy2putKqjHArBWsbreWmfXNxarpc/lM58gW1WhA6b9nDXo7KXHvaFT70PCejqctqt9dAdgrVgaNj4u+/au8Zxji3N8w7di++sKwFrF6sdlu7vSXr1QytMKwAr9hIGcohKcx0JRCS5tlY9VeLKraqfl2G2n6qurmU+qMKdD1WV5vveIHLOfUJwKmVnUfSYH3opWjOvUe+pApp0aeFm237QeGiokNLbIOv1QbfOQp9JsKqgqQF7zrJf99uxqoD6GMfXcW+o5sy0VVnYuVaHIes/447M5654auyzrStT7q/19Pu4c1c2/4ansRrdnvdZdpXQqtep9Rjul+brzHpOVzflUzOdunZeh9+X167FqqD6f+3Sg1ufZUwGdzOfuMPs74VRNU8hqP23ZfH5ezvH6v39MLs6LortDPGOH0uHjR+S5o6PmiRxq1NVaHVa1cenrfEeO9o7aVVGrOqvDqXp81qmkOtRzb6rn9MORfuk4eCZatbUqtTqo6gX13O49Z+IqtKY6K+q5t4utUGtVY7sHZNB6j4g0NYqcVvsR42zPVH0/dF6rqP1sU/vZrPazr7NDXu017Zo5vmEVVkUF2wqrwvyR2lf93rqKrUO8ephwfA6zXd/jAJBrVIIxs24ekS3nXpbmfh3Y3MHshhy73iHPj+nHEXkwqFqqg4UeKBQNXiIX1Xva66nfV0XeKl1d1VoT2HQIOuJZz97mEWk+1xkcFDLZ3vz1KnTaAViHmGgA1m6fl/39zsCnpfJ0kmqiDlCDQ52y0uccBQWowVEdtsyCRb1W7WdzvzrXOQvA2Z5PFdp0GFdODajz4gqWmrWfA5fVoxJ5rCTgvGT4uWcnB/upZPP5ZW0y5+XaGXl1T4ds2doxNQFYqalYYD/QIW/rYRUgTQDWrg3Iqwf7ZVg/LlvoqbI27TABWIdHFQ7d3RYGe0/Ic51X7QXfwWRmoJksVmF5gQquKuDr7gjR9xiNC8DO9lSAfVHto+724Nqe3s/DZj/LK7x9p53jq9CVXfVFYsse3cXCeW+1nW5zfEF0VVjfMygOmBaEYMy4aBCYXyabStfLgWXt0lPfbs2J+or11/USeWCe9Yo4KlzqaqdZcrtyx/zW9yiTb0dMKL2cpAroCSpuGW5vXsT+RT72fkAV74bsH9IhSv3yjCwP/lP1WHfawfXi2CXrl2dN5ZNyoGqF1E3pfLJZns/5y+UxXbVUwfn1oC8bNy/KKXXnf14y/dyzNOn9NDL4/CZnms7LJNjdEsal52BAlfPaLRkxD6Oq10iLrp7q4OxbPY3xHUzmBEsVTEc67eCdXK08avWN1l0z2q2Bggm3l+o9XRwc9vHpCnHySrrVXcLPIrurB4PigOlBCMaM04PGDugLGKzaJq/ovrO6P6Onb2muODMDjMonua7A+agrsqtEg3eCEpRyx1TCdH9OqyFR0vXj3X5Xms/1yqmJEllXqfsAmwssqC8VuQ/FWZ5P58tBUaN0eS4C4b6ZLhYzKUf7mdHnN6tF5H6rEO3fbzdIzSN2V4fh/iuB1VG7Ajsun35qL3uYYKm7eHi6LgQxszNkzjm+q/JBQNB2jmVk2P/5Jqtfc8BxAMg5QjBmltVf0Qwam7gsp4a65flznbJF3fScqM6fcZEBFYS3978sK9U5fH5IndOJMRlUXyqcUNyzTIVh81Jg+phuCWc/CZ7dwKc7gFM9/ujDoMqqubhEQLh2gmXw+l5Olwbd31d3DUl281Z7zfElGbzmHIt/yM3uSwKA7BGCMYNWyAEz6OjQgN1nUve71P0mLwZ2SciFJH2Mp0DNvKDpLRSn2jgxKleshhxS51D3yd3e3yHN+iIL57pVIFb7U9Ii+3I6Q0SG59OpfuvpyKIXgAi4pTN4LRtJKu9R+bCfs4mpsAZ2BVCaWuxuBpl1B0gWPrMPlvH9fVNyKsiB/XlT7UsaXxIA5BQhGDNv4pL8o2dAlaNMHjSPcuO8vGNVlkvkqaVJpouaX5aTSqnTP1dK1gZMgxYbeDU4eiEnIaquNEmV9/Z52e70QU4WzOeb7imNqab/yvJ83r4g7+kBgYHnZTqkEdzzYj+n0RRfLMOpsAZ1BdAzK9jzFOvuBFaLS7EsWmQeeugZF8yguWSD4jKYWmxw+HPrvqJ+iWdwnltNo/ny6hKtIAcG+BT74lTBAUwbQjBmXlGj7NP9Vc2iDod6WqcePe1TjrsGHxvqtX9R6n6e9a2ys9Qd8sx2V22TrmUrTNsk3H5X3nBCop6f170tPUVadFqry/JGLgZO6dkoau15ea0uDyp8utXpOWTNVFnJ+qlucl3UQw+wSxYAszufzoBAc14S+irrqdXUeo2tssm05I43uG9yb9camOne/5ncz+mnq7DOnL0VG5/wn6t3EpxBYw3bdMiudYVIHWTbolOn9XV6LwZxfXjcum/YtkGaXPukL7Sxa6+ZckzxrTBnM9tC7yfSp+/L6625gD3b1NOjWfMbt8rmRtNoJO/qoDiV8CR9my2rG6RNhWyHvU21H2YZQO4wT3AeC8M8wbF5dH3o6Z5Gxbrwg3d+09Tzpzrvq6emShiZr8Jiz6rGwCqP1T3Dd37abLbnrGsWE2R5DAESr0znI8UcuZuWObNyaMH7F5Xx+bQl/ew19fnr2Q5y8zm4JN1fPcWYd4aFzPfTls3n5z33QeKPPzfnZWqvGOfM1Tsuw1Icd/GJGP/5iV1zBMfT8/D2L5B299Xg3Jx5ezOd99gzn3GixKu+meMrD76im33VuuLEuYWjnPcwi3GC1wOQLSrBmFEXr3fIloHLMmjNl2voUGH6CB9zt+eKnkGh1x405tmuChf6MrZb9DyrPkEiOzdkf//L6hj1jA2myTIV29JzwtqD4uzteUcV6guS6POa6iIRurrr7Ovg0Fup9y/L86k/e91P+dCYep1ps6j91gMkrXmHc3huoqwZNHT/aL/zczphirEZ289ppuew7TPzkw0ffyfHl0w2XQFu9Mlze45Ix1kdhmP0pY87Xgyan3hAXn3xpPSodaJG9IU2jsjuPSdM1wL/frYpu2AE6T0hW9Q2+9R23KL76QnAWupuFykrxTIqh9W58Rynoi8lrbdJAAZyj0pwHgvFFeMAzH76EsIv1VsXkMioIgsAU4hKMABgSqWaHxcAZgIhGAAwpVJ3BQCA6UcIBgBMIS4CASA/EYIBAFMo87l6AWA6MDAujzEwDgAAYGpQCQYAAEDoEIIBAAAQOoRgAAAAhA4hGAAAAKFDCAYAAEDoEIIBAAAQOoRgAAAAhA4hGAAAAKFDCAZQ0Jp2tEnXm+3y2o5a0wIAQGqEYOSJMtlZ/4J8XL9e6kxLfiqU/cxeTeMa2bXXDpbWTT3e1RgxzyZXs1mvt0GazPKUq14jLauLrYcVZQulxnoEAEBqhGAAUTrE7ttWLw3ldrC0qMcN21pVGF6TImRG5Jv1ar2RcbluWqbctSvy0Yh+MC59/VeEi4wDANJFCAZgq14j2zfq8KsCZecR2bK1w769eFJ6dNAsr5d9SbscLJRF5eruxq1pDKOjcniP3s/D8urRUdMGAEBqhGDkiVJ5oMg8zGuT2E8VMnfttbsYvLY5ve4F06nmkcVSoe6Hj78jr/a6AuW1AStodhzvl47uAdPoo/FBaVB3fb9M8hoAAPLEnIdWrrprHhecqqoauX599v4BdLYfn5S2Sk/lUqlJJ1SOdcvKS+fNgsv8FbKzcq08VlIS/VP94MRleePyETl22zRE6f682+Qptb1TAy/L9pumOcp5fkwOneuQ/c76udhPpWlHu7SvNgsyLj0vHpbD18xiTkSkbW+rNN84KVu6RdpaGqRZ95cduSo9B0/IYalNbHNt3+oKsbFY+jo7VAg2jUnVqlDf4O06EeiqdGw9IafNksPepsTORbV6z2dc76n2s0Pt52lnPxs3SNe2xWbBZaRfdu85k6QC7To3P9IhPSJNmx+Wlo128NeGz56UA+o5//dQr9/xhNX/OPb6funuPiOnF+l9WjAFnycAYCpRCcaMSitYBqirapePV7XIU64ArNUULZVXVr0gPVVlpsVxQ/b3d8sp9WhdbbvsnG+3OuqqnrQC8uDQW7EAbExmP6eP6Y4gD8qulx63w65Wvlgebtkgr8W1Nbd4uzYMDn9u3Td8N1XfX6N6oZSnFYCVgH7CVRV6/c/lMxUerUF1ah+9/ZHVzR3UKxaYR17DqfoDVy+Rh9V7DQ/fsiryr73ZKu2uAKxVrH5ctvtV6J3XuwKwVrG6Xtpf2iC7vqFDuX0MAIDCQSU4j836SrDHCjnQ2CLrJnplS/+7ctG0BiptlY9rl6oHY3Jq6H15/fr56Dp16rl96rka9Zynoutw1nVva/566VnVKDUpt5/hfrrp7hDP6EFnusvBEXku131YdVh7qd4OamdPym5d1XRXTuPb1LJdFXWYaqkOnrpS/PZHctjdLSKpWtn1pgqwKSuybmZ7otZ5u1j2qX2yqrHdah+tQBmRpkaR08n2wRxLyuq1ed2wCuN6oF+FVWH+SE5f0++tq7w65KqHCefEHJd6FK38mrBbo95zu3pP63xndNwAgHxAJRgFqEx2VuoArLs1dMh2VwDWLt48Is0Dl9WjEnmsJL4arKjnnx9T90WNss+qFqv3W6oCsA7NlzMMtpm4dkZetQZxdeQ+AGuLTKVSBzLnz/qfjstwfJthVUU99CCzI9JxVgfFxdJszQixQZqqzdPJ6Kqwvs9oUJxTuV6swuQCazDec3ofoxXV0eQBWLErw+Py6af2chCnglyhq8zqC8iWPbqLhfPeajvd/fZ5itO0wwnAJ9W+xQKwNth7Qp7rvGo9TlmJBgDkHUIwCs/85fKY7p4w0SuvJ/TrNW5etLo91ESW+87ne+yS3S2ipvJJObDM7gahA3VC1biAOEGv721XRdIEY3eb87qRYb+AqQLhjw5bM0L0WTNCLJb2l/Q8wfazgZztZDIozgnOKpiOdB72DsZLizMl21X5RYquCHa3C7V/Omgn+QLi+WJQrecgVvfqC4TuK5yM/7kEAOQzQjAKz7yI3We1qFG6Gl+Qj31vLbLOenGQ87L9XK8KhiWyrqTEGtCWOFCusNhBz1sVbbL6q3rb7NddlQ+SdR+4NmBVrXd3XpVh0fMEt0lbkoqw33ZSMsFZdw1JbyBevHSnZIvI/dYfBPQx+4dVZ2YMd5iNzpaRpMqbbiUaAJB/CMEIrbqSZbEBYPNKC/wKcLXyqDXzhHuAlhP+3G3mdWle0EL/yf/A8XH1qFgefiRoWje/7aTmBOePPsyyipr2lGwmLCc5Zr8vEE5b8P6ZSjSD4gCgIBGCkV+KIrLEPAx0Z9SuzOnpyHpfTn4LGrxW2ipdlXYF+PmhMVf/4DSls5/TyelacPYT1zRkJvy527Lou+vMGlFRsdC6T+SznZSyC85uaVdhTVgOPuYs98XMODGtV8gDAOQMIRh5JiIPxk1dluD2BXlvQt2XrE2Y5iw9K+SANbPEZXn+0nk5dv0tOaTer6ZymxwotV+RWhr7GU/PDjFVF8twuha4+7Sa8OdpS3idnqFB7VOSSyI7fYgTB9IZTrDOSOrqbCp2pTZ1cI32lQ6sGCfbl4AKeHWttD1jZuKY1ivkAQByhRCMPHFe3tEzNkiJPLV0vWxyB8z5ZbKp1F2lvSH7h+zZH55a1S4HqlZInSeQqtdXtUpPY6tsMi1um5bZ/YVPDRyRY1aLer/Lun+wnj/Yf52YTPbTq6nFnh5Nq9j4RNI+tpnyG+yWXtuofHZD3elLIlszQbgDn546zL6ARlrdFlY3SFtjbP0aHRR3rJEms+yR1WwSbk71drG0uL5Q1DTWJsxm4dfVwcP5shDX9/f0L+2ZHyo2tqovLfp9I+aY2uw5l81nyRXyAKAwMU9wHgvXPMGKM1evWfS6LM/3OqHVpi+WYXVpCDJxWQ5dPuKd8cGZI9jnym7R90ty1TdLhvvpmMorxtnv7X1Pu819pTZnHuDEq7fpsKsvBuFvXPqs2RvMYgLX/MI+fOfwdebtncR8yc4V7uJ5txd8zI5kV8rzfmYx1pzBw4ul3X21OwBAQaESjPxx+11pPtctpyasUmuUvgzyoYHTCcHy4vUOWalef2hszFtNVOufGuqWLf1xAViHV1c3iHj6/az5g0tafK4255Lhfjr0XLTWtGPK8PF3chic/Pq0mjbPn/iD/+yvp0Xb3an3Tw+Cc4xbYa9DhbzkszfY8wv36PmFXYb1BSle9L+IhV+VOlODR9+x5zSOUmH9+Ek56tle6m4XySrFp3+kZ8hQ50VtR19oo886H3o+4ytyP4PiAKCgUQnOY6GrBAMFI5sr5AEA8gmVYADIUM3mBt9+xACAwkEIBoB41WvktTfbZNfmWm/fbzMwzu6LfFW6p+Ly1wCAaUF3iDxGdwhghugQ/JKZAs1Xbgc2AgCmH5VgAIh37Yw8t/WINfBu2DRZ9OC44ydl91YCMAAUOirBeYxKMAAAwNSgEgwAAIDQIQQDAAAgdAjBAAAACB1CMAAAAEKHEAwAAIDQIQQDAAAgdAjBAAAACB1CMAAAAEKHi2XksbBeLKOudL08W7lM1hWVmBaRwYnL8t7Qadl/84Zpmc3KZGf9NnmqaEwOneuQ/bdN81SZv156VjVKjVmMmuiVLf3vykWzmLlpPo4MNe1ok/bVxTJ89qQ896MB04q0NW6Qrm2LzUJMX2eHvNprFvJETeMa2fzdemkoNw36yn/9fXL06IBwOaJwsH8GFqufgWLTIjI8clU+evsjOdw7alqyEHSJ9ZF+2b3nDD9feY5KMPJLaat01TZ6ArBWU7RUniopNUszSQe7F+Tj+vVSZ1pQgNQvrhYVgLWKsoWJXwByplZ2vdkuXSlur22OmNcXjpqKBeaR21X5IN8C8OY22bfNFYA1FYQaNj4u+3bUmoZci0jbXvXZ7l0zhT9bSJv6wmb/DMQCsFZRvliav7HQLCGMCMHIIyvkQO1S69HgULds6X1ZVjq3c53y/NBN6znk2O13pdl9rnu75ZR5ata6dkU+GtEPdEXwytRVa6oXijt7BRkZnkQlaoYMHj0sW7Z2mNsR6dHnc2RcrttP5wf1ZWf7RhV8Rq5Kx4vOvnbI7s6rMqyfX/247Gq0XolZS30RNX+xGD5+UnZHf2bV7cUj0tF9y3oua9fOyHPu99x6UvrMU8h/hGDkj/mlUq3vJ3pl9/Xz3j/D374hx9QNyI1RObxH/8I6LK8enboAWvPIYuvPpMPHj7h+SSbe8q37QOYWyiKd9m/cyq8//+qAooLO7j0n5PQ106YM9p6QA8fHrcflFYVXhUcGnC+iI/1yIL77y7VR9XNReF9AkTuEYCAjpfJAkXmI3KheI7v0n44LtFtAMlUV9p9fC7HSm5HGB6VB3fX9Mg/7VquQM/3B3HwpQKJZ/O8dhYeBcXksDAPj6qpaZV/l0tT95sa6ZeWl82Yhxh5Ep/sQmwYZk8Gx92W3em3igC4zUEucAV9lsmnZk/J0SUl0+4NjvWrduMFgpa3So/cxnfAbsJ+Z8Q4o+0dZIc8uXRvrJz0xJqeG3pLtSQYJZnZe4q2QA40tsi7tgXFlantN9udotqfP4xtD74pUviCvlCQfGNe0o13aV5sFGZeeFw/LYVfVLicCBnGlO3glcVDNuAyfvSrd3Wc8FUYv3S+0VZrLr0rH1hNy2rSmq0bt83a1zYpomBqXvuN+g7nMdm6clC3dIm0tDdKs+zuPXJWegyfksNQmtiXsc0R9Dk9Y/aSdAT7DZ/vt41ukz92CpJ+L1e92o2T02aV/fFNhcp+NL3U8r3mOJ4mz6rOKG4yZcA6r7c/tYc9nclIOqPWs8+MMyAr8GXaOMcm/Kb9tqJ+RbvUzEvxzPTnT8e+9ZrP62dpo/xUmKZ/PwRJwXtIbRKfHATwuDWkPjFP/9jY/LC313n8Lw2f75EC3+qyTnZsZ+PxmGyrBmGGRLAeO2APU7EF0psmiAm1Ji3Q1tsvO+aYpXlFElsxXQU8FzVdcAVirKWmULp9Bb2kF4CnwQGW7dK1SgdQ9UFA9Xle7TT5etsI0uE3ivGTFDuxdtd4vCfo8vrKqXZ6eZxpmmP8gLvULI53+wL6DatQvndX10v5Sm+xqDKpmmWpgxv1k1S/Rve1qm/GBygzmShhs5VQdH5RdLz1uh12tfLE83KKCWVxbc0vcYDAdpt5stWbKcIeG6PF9Q395+Fw+S/JL1a54J39NTKbHl2s68OtwqGeyyFEANtIKwGnQgbjLfG6ez0TdcvUFIXAb6mek/aVCr9Iu8BxT+tQXhx3B56V5W2uO+5Drfwvq354O7HH/FipWq38L+t9fwOcwuz+/6UMlOI+Fboo0Z6quNCqQdVUqHFbqYDgmpwZcVVEVbncubZGnrEB2WZ7vPSLHrCc0p8JqFtW6h9S6zrRrddbMFPbAvFMDL6v3tB7GybRKmg3vfjpV1WNWJbVMNlU9Ka9Yx564n9mdl3jpH+OmZbrSqx95t1entves2p4dxFNMkab/PPqMPXpf9519bgr76EaZynDq6bxi1bS+znfUa519U1/eGh+W7TrIBVWznEpdULXJl6kiOVXRD12VIF31eUb90rPCm2u/ne3ox2pbu3Wl0ByfJb7Nsz/O9pSRfuk4GKtsW5Va6/iUpFUt8x5pHWcWx5dTQZ9nrpnjTLsaaIeafRuLpe/sVWlYrT6nkavq8/jI1WdV/cxVj7rO1yQqwdGfj8Tqe+xzn6K/ykz3v/eU58nFnBe7muo9902bn1BhVX/ZS/XXg/Q/e+cztz9rd/XW/P/lu+oz6vc5RzP5+c0yVIJReFRY3meCng5Xnm4Bt8/L/v5OOTShF5bK01VlVnOCCR0EVTBzrXvx5hF5fsx+XF0UsN40GxzqlOZLTgDWbsix6x2yZcje0XUlrmpwLs5LJtT2njYBOH57F9X2tke3l8K1M/KqNUitY3oCsGJXhsfl00/t5ZTUL6mjnsCkwkjvCXlu6xHpCPhF4wyK0zMQuKdDi958Kp5NO3RAVL8Q1Xu+qn+xud/32oAcPthvzWrgGcy1yFSC9C9dHXb140/H7dkP3G3G8HBsNLy9PUUHWPUL2/0nVOv4Oq/aC8kGvJmBR+73DZLV8eVQrAKstj9lAXhydAC2BlJag/nifuZyEmhUONbhSrHOQ1z3k9jnXiwPPzIFn8MM/HtPmzr23S+q/fI596ePHpaOs/rxArnfGsGdO8P9OnCbBYv5/4s6T4nnaIY/v1mGEIzCM890oRh7P6C6eEP2D122HtVElvvM56tC22X/SuiVOyYF54UxeW/MFWRdLo5dsv/HN680dnyTPi8ZSrm9fBWRb9bb1ZdfpAwVo/KZ/gjK62X7jlqpSfjlp0eXm4dxnEFxgRKCZa08avWVtP+c6RucnYqvi9PVo+9tV9XJBGN3m/O66CC9aj1Xsm6wg3IySQe8mW2lHvyX3fHljHO8KvDn9Wwcav+mNBxWL5GH9bcW9bkfDToPvZ9Y03xV1C+Z4q4p+SdWaY9IU+Ma2bWjTV7b22b9fNp9mYtl0SLrFZM2+KE9VV/Fxidk12a//7/44PPLKUIwCk5dkf3tdvBOknmD75gR4br/r9UwS7mOb7rPS1rby0uZTed1+kdHpOPsuOmjp8Oa7qenfmGZ5/1F5H6r2K7/JBmbCs1ziw+eZoaFTNlh21vVbrL68Xrb7NfFLmYRnb4tSb/odCrm9rbSuEhGlseXa+lUrGfSlO+f85cD9cVuX/yXkOjN/IUghPQgWGv2ipdapV2PBdB9buMuspEz1hR+/dI3YvrDO18OVegODMV8fjlFCAYQLhlP5zWqgvBhe2L947pyY35hWWE46M+NzqC4dKrNtmhFt9MnMMfdYpVCp7rqHpTmBHB3m3mda5CeE54/+jCo6mgq5kkHvJltpTH4L7vjyyFzUYO8+xM88kejMwhWPVb/dvuOn5QOPc+0uumfS7s7RI453UPM/1/61L+lYeeKhnqAm/4LlHkpco8QjIJVMy/JZZSdP9VPjMoVqyHHZrrCnOT4pvu8JN1eHkqnuunrmu4XqPsB619YJ0315glp86vWOBP0Z3HxiIz6wzrbOfuJa6COCeDutqz2J53ZLTKrqmuhujiFCjNV5mHecPqL637g5ktH4C3NQX2zQ625sty49HTafbJ1f1vdN3jQ0z94ipj/v7y657Dr/zFi/QVqu/vLNp9fThGCUXCi/WFL1gZM91UmOyvN5ZdHL0zRDA4ReTDTqcbmr5cD9S/Ix40vSE9aA9NK5AHfKcb8jy/n5yVF0I9tr042WS1x5qd5YRE9WnwaJ89Pfzov9UsxqApzbUBefdsefOLXPzDa1SCDP20PDn9u3Sfrx1fTaL7EOMyfRj3bMZVuT5vf6yxB/Rv1NGLmT6rJAq7ftgJkdXy51LhBXtN/Kt67QZpM09TL/SCqqGu3xLryd0DQrtn8hDUIMIFzyfDVDf5f4KbaNP97z5j+643voMmI3G8epSWNL0A1jUmqvNH/x6h/MxULrXvLTH9+swwhGIXn9rvyhjV+rUSeWtUuB0pdgVJPBRadXuyyvHHdf2BZ9s7LO862l66XTe6wOb9MNrn3Jc4m18UraiqfTGu+3nW1OjCviA1iS3Z8OTsvN+W30VkkvNv2HO/tC/Keed0r9a2e5/R0cz16fmOznExTi/nzo6IHiEzt/9idrgKLpcX1C1j/MmqK227N5gZp0P2Adf+8+HBWrQKyGaHtxxkUl9GV4sxgFquv3941nv2p0dOH7WiTfdtaZbNrntKEwW5Kum3Xh+3LBjdsU6HQvS2rT6SeN9heTifg6mAbfQ9rQJFPuMni+HLHHlFv96X0fvZTY0A+sP50XizNz3iPNfD8ZOyWfGql4MXS7v6ypt7fOpfWdF5+RuWw+QLXbM1DG9/3VE8Hpr8wTM2Xhen9954FPQjW0+df/dvXX6D0dHPm30Rysc+lxf0+6mfc+3OwRrZvs7tVWV0e1Ofmpv9N2JXp+H+DM/v5zTbME5zHmCc4mfg5f+P5zU3rrOP3nM2ZZ9eamiwoKDr7aRa9gufgjc2pqwXvg3s/BydKAi7UEbR+NuclUWy+4TjxV8RLdi4mLsupO0tlXT5cMc4lOjdnHL+5aYNeG3XWzMFrFm3O/Kyp5hP1EZ3/05/nimGKfe6858xuc287aH/MfKZmyWNEvbZ/gbSnvApcwHvoGSf8/hSb4fHljnMO7KVpnZ/WLHol/mw4P2sZ7VuS86nfp7tCf5nx/zeV8mdb/Qz4X11wcqb733v0cwj6mXRJek6sfxNiXdgi1TzWge+juzC4BsTaV6KMfSnwFbDfM/X5zTZUglGgbsj+/pdly0CvnPLMRasvD9wtW/QcwCmCXtZuvyvN57rVdr3TqQ2q0Hdo4HTgRSiODcX2dXDordT7N3FJdlvHeFm9t2lT9MUzng8Mlbk5LxetuYjVds2yRR/fWNxMEOZcHBpznwt9WWe1rf4j8noaU86d7tajo+3Hw8ffmfL/aQ8efcea7SFGTzh/0ne6ocGjekDcSelRr7f64RnDI/piC0d8ArCWTl/aAL0nTF9A9/6p7Z3tlw49f6lne34D4PwGqgXtz4C8ao4tyjmuPSfMa1N1G9HvEfv8NH2hgZ63A2acyOj4csmunlmfodq/7ukYHGeN/Pc5Vn1+Oj/K7MtRED2vbac6Ltf5t8KaPpfqGJ1qv5+gn23rZ0D9e9A/A1Pxb3G6/71nQp8Tv/Pp9BE+7TlRwaz3sQbRuuj3+aX3ryqDvfaguN2d+pz4/Zzof4v+wX2mPr/ZhkpwHgtdJRgAAGCaUAkGAABA6BCCAQAAEDqEYAAAAIQOIRgAAAChQwgGAABA6BCCAQAAEDqEYAAAAIQOIRgAAAChQwgGAABA6BCCAQAAEDqEYAAAAIQOIRgAAAChQwgGAABA6My9r6zsB+ZxwfnqVxfI73//uVmafWb78aXvIfne889Kyx9+RQZ++Vu5bVpTy2C9+x6Sb23cLN/+374j3276lqxVt+VlX5FP/3sm2wMAAIVizkMrV901jwtOVVWNXL8+aJZmn9l+fOm677E/lf/cKPLzzr+Wf/pn05iGtNe773H5L9v+g5SYRY+xS/KT17vk12ZxptjHMio/eWXm9yW39BeVJ6XWLAUZ6z0o//W9G2Zp5szezwEAwofuEMhvKqC2NEZEBk5nFIDTX69MvvWkHYDHBt6SH7/yA/lLc/txzyUZuPRPeRB2yqRumTqWsVG5aVpmjfvu9f/yEWdsdOYD8Kz+HAAghKgE5zEqwSJfb/2B/HHtpYwrb2mv51SBVQD+yyO/Mo35xlRL83ofs2NXViN5U+lNbvZ+DgAQRlSCkb9WbFFBVv8pPMNqbAbr3bd8mVWJHLiYx6FmxXKru0BW+6hD/vM/kL94/k/lW/eZtjxSWhqx7vOj0pvCZD4HAEDeoRKcx8JdCS6Tbz37jPyR/Ex+/PpJSb8nRKr1HpLvPdsktSV2+AoWUEW+r0y+vu570lgbif0Zf+yS/Pxn/yT/dN4vyJn9GXOqh2r9x74ljY12+NZ0N4xu9VxsX9PdRy1Ztdvb33Zqq63quFq952Vs4GfSe+qk/PreLfIXzRGfvtnm3JRkXukvrM8BAJCPqAQjP634lgpHIgM/yyQAK6nW031Q0wo1ie5bsUX+y7Zn5I/dwUsrWSZ/1PyM/JfHykyDy31fl6XqxWM3f6ce66qsWt8VvLSS2ielxb1uJvuYrH9qmv1tJ805rrjzUlL7H+SPt/2pfK9umVoaldGED+ReiegVMuxjW3CfAwAgL1EJzmPhrQSbCuZYplXgTNfL4PUqeP1Fsw5zKu94KoZlct9j35L/rAKVDnoJ1U6z3pgKSaICVYmebeKtf5Jf/7OuVurqqQ5z6mFgP9Nsz4Xt661/aoXFxCpnrpj90w/VPv7krZPq2KwnrLDaoo7dCpp++59Nf+wC/RwAAPmHSjDyzn2PNalQpYKMClSZhI2M13MqpWO/S/F6FYBM8Bro+YH8V0+YvCH//F6X/LhXhSuJyNLl3irkfRG7kmhVFHsPyl/q6das4KXdkF+f+pmMmSVfae+jv18f+WtrpgvvPufO11tNANbhUYVDJwBr/3y+S/5rzyV7wWf/nf7YUvuk/IXVbznu9uzj4u3GXLifAwAg/xCCkV/um+op0Vzutf+cbv2JPAk7XKvXqfD0D+fttnj/fOGSFaJKSu+1Gwxn4NdAT/L+uIH7YPYxLwdjqXPeaJ2Yn8mPfaunMX7775ybQHGBk88BAJBLhGDkla+v03P2XpKfpAhV8bJZ7+umr+rlC8GhSLMDVOrXJSqz+7yq/brkO1hLBTtTDQ2aHcHZx9HkOX1GRPf90q8Dq6N2BdZv/51zo7suxOZm9tziPks+BwBALhGCkT9WTP2UaDGxEJY4YMstzdf5VpVTD/xygp1/uEp3H2dG6lBqLi7hu//OubkkF9M6Nj4HAEBuEYKRJ8rkW/9hmQoqP5PujKbxyna97GYm8Gf2QfFUEs28ssH9SFOFK7OPAxcKdOqtJOd4SvrY8jkAANJHCEZeuO+x72U1JVq266Ufwm7IqDViapksW2E1JHD2QQfx9119VZ3BWMH9SFMEcWcfs/KQfO9Ze4CZ75RhORORiLf7raFnXHBmjUg8x9HuByn6Y8cU6ucAAMhXhGDkgYdkrTWo7a3AAU/+sl0vFsLSGej064v2DAe1zX8q31vhnkf2IflWq33ZX11FjJ+VIvmf2BVToUzWp9ZS2yTfcm33Pmu7j8vXzbIfK4Ca5Fay7Otxsyzkxs2beiYGfV62yNddG7hvxeMqgJspxxS/oGufG50706/eF+LnAADIX3PvKyv7gXlccL761QXy+99/bpZmn9l+fI77HtssT1TdUeHlmAzeNo1pyHY9bfEj35GlJaNy+f0PU6/7u1/LeNm31OvnqUD5DVnb9C371lAnlarNCl4+V0Nb3vQNqZx3Xc6e+LX45a/7/vBbUl81Tz49+7Zc8HvB7Tvy7/5Qv8c8qXRtt97abpXMGf8n//Wi2zaLn/5S/t//njTeZeX24L/IfU116stERJY2mHOi929ZlZRMXJKfnBVZqj6fc//4btw5dvbvkvT+g/+58VVwnwMAIJ9RCcbMms4p0aIyH+j06yM/kB/3XJIx92SyY6My0PuW/PiV+OClpfgTu5KyQik35J9ePyg/H7Arro4xfaGHzh8kqX6r9X5mTxWmB5795FT6M2Zk5lfyD51vefdPn5Oeg/Lj17vMcfud49TnJkhhfQ4AgHzGFePyWBiuGPf11h/IH9eqMPFKV0aDjrJdDwAAQKMSjJkzrVOiAQAAxBCCMUOme0o0AACAGEIwZsS0T4kGAADgQp/gPBaGPsEAAAAzgUowAAAAQocQDAAAgNAhBAMAACB0CMF5jP7AAAAAU4MQDAAAgNAhBAMAACB0CMEAAAAIHUIwAAAAQocQDAAAgNDhinF5rmlHu7SvNgsyLsMjn0v3wRNy+pppAgAAQMaoBBeUYqkoXyztL22QJtMCAACAzFEJLiTVtdL2zOPSXD4uPS8elsNUgwEAALJCJbiQXBuQX/SPmwUAAABkixBcYAaHPzePAAAAkC1CcIGpqVhgHgEAACBbhOCC9Ll8Rn9gAACArBGCAQAAEDqE4IK0WNr3rpGmarMIAACAjDBFWsGJSNOOJ6RldbFUmJbh40fkuaOjZgkAAACpUAkuUE4ABgAAQOaoBBeaxg3StW2xyMhV6Tj4kZy+RgUYAAAgU1SCC4w9Rdq49Bw8QQAGAADIEiG4IDFFGgAAwGQQggvSArmfmSEAAACyRggGAABA6BCCC8zg8OfmEQAAALJFCC4w9sA4AAAATAYhuJBU18rmjcVmAQAAANlinuA817SjXdpXmwXHSL/s3nNGwnatPAAAgFyhElxQxmX4bL90HCQAAwAATAaVYAAAAIQOlWAAAACEDiEYAAAAoUMIBgAAQOgUdAimPzAAAACyQSUYAAAAoUMIBgAAQOgQggEAABA6hGAAAACEDiEYAAAAoVPQV4zTmna0S/tqs6AvKzzyuXQfPCGnr5kmAAAAIM4sqwQXS0X5Yml/aYM0mRYAAAAgXsFXgj2qa6XtmceluXxcel48LIepBgMAAMDH7KoEXxuQX/SPmwUAAADA36wbGDc4/Ll5BAAAAPibdSG4pmKBeQQAAAD4m6VTpH0un9EfGAAAAAFmaQgGAAAAgs3SELxY2veukaZqswgAAAC4zK4p0iwRadrxhLSsLpYK0zJ8/Ig8d3TULAEAACDsZm13CCcAAwAAAPFmXyW4cYN0bVssMnJVOg5+JKevUQEGAACA1yydIm1ceg6eIAADAADAF1OkAQAAIHRmaQheIPczMwQAAAACzNqBcQAAAECQWReCB4c/N48AAAAAf7N0YBwAAAAQbHaF4Opa2byx2CwAAAAA/gp+nuCmHe3SvtosOEb6ZfeeMzJoFgEAAAC3WdYdYlyGz/ZLx0ECMAAAAILNvivGAQAAACkwRRoAAABChxAMAACA0CEEAwAAIHQIwQAAAAgdQjAAAABChxAMAACA0CEEAwAAIHQIwQAAAAgdQjAAAABChxAMAACA0CEEAwAAIHQIwQAAAAgdQjAAAABChxAMAACA0CEEAwAAIHQIwQAAAAgdQjAAAABChxAMAACA0CEEAwAAIHQIwQAAAAgdQjAAAABChxAMAACA0CEEAwAAIHQIwQAAAAgdQjAAAABChxAMAACA0CEEAwAAIHQIwQAAAAgdQjAAAABChxAMAACA0CEEAwAAIHQIwQAAAAgdQjAAAABChxAMAACA0CEEAwAAIHQIwQAAAAgdQjAAAABCRuT/B9n05JG9bCKiAAAAAElFTkSuQmCC;" vertex="1" parent="1">
          <mxGeometry x="480" y="1270" width="705" height="514" as="geometry" />
        </mxCell>
      </root>
    </mxGraphModel>
  </diagram>
</mxfile>
